VotoSerifGX-ExtendedBoldText.ufo
<glyph name="hyphen" format="2">
  <advance width="361"/>
  <unicode hex="002D"/>
  <outline>
    <contour>
      <point x="29" y="202" type="line"/>
      <point x="332" y="202" type="line"/>
      <point x="332" y="343" type="line"/>
      <point x="29" y="343" type="line"/>
    </contour>
  </outline>
</glyph>
<glyph name="one" format="2">
  <advance width="672"/>
  <unicode hex="0031"/>
  <outline>
    <contour>
      <point x="100" y="0" type="line"/>
      <point x="621" y="0" type="line"/>
      <point x="621" y="66" type="line"/>
      <point x="524" y="66" type="line" smooth="yes"/>
      <point x="478" y="66"/>
      <point x="477" y="108"/>
      <point x="477" y="123" type="curve" smooth="yes"/>
      <point x="477" y="718" type="line"/>
      <point x="307" y="718" type="line"/>
      <point x="225" y="662" type="line" smooth="yes"/>
      <point x="150" y="611"/>
      <point x="85" y="592"/>
      <point x="38" y="582" type="curve"/>
      <point x="38" y="521"/>
      <point x="74" y="483"/>
      <point x="113" y="483" type="curve" smooth="yes"/>
      <point x="159" y="483"/>
      <point x="201" y="536"/>
      <point x="263" y="602" type="curve"/>
      <point x="263" y="123" type="line" smooth="yes"/>
      <point x="263" y="92"/>
      <point x="256" y="66"/>
      <point x="218" y="66" type="curve" smooth="yes"/>
      <point x="100" y="66" type="line"/>
    </contour>
  </outline>
</glyph>
<glyph name="semicolon" format="2">
  <advance width="369"/>
  <unicode hex="003B"/>
  <outline>
    <contour>
      <point x="68" y="-154" type="line"/>
      <point x="228" y="-118"/>
      <point x="289" y="-41"/>
      <point x="289" y="46" type="curve" smooth="yes"/>
      <point x="289" y="128"/>
      <point x="254" y="182"/>
      <point x="176" y="182" type="curve" smooth="yes"/>
      <point x="125" y="182"/>
      <point x="79" y="155"/>
      <point x="79" y="100" type="curve" smooth="yes"/>
      <point x="79" y="-4"/>
      <point x="164" y="11"/>
      <point x="164" y="-25" type="curve" smooth="yes"/>
      <point x="164" y="-63"/>
      <point x="129" y="-68"/>
      <point x="68" y="-90" type="curve"/>
    </contour>
    <contour>
      <point x="184" y="360" type="curve" smooth="yes"/>
      <point x="243" y="360"/>
      <point x="296" y="384"/>
      <point x="296" y="456" type="curve" smooth="yes"/>
      <point x="296" y="530"/>
      <point x="243" y="552"/>
      <point x="184" y="552" type="curve" smooth="yes"/>
      <point x="121" y="552"/>
      <point x="72" y="530"/>
      <point x="72" y="456" type="curve" smooth="yes"/>
      <point x="72" y="384"/>
      <point x="121" y="360"/>
    </contour>
  </outline>
</glyph>
<glyph name="L" format="2">
  <advance width="790"/>
  <unicode hex="004C"/>
  <anchor x="396" y="0" name="bottom"/>
  <anchor x="396" y="357" name="center"/>
  <anchor x="396" y="714" name="top"/>
  <anchor x="770" y="714" name="topright"/>
  <outline>
    <contour>
      <point x="24" y="0" type="line"/>
      <point x="750" y="0" type="line"/>
      <point x="759" y="233" type="line"/>
      <point x="690" y="233" type="line"/>
      <point x="666" y="158" type="line" smooth="yes"/>
      <point x="645" y="90"/>
      <point x="616" y="74"/>
      <point x="573" y="74" type="curve" smooth="yes"/>
      <point x="366" y="74" type="line"/>
      <point x="366" y="603" type="line" smooth="yes"/>
      <point x="366" y="629"/>
      <point x="374" y="648"/>
      <point x="416" y="648" type="curve" smooth="yes"/>
      <point x="473" y="648" type="line"/>
      <point x="473" y="714" type="line"/>
      <point x="24" y="714" type="line"/>
      <point x="24" y="648" type="line"/>
      <point x="77" y="648" type="line" smooth="yes"/>
      <point x="108" y="648"/>
      <point x="132" y="629"/>
      <point x="132" y="602" type="curve" smooth="yes"/>
      <point x="132" y="109" type="line" smooth="yes"/>
      <point x="132" y="85"/>
      <point x="108" y="66"/>
      <point x="86" y="66" type="curve" smooth="yes"/>
      <point x="24" y="66" type="line"/>
    </contour>
  </outline>
</glyph>
<glyph name="s" format="2">
  <advance width="585"/>
  <unicode hex="0073"/>
  <anchor x="292" y="0" name="bottom"/>
  <anchor x="292" y="536" name="top"/>
  <anchor x="565" y="536" name="topright"/>
  <outline>
    <contour>
      <point x="283" y="-10" type="curve" smooth="yes"/>
      <point x="465" y="-10"/>
      <point x="557" y="68"/>
      <point x="557" y="182" type="curve" smooth="yes"/>
      <point x="557" y="292"/>
      <point x="472" y="331"/>
      <point x="346" y="360" type="curve" smooth="yes"/>
      <point x="238" y="386"/>
      <point x="207" y="402"/>
      <point x="207" y="434" type="curve" smooth="yes"/>
      <point x="207" y="464"/>
      <point x="242" y="476"/>
      <point x="290" y="476" type="curve" smooth="yes"/>
      <point x="353" y="476"/>
      <point x="403" y="441"/>
      <point x="403" y="377" type="curve"/>
      <point x="492" y="377"/>
      <point x="530" y="402"/>
      <point x="530" y="453" type="curve" smooth="yes"/>
      <point x="530" y="499"/>
      <point x="470" y="551"/>
      <point x="310" y="551" type="curve" smooth="yes"/>
      <point x="146" y="551"/>
      <point x="36" y="498"/>
      <point x="36" y="371" type="curve" smooth="yes"/>
      <point x="36" y="265"/>
      <point x="106" y="218"/>
      <point x="248" y="187" type="curve" smooth="yes"/>
      <point x="344" y="168"/>
      <point x="388" y="150"/>
      <point x="388" y="115" type="curve" smooth="yes"/>
      <point x="388" y="93"/>
      <point x="361" y="68"/>
      <point x="287" y="68" type="curve" smooth="yes"/>
      <point x="207" y="68"/>
      <point x="152" y="99"/>
      <point x="152" y="196" type="curve"/>
      <point x="84" y="196"/>
      <point x="29" y="174"/>
      <point x="29" y="113" type="curve" smooth="yes"/>
      <point x="29" y="49"/>
      <point x="88" y="-10"/>
    </contour>
  </outline>
</glyph>
<glyph name="w" format="2">
  <advance width="994"/>
  <unicode hex="0077"/>
  <anchor x="497" y="0" name="bottom"/>
  <anchor x="497" y="536" name="top"/>
  <anchor x="1004" y="536" name="topright"/>
  <outline>
    <contour>
      <point x="226" y="0" type="line"/>
      <point x="379" y="0" type="line"/>
      <point x="490" y="229" type="line"/>
      <point x="593" y="0" type="line"/>
      <point x="743" y="0" type="line"/>
      <point x="893" y="392" type="line" smooth="yes"/>
      <point x="918" y="454"/>
      <point x="935" y="470"/>
      <point x="981" y="470" type="curve" smooth="yes"/>
      <point x="996" y="470" type="line"/>
      <point x="996" y="536" type="line"/>
      <point x="716" y="536" type="line"/>
      <point x="716" y="470" type="line"/>
      <point x="725" y="470" type="line" smooth="yes"/>
      <point x="776" y="470"/>
      <point x="802" y="455"/>
      <point x="802" y="421" type="curve" smooth="yes"/>
      <point x="802" y="410"/>
      <point x="797" y="388"/>
      <point x="791" y="371" type="curve" smooth="yes"/>
      <point x="744" y="243" type="line" smooth="yes"/>
      <point x="736" y="226"/>
      <point x="729" y="216"/>
      <point x="723" y="187" type="curve"/>
      <point x="719" y="187" type="line"/>
      <point x="716" y="202"/>
      <point x="710" y="216"/>
      <point x="704" y="234" type="curve" smooth="yes"/>
      <point x="591" y="529" type="line"/>
      <point x="515" y="529" type="line"/>
      <point x="396" y="264" type="line" smooth="yes"/>
      <point x="385" y="243"/>
      <point x="372" y="219"/>
      <point x="367" y="188" type="curve"/>
      <point x="363" y="188" type="line"/>
      <point x="358" y="216"/>
      <point x="346" y="253"/>
      <point x="330" y="301" type="curve" smooth="yes"/>
      <point x="302" y="382" type="line" smooth="yes"/>
      <point x="297" y="397"/>
      <point x="293" y="417"/>
      <point x="293" y="428" type="curve" smooth="yes"/>
      <point x="293" y="461"/>
      <point x="316" y="470"/>
      <point x="363" y="470" type="curve" smooth="yes"/>
      <point x="378" y="470" type="line"/>
      <point x="378" y="536" type="line"/>
      <point x="-7" y="536" type="line"/>
      <point x="-7" y="470" type="line"/>
      <point x="-2" y="470" type="line"/>
      <point x="44" y="470"/>
      <point x="61" y="458"/>
      <point x="80" y="417" type="curve" smooth="yes"/>
    </contour>
  </outline>
</glyph>
<glyph name="y" format="2">
  <advance width="687"/>
  <unicode hex="0079"/>
  <anchor x="194" y="-217" name="bottom"/>
  <anchor x="344" y="536" name="top"/>
  <anchor x="697" y="536" name="topright"/>
  <outline>
    <contour>
      <point x="22" y="-217" type="line"/>
      <point x="49" y="-217" type="line" smooth="yes"/>
      <point x="296" y="-217"/>
      <point x="341" y="-169"/>
      <point x="417" y="2" type="curve" smooth="yes"/>
      <point x="595" y="402" type="line" smooth="yes"/>
      <point x="613" y="444"/>
      <point x="640" y="466"/>
      <point x="682" y="470" type="curve" smooth="yes"/>
      <point x="687" y="470" type="line"/>
      <point x="687" y="536" type="line"/>
      <point x="429" y="536" type="line"/>
      <point x="429" y="470" type="line"/>
      <point x="435" y="471" type="line" smooth="yes"/>
      <point x="481" y="470"/>
      <point x="500" y="462"/>
      <point x="500" y="437" type="curve" smooth="yes"/>
      <point x="500" y="426"/>
      <point x="491" y="393"/>
      <point x="487" y="384" type="curve" smooth="yes"/>
      <point x="415" y="208" type="line" smooth="yes"/>
      <point x="411" y="201"/>
      <point x="405" y="184"/>
      <point x="400" y="157" type="curve"/>
      <point x="398" y="179"/>
      <point x="388" y="213"/>
      <point x="374" y="244" type="curve" smooth="yes"/>
      <point x="311" y="400" type="line" smooth="yes"/>
      <point x="306" y="410"/>
      <point x="300" y="425"/>
      <point x="300" y="437" type="curve" smooth="yes"/>
      <point x="300" y="460"/>
      <point x="317" y="470"/>
      <point x="367" y="470" type="curve" smooth="yes"/>
      <point x="373" y="470" type="line"/>
      <point x="373" y="536" type="line"/>
      <point x="-3" y="536" type="line"/>
      <point x="-3" y="470" type="line"/>
      <point x="2" y="470" type="line" smooth="yes"/>
      <point x="38" y="470"/>
      <point x="54" y="466"/>
      <point x="71" y="428" type="curve" smooth="yes"/>
      <point x="277" y="-14" type="line"/>
      <point x="240" y="-87"/>
      <point x="188" y="-146"/>
      <point x="22" y="-146" type="curve"/>
    </contour>
  </outline>
</glyph>
<glyph name="asciitilde" format="2">
  <advance width="713"/>
  <unicode hex="007E"/>
  <outline>
    <contour>
      <point x="60" y="254" type="curve"/>
      <point x="153" y="254" type="line"/>
      <point x="153" y="342"/>
      <point x="179" y="370"/>
      <point x="215" y="370" type="curve" smooth="yes"/>
      <point x="251" y="370"/>
      <point x="268" y="349"/>
      <point x="317" y="321" type="curve" smooth="yes"/>
      <point x="388" y="278"/>
      <point x="418" y="254"/>
      <point x="501" y="254" type="curve" smooth="yes"/>
      <point x="617" y="254"/>
      <point x="644" y="299"/>
      <point x="650" y="459" type="curve"/>
      <point x="553" y="459" type="line"/>
      <point x="553" y="375"/>
      <point x="541" y="343"/>
      <point x="506" y="343" type="curve" smooth="yes"/>
      <point x="476" y="343"/>
      <point x="445" y="358"/>
      <point x="390" y="393" type="curve" smooth="yes"/>
      <point x="303" y="449"/>
      <point x="292" y="459"/>
      <point x="233" y="459" type="curve" smooth="yes"/>
      <point x="106" y="459"/>
      <point x="60" y="392"/>
    </contour>
  </outline>
</glyph>
<glyph name="currency" format="2">
  <advance width="672"/>
  <unicode hex="00A4"/>
  <outline>
    <contour>
      <point x="160" y="149" type="line"/>
      <point x="221" y="198" type="line"/>
      <point x="253" y="181"/>
      <point x="294" y="171"/>
      <point x="337" y="171" type="curve" smooth="yes"/>
      <point x="379" y="171"/>
      <point x="421" y="182"/>
      <point x="456" y="200" type="curve"/>
      <point x="518" y="149" type="line"/>
      <point x="583" y="209" type="line"/>
      <point x="520" y="260" type="line"/>
      <point x="540" y="287"/>
      <point x="552" y="318"/>
      <point x="552" y="354" type="curve" smooth="yes"/>
      <point x="552" y="389"/>
      <point x="539" y="422"/>
      <point x="517" y="450" type="curve"/>
      <point x="583" y="507" type="line"/>
      <point x="518" y="568" type="line"/>
      <point x="451" y="511" type="line"/>
      <point x="418" y="529"/>
      <point x="378" y="538"/>
      <point x="337" y="538" type="curve" smooth="yes"/>
      <point x="295" y="538"/>
      <point x="258" y="529"/>
      <point x="225" y="513" type="curve"/>
      <point x="160" y="567" type="line"/>
      <point x="95" y="507" type="line"/>
      <point x="159" y="454" type="line"/>
      <point x="135" y="426"/>
      <point x="123" y="389"/>
      <point x="123" y="354" type="curve" smooth="yes"/>
      <point x="123" y="318"/>
      <point x="133" y="287"/>
      <point x="154" y="260" type="curve"/>
      <point x="92" y="212" type="line"/>
    </contour>
    <contour>
      <point x="337" y="252" type="curve" smooth="yes"/>
      <point x="269" y="252"/>
      <point x="214" y="297"/>
      <point x="214" y="354" type="curve" smooth="yes"/>
      <point x="214" y="412"/>
      <point x="269" y="456"/>
      <point x="337" y="456" type="curve" smooth="yes"/>
      <point x="409" y="456"/>
      <point x="461" y="412"/>
      <point x="461" y="354" type="curve" smooth="yes"/>
      <point x="461" y="297"/>
      <point x="409" y="252"/>
    </contour>
  </outline>
</glyph>
<glyph name="overscore" format="2">
  <advance width="536"/>
  <unicode hex="00AF"/>
  <outline>
    <contour>
      <point x="-5" y="760" type="line"/>
      <point x="542" y="760" type="line"/>
      <point x="542" y="819" type="line"/>
      <point x="-5" y="819" type="line"/>
    </contour>
  </outline>
</glyph>
<glyph name="degree" format="2">
  <advance width="466"/>
  <unicode hex="00B0"/>
  <outline>
    <contour>
      <point x="232" y="381" type="curve" smooth="yes"/>
      <point x="349" y="381"/>
      <point x="439" y="449"/>
      <point x="439" y="548" type="curve" smooth="yes"/>
      <point x="439" y="647"/>
      <point x="349" y="716"/>
      <point x="232" y="716" type="curve" smooth="yes"/>
      <point x="116" y="716"/>
      <point x="26" y="647"/>
      <point x="26" y="548" type="curve" smooth="yes"/>
      <point x="26" y="449"/>
      <point x="116" y="381"/>
    </contour>
    <contour>
      <point x="232" y="496" type="curve" smooth="yes"/>
      <point x="186" y="496"/>
      <point x="155" y="514"/>
      <point x="155" y="548" type="curve" smooth="yes"/>
      <point x="155" y="583"/>
      <point x="187" y="602"/>
      <point x="232" y="602" type="curve" smooth="yes"/>
      <point x="279" y="602"/>
      <point x="312" y="583"/>
      <point x="312" y="548" type="curve" smooth="yes"/>
      <point x="312" y="514"/>
      <point x="280" y="496"/>
    </contour>
  </outline>
</glyph>
<glyph name="acute" format="2">
  <advance width="427"/>
  <unicode hex="00B4"/>
  <outline>
    <contour>
      <point x="40" y="606" type="line"/>
      <point x="145" y="606" type="line"/>
      <point x="226" y="640"/>
      <point x="358" y="721"/>
      <point x="387" y="756" type="curve"/>
      <point x="387" y="766" type="line"/>
      <point x="161" y="766" type="line"/>
      <point x="136" y="721"/>
      <point x="73" y="654"/>
      <point x="40" y="619" type="curve"/>
    </contour>
  </outline>
</glyph>
<glyph name="paragraph" format="2">
  <advance width="740"/>
  <unicode hex="00B6"/>
  <outline>
    <contour>
      <point x="197" y="-111" type="line"/>
      <point x="401" y="-111" type="line"/>
      <point x="401" y="685" type="line"/>
      <point x="490" y="685" type="line"/>
      <point x="490" y="-111" type="line"/>
      <point x="694" y="-111" type="line"/>
      <point x="694" y="-45" type="line"/>
      <point x="679" y="-45" type="line" smooth="yes"/>
      <point x="626" y="-45"/>
      <point x="583" y="-38"/>
      <point x="583" y="25" type="curve" smooth="yes"/>
      <point x="583" y="622" type="line" smooth="yes"/>
      <point x="583" y="685"/>
      <point x="626" y="694"/>
      <point x="679" y="694" type="curve" smooth="yes"/>
      <point x="694" y="694" type="line"/>
      <point x="694" y="760" type="line"/>
      <point x="227" y="760" type="line" smooth="yes"/>
      <point x="96" y="760"/>
      <point x="47" y="689"/>
      <point x="47" y="582" type="curve" smooth="yes"/>
      <point x="47" y="478"/>
      <point x="89" y="386"/>
      <point x="225" y="386" type="curve" smooth="yes"/>
      <point x="308" y="386" type="line"/>
      <point x="308" y="25" type="line" smooth="yes"/>
      <point x="308" y="-38"/>
      <point x="265" y="-45"/>
      <point x="213" y="-45" type="curve" smooth="yes"/>
      <point x="197" y="-45" type="line"/>
    </contour>
  </outline>
</glyph>
<glyph name="cedilla" format="2">
  <advance width="389"/>
  <unicode hex="00B8"/>
  <outline>
    <contour>
      <point x="161" y="-242" type="curve" smooth="yes"/>
      <point x="259" y="-242"/>
      <point x="335" y="-197"/>
      <point x="335" y="-125" type="curve" smooth="yes"/>
      <point x="335" y="-73"/>
      <point x="276" y="-38"/>
      <point x="201" y="-33" type="curve"/>
      <point x="213" y="9" type="line"/>
      <point x="138" y="9" type="line"/>
      <point x="113" y="-90" type="line"/>
      <point x="164" y="-92"/>
      <point x="201" y="-91"/>
      <point x="201" y="-130" type="curve" smooth="yes"/>
      <point x="201" y="-162"/>
      <point x="174" y="-164"/>
      <point x="130" y="-164" type="curve" smooth="yes"/>
      <point x="109" y="-164"/>
      <point x="78" y="-161"/>
      <point x="51" y="-156" type="curve"/>
      <point x="51" y="-231" type="line"/>
      <point x="78" y="-238"/>
      <point x="135" y="-242"/>
    </contour>
  </outline>
</glyph>
<glyph name="hbar" format="2">
  <advance width="806"/>
  <unicode hex="0127"/>
  <anchor x="404" y="0" name="bottom"/>
  <anchor x="404" y="760" name="top"/>
  <outline>
    <contour>
      <point x="25" y="0" type="line"/>
      <point x="415" y="0" type="line"/>
      <point x="415" y="66" type="line"/>
      <point x="410" y="66" type="line"/>
      <point x="359" y="66"/>
      <point x="338" y="77"/>
      <point x="338" y="129" type="curve" smooth="yes"/>
      <point x="338" y="251" type="line" smooth="yes"/>
      <point x="338" y="313"/>
      <point x="346" y="397"/>
      <point x="409" y="397" type="curve" smooth="yes"/>
      <point x="459" y="397"/>
      <point x="476" y="349"/>
      <point x="476" y="264" type="curve" smooth="yes"/>
      <point x="476" y="0" type="line"/>
      <point x="776" y="0" type="line"/>
      <point x="776" y="66" type="line"/>
      <point x="772" y="66" type="line" smooth="yes"/>
      <point x="720" y="66"/>
      <point x="703" y="75"/>
      <point x="703" y="136" type="curve" smooth="yes"/>
      <point x="703" y="317" type="line" smooth="yes"/>
      <point x="703" y="451"/>
      <point x="643" y="507"/>
      <point x="514" y="507" type="curve" smooth="yes"/>
      <point x="412" y="507"/>
      <point x="368" y="473"/>
      <point x="340" y="439" type="curve"/>
      <point x="330" y="439" type="line"/>
      <point x="334" y="481"/>
      <point x="336" y="518"/>
      <point x="336" y="554" type="curve" smooth="yes"/>
      <point x="336" y="559" type="line"/>
      <point x="504" y="559" type="line"/>
      <point x="504" y="621" type="line"/>
      <point x="336" y="621" type="line"/>
      <point x="336" y="760" type="line"/>
      <point x="18" y="760" type="line"/>
      <point x="18" y="694" type="line"/>
      <point x="36" y="694" type="line" smooth="yes"/>
      <point x="66" y="694"/>
      <point x="109" y="687"/>
      <point x="109" y="641" type="curve" smooth="yes"/>
      <point x="109" y="621" type="line"/>
      <point x="12" y="621" type="line"/>
      <point x="12" y="559" type="line"/>
      <point x="109" y="559" type="line"/>
      <point x="109" y="132" type="line" smooth="yes"/>
      <point x="109" y="75"/>
      <point x="74" y="66"/>
      <point x="29" y="66" type="curve" smooth="yes"/>
      <point x="25" y="66" type="line"/>
    </contour>
  </outline>
</glyph>
<glyph name="OE" format="2">
  <advance width="1239"/>
  <unicode hex="0152"/>
  <anchor x="620" y="0" name="bottom"/>
  <anchor x="620" y="714" name="top"/>
  <outline>
    <contour>
      <point x="479" y="-10" type="curve" smooth="yes"/>
      <point x="519" y="-10"/>
      <point x="565" y="-6"/>
      <point x="600" y="0" type="curve"/>
      <point x="1202" y="0" type="line"/>
      <point x="1210" y="195" type="line"/>
      <point x="1115" y="195" type="line"/>
      <point x="1105" y="143" type="line" smooth="yes"/>
      <point x="1097" y="100"/>
      <point x="1074" y="74"/>
      <point x="1023" y="74" type="curve" smooth="yes"/>
      <point x="815" y="74" type="line"/>
      <point x="815" y="336" type="line"/>
      <point x="1090" y="336" type="line"/>
      <point x="1090" y="409" type="line"/>
      <point x="815" y="409" type="line"/>
      <point x="815" y="640" type="line"/>
      <point x="990" y="640" type="line" smooth="yes"/>
      <point x="1045" y="640"/>
      <point x="1061" y="626"/>
      <point x="1068" y="571" type="curve" smooth="yes"/>
      <point x="1074" y="519" type="line"/>
      <point x="1170" y="519" type="line"/>
      <point x="1167" y="714" type="line"/>
      <point x="606" y="714" type="line"/>
      <point x="570" y="721"/>
      <point x="521" y="725"/>
      <point x="480" y="725" type="curve" smooth="yes"/>
      <point x="200" y="725"/>
      <point x="63" y="580"/>
      <point x="63" y="359" type="curve" smooth="yes"/>
      <point x="63" y="137"/>
      <point x="200" y="-10"/>
    </contour>
    <contour>
      <point x="479" y="68" type="curve" smooth="yes"/>
      <point x="354" y="68"/>
      <point x="307" y="175"/>
      <point x="307" y="358" type="curve" smooth="yes"/>
      <point x="307" y="541"/>
      <point x="354" y="647"/>
      <point x="480" y="647" type="curve" smooth="yes"/>
      <point x="527" y="647"/>
      <point x="561" y="630"/>
      <point x="583" y="610" type="curve"/>
      <point x="583" y="105" type="line"/>
      <point x="555" y="82"/>
      <point x="524" y="68"/>
    </contour>
  </outline>
</glyph>
<glyph name="uni018A" format="2">
  <advance width="1132"/>
  <unicode hex="018A"/>
  <anchor x="566" y="0" name="bottom"/>
  <anchor x="566" y="714" name="top"/>
  <outline>
    <contour>
      <point x="228" y="0" type="line"/>
      <point x="634" y="0" type="line" smooth="yes"/>
      <point x="919" y="0"/>
      <point x="1070" y="166"/>
      <point x="1070" y="385" type="curve" smooth="yes"/>
      <point x="1070" y="612"/>
      <point x="905" y="714"/>
      <point x="634" y="714" type="curve" smooth="yes"/>
      <point x="274" y="714" type="line" smooth="yes"/>
      <point x="85" y="714"/>
      <point x="9" y="629"/>
      <point x="9" y="533" type="curve" smooth="yes"/>
      <point x="9" y="469"/>
      <point x="45" y="420"/>
      <point x="110" y="420" type="curve" smooth="yes"/>
      <point x="144" y="420"/>
      <point x="167" y="431"/>
      <point x="187" y="446" type="curve"/>
      <point x="164" y="474"/>
      <point x="149" y="499"/>
      <point x="149" y="535" type="curve" smooth="yes"/>
      <point x="149" y="629"/>
      <point x="195" y="648"/>
      <point x="254" y="648" type="curve" smooth="yes"/>
      <point x="324" y="648"/>
      <point x="335" y="616"/>
      <point x="335" y="538" type="curve" smooth="yes"/>
      <point x="335" y="116" type="line" smooth="yes"/>
      <point x="335" y="93"/>
      <point x="318" y="66"/>
      <point x="290" y="66" type="curve" smooth="yes"/>
      <point x="228" y="66" type="line"/>
    </contour>
    <contour>
      <point x="567" y="75" type="line"/>
      <point x="567" y="640" type="line"/>
      <point x="607" y="640" type="line" smooth="yes"/>
      <point x="747" y="640"/>
      <point x="823" y="567"/>
      <point x="823" y="385" type="curve" smooth="yes"/>
      <point x="823" y="202"/>
      <point x="747" y="75"/>
      <point x="605" y="75" type="curve" smooth="yes"/>
    </contour>
  </outline>
</glyph>
<glyph name="uni018C" format="2">
  <advance width="787"/>
  <unicode hex="018C"/>
  <anchor x="394" y="0" name="bottom"/>
  <anchor x="394" y="760" name="top"/>
  <outline>
    <contour>
      <point x="283" y="-10" type="curve" smooth="yes"/>
      <point x="375" y="-10"/>
      <point x="429" y="18"/>
      <point x="464" y="63" type="curve"/>
      <point x="471" y="63" type="line"/>
      <point x="512" y="0" type="line"/>
      <point x="768" y="0" type="line"/>
      <point x="768" y="66" type="line"/>
      <point x="759" y="66" type="line" smooth="yes"/>
      <point x="702" y="66"/>
      <point x="675" y="87"/>
      <point x="675" y="151" type="curve" smooth="yes"/>
      <point x="675" y="760" type="line"/>
      <point x="108" y="760" type="line"/>
      <point x="108" y="585" type="line"/>
      <point x="188" y="585" type="line"/>
      <point x="197" y="621" type="line" smooth="yes"/>
      <point x="211" y="671"/>
      <point x="237" y="681"/>
      <point x="305" y="681" type="curve" smooth="yes"/>
      <point x="448" y="681" type="line"/>
      <point x="448" y="604" type="line" smooth="yes"/>
      <point x="448" y="563"/>
      <point x="448" y="524"/>
      <point x="451" y="488" type="curve"/>
      <point x="445" y="488" type="line"/>
      <point x="412" y="523"/>
      <point x="365" y="550"/>
      <point x="280" y="550" type="curve" smooth="yes"/>
      <point x="132" y="550"/>
      <point x="46" y="460"/>
      <point x="46" y="267" type="curve" smooth="yes"/>
      <point x="46" y="75"/>
      <point x="132" y="-10"/>
    </contour>
    <contour>
      <point x="356" y="80" type="curve" smooth="yes"/>
      <point x="296" y="80"/>
      <point x="274" y="143"/>
      <point x="274" y="270" type="curve" smooth="yes"/>
      <point x="274" y="393"/>
      <point x="296" y="462"/>
      <point x="357" y="462" type="curve" smooth="yes"/>
      <point x="427" y="462"/>
      <point x="448" y="393"/>
      <point x="448" y="271" type="curve" smooth="yes"/>
      <point x="448" y="138"/>
      <point x="427" y="80"/>
    </contour>
  </outline>
</glyph>
<glyph name="uni0199" format="2">
  <advance width="786"/>
  <unicode hex="0199"/>
  <anchor x="393" y="0" name="bottom"/>
  <anchor x="393" y="769" name="top"/>
  <outline>
    <contour>
      <point x="19" y="0" type="line"/>
      <point x="431" y="0" type="line"/>
      <point x="431" y="66" type="line"/>
      <point x="409" y="66" type="line"/>
      <point x="389" y="66"/>
      <point x="336" y="74"/>
      <point x="336" y="129" type="curve" smooth="yes"/>
      <point x="336" y="201" type="line"/>
      <point x="368" y="215" type="line"/>
      <point x="451" y="107" type="line" smooth="yes"/>
      <point x="517" y="22"/>
      <point x="571" y="0"/>
      <point x="768" y="0" type="curve" smooth="yes"/>
      <point x="785" y="0" type="line"/>
      <point x="785" y="66" type="line"/>
      <point x="780" y="66" type="line" smooth="yes"/>
      <point x="751" y="66"/>
      <point x="719" y="95"/>
      <point x="676" y="151" type="curve" smooth="yes"/>
      <point x="521" y="348" type="line"/>
      <point x="577" y="402" type="line" smooth="yes"/>
      <point x="640" y="460"/>
      <point x="689" y="476"/>
      <point x="743" y="476" type="curve"/>
      <point x="743" y="536" type="line"/>
      <point x="422" y="536" type="line"/>
      <point x="422" y="476" type="line"/>
      <point x="461" y="476"/>
      <point x="485" y="459"/>
      <point x="485" y="442" type="curve" smooth="yes"/>
      <point x="485" y="442"/>
      <point x="482" y="440"/>
      <point x="483" y="439" type="curve" smooth="yes"/>
      <point x="329" y="296" type="line"/>
      <point x="333" y="318"/>
      <point x="336" y="346"/>
      <point x="336" y="380" type="curve" smooth="yes"/>
      <point x="336" y="588" type="line" smooth="yes"/>
      <point x="336" y="679"/>
      <point x="354" y="700"/>
      <point x="385" y="700" type="curve" smooth="yes"/>
      <point x="416" y="700"/>
      <point x="423" y="658"/>
      <point x="423" y="597" type="curve"/>
      <point x="548" y="597"/>
      <point x="575" y="634"/>
      <point x="575" y="678" type="curve" smooth="yes"/>
      <point x="575" y="719"/>
      <point x="542" y="769"/>
      <point x="370" y="769" type="curve" smooth="yes"/>
      <point x="179" y="769"/>
      <point x="110" y="686"/>
      <point x="110" y="559" type="curve" smooth="yes"/>
      <point x="110" y="123" type="line" smooth="yes"/>
      <point x="110" y="73"/>
      <point x="56" y="66"/>
      <point x="36" y="66" type="curve" smooth="yes"/>
      <point x="19" y="66" type="line"/>
    </contour>
  </outline>
</glyph>
<glyph name="Ohorn" format="2">
  <advance width="1020"/>
  <unicode hex="01A0"/>
  <anchor x="511" y="0" name="bottom"/>
  <anchor x="511" y="714" name="top"/>
  <outline>
    <contour>
      <point x="479" y="-10" type="curve" smooth="yes"/>
      <point x="745" y="-10"/>
      <point x="893" y="137"/>
      <point x="893" y="358" type="curve" smooth="yes"/>
      <point x="893" y="399"/>
      <point x="886" y="437"/>
      <point x="873" y="473" type="curve"/>
      <point x="964" y="500"/>
      <point x="1043" y="565"/>
      <point x="1043" y="653" type="curve" smooth="yes"/>
      <point x="1043" y="734"/>
      <point x="998" y="770"/>
      <point x="940" y="770" type="curve" smooth="yes"/>
      <point x="891" y="770"/>
      <point x="852" y="741"/>
      <point x="852" y="698" type="curve" smooth="yes"/>
      <point x="852" y="634"/>
      <point x="916" y="635"/>
      <point x="916" y="592" type="curve" smooth="yes"/>
      <point x="916" y="558"/>
      <point x="887" y="537"/>
      <point x="852" y="527" type="curve"/>
      <point x="792" y="651"/>
      <point x="665" y="725"/>
      <point x="480" y="725" type="curve" smooth="yes"/>
      <point x="200" y="725"/>
      <point x="63" y="580"/>
      <point x="63" y="359" type="curve" smooth="yes"/>
      <point x="63" y="137"/>
      <point x="200" y="-10"/>
    </contour>
    <contour>
      <point x="479" y="68" type="curve" smooth="yes"/>
      <point x="354" y="68"/>
      <point x="307" y="175"/>
      <point x="307" y="358" type="curve" smooth="yes"/>
      <point x="307" y="541"/>
      <point x="354" y="647"/>
      <point x="480" y="647" type="curve" smooth="yes"/>
      <point x="604" y="647"/>
      <point x="648" y="541"/>
      <point x="648" y="358" type="curve" smooth="yes"/>
      <point x="648" y="175"/>
      <point x="604" y="68"/>
    </contour>
  </outline>
</glyph>
<glyph name="uni01A6" format="2">
  <advance width="868"/>
  <unicode hex="01A6"/>
  <anchor x="435" y="0" name="bottom"/>
  <anchor x="435" y="714" name="top"/>
  <outline>
    <contour>
      <point x="823" y="-120" type="curve" smooth="yes"/>
      <point x="878" y="-120" type="line"/>
      <point x="878" y="-54" type="line"/>
      <point x="870" y="-54" type="line" smooth="yes"/>
      <point x="831" y="-54"/>
      <point x="806" y="-29"/>
      <point x="762" y="35" type="curve" smooth="yes"/>
      <point x="630" y="222" type="line"/>
      <point x="720" y="243"/>
      <point x="796" y="289"/>
      <point x="796" y="398" type="curve" smooth="yes"/>
      <point x="796" y="501"/>
      <point x="704" y="582"/>
      <point x="445" y="582" type="curve" smooth="yes"/>
      <point x="364" y="582" type="line"/>
      <point x="364" y="598" type="line" smooth="yes"/>
      <point x="364" y="629"/>
      <point x="375" y="648"/>
      <point x="415" y="648" type="curve" smooth="yes"/>
      <point x="473" y="648" type="line"/>
      <point x="473" y="714" type="line"/>
      <point x="24" y="714" type="line"/>
      <point x="24" y="648" type="line"/>
      <point x="86" y="648" type="line" smooth="yes"/>
      <point x="119" y="648"/>
      <point x="132" y="629"/>
      <point x="132" y="599" type="curve" smooth="yes"/>
      <point x="132" y="118" type="line" smooth="yes"/>
      <point x="132" y="72"/>
      <point x="98" y="66"/>
      <point x="68" y="66" type="curve" smooth="yes"/>
      <point x="24" y="66" type="line"/>
      <point x="24" y="0" type="line"/>
      <point x="450" y="0" type="line"/>
      <point x="450" y="66" type="line"/>
      <point x="422" y="66" type="line" smooth="yes"/>
      <point x="388" y="66"/>
      <point x="364" y="72"/>
      <point x="364" y="118" type="curve" smooth="yes"/>
      <point x="364" y="184" type="line"/>
      <point x="427" y="184" type="line"/>
      <point x="549" y="-30" type="line" smooth="yes"/>
      <point x="593" y="-105"/>
      <point x="688" y="-120"/>
    </contour>
    <contour>
      <point x="364" y="255" type="line"/>
      <point x="364" y="510" type="line"/>
      <point x="415" y="510" type="line" smooth="yes"/>
      <point x="501" y="510"/>
      <point x="548" y="475"/>
      <point x="548" y="384" type="curve" smooth="yes"/>
      <point x="548" y="299"/>
      <point x="508" y="255"/>
      <point x="417" y="255" type="curve" smooth="yes"/>
    </contour>
  </outline>
</glyph>
<glyph name="uni01AA" format="2">
  <advance width="455"/>
  <unicode hex="01AA"/>
  <anchor x="227" y="-240" name="bottom"/>
  <anchor x="227" y="766" name="top"/>
  <outline>
    <contour>
      <point x="396" y="-240" type="curve" smooth="yes"/>
      <point x="434" y="-240"/>
      <point x="480" y="-231"/>
      <point x="500" y="-223" type="curve"/>
      <point x="500" y="-165" type="line"/>
      <point x="475" y="-169"/>
      <point x="454" y="-172"/>
      <point x="425" y="-172" type="curve" smooth="yes"/>
      <point x="372" y="-172"/>
      <point x="337" y="-141"/>
      <point x="337" y="-75" type="curve" smooth="yes"/>
      <point x="337" y="444" type="line" smooth="yes"/>
      <point x="337" y="669"/>
      <point x="275" y="766"/>
      <point x="99" y="766" type="curve" smooth="yes"/>
      <point x="-33" y="766"/>
      <point x="-107" y="714"/>
      <point x="-107" y="619" type="curve" smooth="yes"/>
      <point x="-107" y="537"/>
      <point x="-39" y="494"/>
      <point x="42" y="494" type="curve" smooth="yes"/>
      <point x="68" y="494"/>
      <point x="91" y="497"/>
      <point x="110" y="503" type="curve"/>
      <point x="110" y="-13" type="line" smooth="yes"/>
      <point x="110" y="-200"/>
      <point x="202" y="-240"/>
    </contour>
    <contour>
      <point x="41" y="563" type="curve" smooth="yes"/>
      <point x="-1" y="563"/>
      <point x="-28" y="587"/>
      <point x="-28" y="627" type="curve" smooth="yes"/>
      <point x="-28" y="663"/>
      <point x="-3" y="691"/>
      <point x="41" y="691" type="curve" smooth="yes"/>
      <point x="78" y="691"/>
      <point x="110" y="673"/>
      <point x="110" y="627" type="curve" smooth="yes"/>
      <point x="110" y="584"/>
      <point x="78" y="563"/>
    </contour>
  </outline>
</glyph>
<glyph name="uni01AE" format="2">
  <advance width="795"/>
  <unicode hex="01AE"/>
  <anchor x="397" y="-240" name="bottom"/>
  <anchor x="397" y="714" name="top"/>
  <outline>
    <contour>
      <point x="563" y="-240" type="curve" smooth="yes"/>
      <point x="612" y="-240"/>
      <point x="672" y="-232"/>
      <point x="695" y="-223" type="curve"/>
      <point x="695" y="-151" type="line"/>
      <point x="673" y="-156"/>
      <point x="648" y="-158"/>
      <point x="613" y="-158" type="curve" smooth="yes"/>
      <point x="555" y="-158"/>
      <point x="516" y="-135"/>
      <point x="516" y="-56" type="curve" smooth="yes"/>
      <point x="516" y="640" type="line"/>
      <point x="596" y="640" type="line" smooth="yes"/>
      <point x="666" y="640"/>
      <point x="687" y="626"/>
      <point x="693" y="582" type="curve" smooth="yes"/>
      <point x="702" y="497" type="line"/>
      <point x="793" y="497" type="line"/>
      <point x="787" y="714" type="line"/>
      <point x="10" y="714" type="line"/>
      <point x="4" y="497" type="line"/>
      <point x="95" y="497" type="line"/>
      <point x="105" y="582" type="line" smooth="yes"/>
      <point x="111" y="626"/>
      <point x="132" y="640"/>
      <point x="202" y="640" type="curve" smooth="yes"/>
      <point x="281" y="640" type="line"/>
      <point x="281" y="25" type="line" smooth="yes"/>
      <point x="281" y="-166"/>
      <point x="375" y="-240"/>
    </contour>
  </outline>
</glyph>
<glyph name="uni01BA" format="2">
  <advance width="645"/>
  <unicode hex="01BA"/>
  <anchor x="323" y="-240" name="bottom"/>
  <anchor x="323" y="536" name="top"/>
  <outline>
    <contour>
      <point x="294" y="-240" type="curve" smooth="yes"/>
      <point x="456" y="-240"/>
      <point x="562" y="-204"/>
      <point x="562" y="-128" type="curve" smooth="yes"/>
      <point x="562" y="-94"/>
      <point x="543" y="-83"/>
      <point x="528" y="-76" type="curve"/>
      <point x="486" y="-119"/>
      <point x="412" y="-161"/>
      <point x="305" y="-161" type="curve" smooth="yes"/>
      <point x="217" y="-161"/>
      <point x="176" y="-137"/>
      <point x="176" y="-97" type="curve" smooth="yes"/>
      <point x="176" y="-55"/>
      <point x="209" y="-38"/>
      <point x="302" y="-28" type="curve" smooth="yes"/>
      <point x="470" y="-11"/>
      <point x="597" y="18"/>
      <point x="597" y="148" type="curve" smooth="yes"/>
      <point x="597" y="263"/>
      <point x="504" y="277"/>
      <point x="351" y="275" type="curve"/>
      <point x="553" y="425" type="line"/>
      <point x="553" y="536" type="line"/>
      <point x="61" y="536" type="line"/>
      <point x="39" y="288" type="line"/>
      <point x="104" y="288" type="line"/>
      <point x="117" y="332" type="line" smooth="yes"/>
      <point x="130" y="373"/>
      <point x="147" y="397"/>
      <point x="228" y="397" type="curve" smooth="yes"/>
      <point x="394" y="397" type="line"/>
      <point x="220" y="257" type="line"/>
      <point x="220" y="198" type="line"/>
      <point x="238" y="198" type="line" smooth="yes"/>
      <point x="325" y="198"/>
      <point x="377" y="180"/>
      <point x="377" y="129" type="curve" smooth="yes"/>
      <point x="377" y="76"/>
      <point x="329" y="47"/>
      <point x="210" y="30" type="curve" smooth="yes"/>
      <point x="67" y="8"/>
      <point x="36" y="-38"/>
      <point x="36" y="-101" type="curve" smooth="yes"/>
      <point x="36" y="-180"/>
      <point x="118" y="-240"/>
    </contour>
  </outline>
</glyph>
<glyph name="uni01BD" format="2">
  <advance width="614"/>
  <unicode hex="01BD"/>
  <anchor x="308" y="0" name="bottom"/>
  <anchor x="308" y="536" name="top"/>
  <outline>
    <contour>
      <point x="267" y="-10" type="curve" smooth="yes"/>
      <point x="480" y="-10"/>
      <point x="565" y="72"/>
      <point x="565" y="185" type="curve" smooth="yes"/>
      <point x="565" y="307"/>
      <point x="470" y="332"/>
      <point x="350" y="332" type="curve" smooth="yes"/>
      <point x="321" y="332" type="line"/>
      <point x="321" y="472" type="line"/>
      <point x="391" y="472" type="line" smooth="yes"/>
      <point x="448" y="472"/>
      <point x="459" y="454"/>
      <point x="466" y="421" type="curve" smooth="yes"/>
      <point x="474" y="379" type="line"/>
      <point x="542" y="379" type="line"/>
      <point x="541" y="536" type="line"/>
      <point x="37" y="536" type="line"/>
      <point x="37" y="463" type="line"/>
      <point x="87" y="463"/>
      <point x="96" y="453"/>
      <point x="96" y="402" type="curve" smooth="yes"/>
      <point x="96" y="266" type="line"/>
      <point x="207" y="266" type="line" smooth="yes"/>
      <point x="278" y="266"/>
      <point x="343" y="260"/>
      <point x="343" y="170" type="curve" smooth="yes"/>
      <point x="343" y="96"/>
      <point x="313" y="61"/>
      <point x="238" y="61" type="curve" smooth="yes"/>
      <point x="154" y="61"/>
      <point x="140" y="122"/>
      <point x="140" y="182" type="curve"/>
      <point x="72" y="181"/>
      <point x="35" y="157"/>
      <point x="35" y="110" type="curve" smooth="yes"/>
      <point x="35" y="36"/>
      <point x="108" y="-10"/>
    </contour>
  </outline>
</glyph>
<glyph name="uni01C2" format="2">
  <advance width="643"/>
  <unicode hex="01C2"/>
  <anchor x="322" y="0" name="bottom"/>
  <anchor x="322" y="760" name="top"/>
  <outline>
    <contour>
      <point x="259" y="0" type="line"/>
      <point x="384" y="0" type="line"/>
      <point x="384" y="215" type="line"/>
      <point x="584" y="215" type="line"/>
      <point x="584" y="331" type="line"/>
      <point x="384" y="331" type="line"/>
      <point x="384" y="427" type="line"/>
      <point x="584" y="427" type="line"/>
      <point x="584" y="543" type="line"/>
      <point x="384" y="543" type="line"/>
      <point x="384" y="760" type="line"/>
      <point x="259" y="760" type="line"/>
      <point x="259" y="543" type="line"/>
      <point x="58" y="543" type="line"/>
      <point x="58" y="427" type="line"/>
      <point x="259" y="427" type="line"/>
      <point x="259" y="331" type="line"/>
      <point x="58" y="331" type="line"/>
      <point x="58" y="215" type="line"/>
      <point x="259" y="215" type="line"/>
    </contour>
  </outline>
</glyph>
<glyph name="uni0224" format="2">
  <advance width="840"/>
  <unicode hex="0224"/>
  <anchor x="421" y="0" name="bottom"/>
  <anchor x="421" y="714" name="top"/>
  <outline>
    <contour>
      <point x="671" y="-234" type="curve"/>
      <point x="766" y="-233"/>
      <point x="838" y="-196"/>
      <point x="838" y="-87" type="curve" smooth="yes"/>
      <point x="838" y="29"/>
      <point x="744" y="74"/>
      <point x="598" y="74" type="curve" smooth="yes"/>
      <point x="317" y="74" type="line"/>
      <point x="755" y="651" type="line"/>
      <point x="755" y="714" type="line"/>
      <point x="81" y="714" type="line"/>
      <point x="76" y="470" type="line"/>
      <point x="177" y="470" type="line"/>
      <point x="183" y="537" type="line" smooth="yes"/>
      <point x="189" y="606"/>
      <point x="202" y="640"/>
      <point x="278" y="640" type="curve" smooth="yes"/>
      <point x="491" y="640" type="line"/>
      <point x="54" y="62" type="line"/>
      <point x="54" y="0" type="line"/>
      <point x="538" y="0" type="line" smooth="yes"/>
      <point x="627" y="0"/>
      <point x="697" y="-15"/>
      <point x="697" y="-133" type="curve" smooth="yes"/>
      <point x="697" y="-167"/>
      <point x="685" y="-206"/>
    </contour>
  </outline>
</glyph>
<glyph name="uni0236" format="2">
  <advance width="518"/>
  <unicode hex="0236"/>
  <anchor x="259" y="0" name="bottom"/>
  <anchor x="259" y="662" name="top"/>
  <outline>
    <contour>
      <point x="128" y="-67" type="line"/>
      <point x="133" y="-43"/>
      <point x="145" y="-2"/>
      <point x="170" y="27" type="curve"/>
      <point x="204" y="7"/>
      <point x="258" y="-11"/>
      <point x="343" y="-11" type="curve" smooth="yes"/>
      <point x="491" y="-11"/>
      <point x="535" y="67"/>
      <point x="535" y="119" type="curve" smooth="yes"/>
      <point x="535" y="208"/>
      <point x="470" y="237"/>
      <point x="381" y="237" type="curve" smooth="yes"/>
      <point x="365" y="237"/>
      <point x="347" y="236"/>
      <point x="338" y="235" type="curve"/>
      <point x="338" y="452" type="line"/>
      <point x="486" y="452" type="line"/>
      <point x="486" y="536" type="line"/>
      <point x="338" y="536" type="line"/>
      <point x="338" y="662" type="line"/>
      <point x="211" y="662" type="line"/>
      <point x="186" y="573"/>
      <point x="122" y="515"/>
      <point x="25" y="518" type="curve"/>
      <point x="25" y="452" type="line"/>
      <point x="112" y="452" type="line"/>
      <point x="112" y="248" type="line"/>
      <point x="112" y="191"/>
      <point x="114" y="144"/>
      <point x="124" y="107" type="curve"/>
      <point x="73" y="45"/>
      <point x="50" y="-2"/>
      <point x="39" y="-59" type="curve"/>
    </contour>
    <contour>
      <point x="394" y="74" type="curve" smooth="yes"/>
      <point x="359" y="74"/>
      <point x="338" y="89"/>
      <point x="338" y="158" type="curve"/>
      <point x="343" y="158"/>
      <point x="358" y="160"/>
      <point x="371" y="160" type="curve" smooth="yes"/>
      <point x="408" y="160"/>
      <point x="442" y="150"/>
      <point x="442" y="115" type="curve" smooth="yes"/>
      <point x="442" y="86"/>
      <point x="420" y="74"/>
    </contour>
  </outline>
</glyph>
<glyph name="uni023F" format="2">
  <advance width="585"/>
  <unicode hex="023F"/>
  <anchor x="292" y="-237" name="bottom"/>
  <anchor x="292" y="536" name="top"/>
  <anchor x="565" y="536" name="topright"/>
  <outline>
    <contour>
      <point x="438" y="-237" type="curve" smooth="yes"/>
      <point x="519" y="-237"/>
      <point x="575" y="-205"/>
      <point x="575" y="-141" type="curve" smooth="yes"/>
      <point x="575" y="-102"/>
      <point x="551" y="-76"/>
      <point x="478" y="-73" type="curve"/>
      <point x="478" y="-112"/>
      <point x="466" y="-148"/>
      <point x="422" y="-148" type="curve" smooth="yes"/>
      <point x="386" y="-148"/>
      <point x="368" y="-128"/>
      <point x="354" y="-93" type="curve" smooth="yes"/>
      <point x="333" y="-46"/>
      <point x="319" y="-27"/>
      <point x="277" y="-2" type="curve"/>
      <point x="135" y="8" type="line"/>
      <point x="210" y="-17"/>
      <point x="235" y="-41"/>
      <point x="268" y="-119" type="curve" smooth="yes"/>
      <point x="294" y="-181"/>
      <point x="339" y="-237"/>
    </contour>
    <component base="s"/>
  </outline>
</glyph>
<glyph name="uni0244" format="2">
  <advance width="897"/>
  <unicode hex="0244"/>
  <anchor x="449" y="0" name="bottom"/>
  <anchor x="449" y="714" name="top"/>
  <anchor x="906" y="714" name="topright"/>
  <outline>
    <contour>
      <point x="12" y="334" type="line"/>
      <point x="885" y="334" type="line"/>
      <point x="885" y="410" type="line"/>
      <point x="12" y="410" type="line"/>
    </contour>
    <component base="U"/>
  </outline>
</glyph>
<glyph name="uni026C" format="2">
  <advance width="534"/>
  <unicode hex="026C"/>
  <anchor x="268" y="0" name="bottom"/>
  <anchor x="268" y="760" name="top"/>
  <outline>
    <contour>
      <point x="118" y="0" type="line"/>
      <point x="517" y="0" type="line"/>
      <point x="517" y="66" type="line"/>
      <point x="505" y="66" type="line" smooth="yes"/>
      <point x="485" y="66"/>
      <point x="431" y="73"/>
      <point x="431" y="123" type="curve" smooth="yes"/>
      <point x="431" y="218" type="line"/>
      <point x="549" y="218" type="line"/>
      <point x="549" y="295" type="line"/>
      <point x="431" y="295" type="line"/>
      <point x="431" y="760" type="line"/>
      <point x="117" y="760" type="line"/>
      <point x="117" y="694" type="line"/>
      <point x="130" y="694" type="line" smooth="yes"/>
      <point x="150" y="694"/>
      <point x="204" y="687"/>
      <point x="204" y="641" type="curve" smooth="yes"/>
      <point x="204" y="470" type="line"/>
      <point x="182" y="476"/>
      <point x="159" y="478"/>
      <point x="139" y="478" type="curve" smooth="yes"/>
      <point x="72" y="478"/>
      <point x="-4" y="450"/>
      <point x="-4" y="356" type="curve" smooth="yes"/>
      <point x="-4" y="270"/>
      <point x="58" y="218"/>
      <point x="188" y="218" type="curve" smooth="yes"/>
      <point x="204" y="218" type="line"/>
      <point x="204" y="123" type="line" smooth="yes"/>
      <point x="204" y="73"/>
      <point x="151" y="66"/>
      <point x="130" y="66" type="curve" smooth="yes"/>
      <point x="118" y="66" type="line"/>
    </contour>
    <contour>
      <point x="190" y="295" type="line" smooth="yes"/>
      <point x="126" y="295"/>
      <point x="95" y="308"/>
      <point x="95" y="352" type="curve" smooth="yes"/>
      <point x="95" y="383"/>
      <point x="116" y="403"/>
      <point x="150" y="403" type="curve" smooth="yes"/>
      <point x="185" y="403"/>
      <point x="204" y="373"/>
      <point x="204" y="331" type="curve" smooth="yes"/>
      <point x="204" y="295" type="line"/>
    </contour>
  </outline>
</glyph>
<glyph name="uni0278" format="2">
  <advance width="921"/>
  <unicode hex="0278"/>
  <anchor x="471" y="-240" name="bottom"/>
  <anchor x="472" y="268" name="center"/>
  <anchor x="471" y="760" name="top"/>
  <anchor x="901" y="536" name="topright"/>
  <outline>
    <contour>
      <point x="329" y="-240" type="line"/>
      <point x="592" y="-240" type="line"/>
      <point x="592" y="-174" type="line"/>
      <point x="580" y="-174" type="line" smooth="yes"/>
      <point x="536" y="-174"/>
      <point x="506" y="-155"/>
      <point x="506" y="-105" type="curve" smooth="yes"/>
      <point x="506" y="-9" type="line"/>
      <point x="758" y="-3"/>
      <point x="873" y="88"/>
      <point x="873" y="269" type="curve" smooth="yes"/>
      <point x="873" y="449"/>
      <point x="745" y="539"/>
      <point x="506" y="545" type="curve"/>
      <point x="506" y="625" type="line" smooth="yes"/>
      <point x="506" y="675"/>
      <point x="536" y="694"/>
      <point x="579" y="694" type="curve" smooth="yes"/>
      <point x="593" y="694" type="line"/>
      <point x="593" y="760" type="line"/>
      <point x="330" y="760" type="line"/>
      <point x="330" y="694" type="line"/>
      <point x="342" y="694" type="line" smooth="yes"/>
      <point x="386" y="694"/>
      <point x="416" y="675"/>
      <point x="416" y="625" type="curve" smooth="yes"/>
      <point x="416" y="545" type="line"/>
      <point x="164" y="539"/>
      <point x="48" y="449"/>
      <point x="48" y="269" type="curve" smooth="yes"/>
      <point x="48" y="88"/>
      <point x="175" y="-3"/>
      <point x="416" y="-9" type="curve"/>
      <point x="416" y="-105" type="line" smooth="yes"/>
      <point x="416" y="-155"/>
      <point x="386" y="-174"/>
      <point x="343" y="-174" type="curve" smooth="yes"/>
      <point x="329" y="-174" type="line"/>
    </contour>
    <contour>
      <point x="416" y="65" type="line"/>
      <point x="308" y="76"/>
      <point x="282" y="134"/>
      <point x="282" y="269" type="curve" smooth="yes"/>
      <point x="282" y="404"/>
      <point x="306" y="460"/>
      <point x="416" y="470" type="curve"/>
    </contour>
    <contour>
      <point x="506" y="65" type="curve"/>
      <point x="506" y="469" type="line"/>
      <point x="613" y="459"/>
      <point x="639" y="403"/>
      <point x="639" y="269" type="curve" smooth="yes"/>
      <point x="639" y="134"/>
      <point x="615" y="76"/>
    </contour>
  </outline>
</glyph>
<glyph name="rlongleg" format="2">
  <advance width="654"/>
  <unicode hex="027C"/>
  <anchor x="328" y="-217" name="bottom"/>
  <anchor x="328" y="536" name="top"/>
  <outline>
    <contour>
      <point x="12" y="-217" type="line"/>
      <point x="439" y="-217" type="line"/>
      <point x="439" y="-151" type="line"/>
      <point x="399" y="-151" type="line" smooth="yes"/>
      <point x="356" y="-151"/>
      <point x="327" y="-143"/>
      <point x="327" y="-84" type="curve" smooth="yes"/>
      <point x="327" y="279" type="line" smooth="yes"/>
      <point x="327" y="351"/>
      <point x="358" y="420"/>
      <point x="413" y="420" type="curve" smooth="yes"/>
      <point x="456" y="420"/>
      <point x="463" y="386"/>
      <point x="463" y="331" type="curve"/>
      <point x="567" y="331"/>
      <point x="637" y="361"/>
      <point x="637" y="445" type="curve" smooth="yes"/>
      <point x="637" y="503"/>
      <point x="599" y="550"/>
      <point x="508" y="550" type="curve" smooth="yes"/>
      <point x="417" y="550"/>
      <point x="364" y="528"/>
      <point x="324" y="447" type="curve"/>
      <point x="318" y="447" type="line"/>
      <point x="294" y="536" type="line"/>
      <point x="23" y="536" type="line"/>
      <point x="23" y="470" type="line"/>
      <point x="27" y="470" type="line" smooth="yes"/>
      <point x="79" y="470"/>
      <point x="101" y="461"/>
      <point x="101" y="402" type="curve" smooth="yes"/>
      <point x="101" y="-79" type="line" smooth="yes"/>
      <point x="101" y="-142"/>
      <point x="70" y="-151"/>
      <point x="18" y="-151" type="curve" smooth="yes"/>
      <point x="12" y="-151" type="line"/>
    </contour>
  </outline>
</glyph>
<glyph name="uni027E" format="2">
  <advance width="671"/>
  <unicode hex="027E"/>
  <anchor x="335" y="0" name="bottom"/>
  <anchor x="335" y="536" name="top"/>
  <outline>
    <contour>
      <point x="2" y="0" type="line"/>
      <point x="430" y="0" type="line"/>
      <point x="430" y="66" type="line"/>
      <point x="389" y="66" type="line" smooth="yes"/>
      <point x="343" y="66"/>
      <point x="318" y="79"/>
      <point x="318" y="131" type="curve" smooth="yes"/>
      <point x="318" y="367" type="line" smooth="yes"/>
      <point x="318" y="442"/>
      <point x="342" y="465"/>
      <point x="388" y="465" type="curve" smooth="yes"/>
      <point x="442" y="465"/>
      <point x="458" y="432"/>
      <point x="458" y="311" type="curve"/>
      <point x="563" y="311"/>
      <point x="635" y="333"/>
      <point x="635" y="416" type="curve" smooth="yes"/>
      <point x="635" y="481"/>
      <point x="580" y="552"/>
      <point x="398" y="552" type="curve" smooth="yes"/>
      <point x="198" y="552"/>
      <point x="91" y="490"/>
      <point x="91" y="297" type="curve" smooth="yes"/>
      <point x="91" y="137" type="line" smooth="yes"/>
      <point x="91" y="85"/>
      <point x="69" y="66"/>
      <point x="16" y="66" type="curve" smooth="yes"/>
      <point x="2" y="66" type="line"/>
    </contour>
  </outline>
</glyph>
<glyph name="uni0290" format="2">
  <advance width="633"/>
  <unicode hex="0290"/>
  <anchor x="316" y="-197" name="bottom"/>
  <anchor x="316" y="536" name="top"/>
  <outline>
    <contour>
      <point x="680" y="-197" type="curve" smooth="yes"/>
      <point x="745" y="-197"/>
      <point x="783" y="-162"/>
      <point x="783" y="-126" type="curve" smooth="yes"/>
      <point x="783" y="-110"/>
      <point x="775" y="-92"/>
      <point x="765" y="-83" type="curve"/>
      <point x="747" y="-94"/>
      <point x="727" y="-99"/>
      <point x="701" y="-99" type="curve" smooth="yes"/>
      <point x="654" y="-99"/>
      <point x="619" y="-76"/>
      <point x="619" y="-6" type="curve" smooth="yes"/>
      <point x="619" y="0" type="line"/>
      <point x="619" y="204" type="line"/>
      <point x="537" y="204" type="line"/>
      <point x="528" y="161" type="line" smooth="yes"/>
      <point x="513" y="85"/>
      <point x="487" y="81"/>
      <point x="422" y="81" type="curve" smooth="yes"/>
      <point x="253" y="81" type="line"/>
      <point x="602" y="491" type="line"/>
      <point x="602" y="536" type="line"/>
      <point x="56" y="536" type="line"/>
      <point x="41" y="349" type="line"/>
      <point x="126" y="349" type="line"/>
      <point x="139" y="398" type="line" smooth="yes"/>
      <point x="154" y="454"/>
      <point x="177" y="455"/>
      <point x="228" y="455" type="curve" smooth="yes"/>
      <point x="350" y="455" type="line"/>
      <point x="0" y="43" type="line"/>
      <point x="0" y="0" type="line"/>
      <point x="531" y="0" type="line"/>
      <point x="531" y="-27" type="line" smooth="yes"/>
      <point x="531" y="-164"/>
      <point x="592" y="-197"/>
    </contour>
  </outline>
</glyph>
<glyph name="uni029D" format="2">
  <advance width="440"/>
  <unicode hex="029D"/>
  <anchor x="220" y="-240" name="bottom"/>
  <anchor x="220" y="783" name="top"/>
  <outline>
    <contour>
      <point x="66" y="-240" type="curve" smooth="yes"/>
      <point x="237" y="-240"/>
      <point x="310" y="-155"/>
      <point x="333" y="-80" type="curve"/>
      <point x="438" y="-80" type="line"/>
      <point x="438" y="0" type="line"/>
      <point x="336" y="0" type="line"/>
      <point x="336" y="536" type="line"/>
      <point x="15" y="536" type="line"/>
      <point x="15" y="470" type="line"/>
      <point x="20" y="470" type="line" smooth="yes"/>
      <point x="68" y="470"/>
      <point x="110" y="461"/>
      <point x="110" y="406" type="curve" smooth="yes"/>
      <point x="110" y="0" type="line"/>
      <point x="50" y="0" type="line" smooth="yes"/>
      <point x="-55" y="0"/>
      <point x="-105" y="-50"/>
      <point x="-105" y="-113" type="curve" smooth="yes"/>
      <point x="-105" y="-188"/>
      <point x="-60" y="-240"/>
    </contour>
    <contour>
      <point x="43" y="-156" type="curve" smooth="yes"/>
      <point x="14" y="-156"/>
      <point x="-7" y="-143"/>
      <point x="-7" y="-116" type="curve" smooth="yes"/>
      <point x="-7" y="-93"/>
      <point x="15" y="-80"/>
      <point x="65" y="-80" type="curve" smooth="yes"/>
      <point x="108" y="-80" type="line"/>
      <point x="108" y="-94" type="line" smooth="yes"/>
      <point x="108" y="-137"/>
      <point x="78" y="-156"/>
    </contour>
    <contour>
      <point x="219" y="613" type="curve" smooth="yes"/>
      <point x="285" y="613"/>
      <point x="343" y="645"/>
      <point x="343" y="698" type="curve" smooth="yes"/>
      <point x="343" y="755"/>
      <point x="285" y="783"/>
      <point x="219" y="783" type="curve" smooth="yes"/>
      <point x="149" y="783"/>
      <point x="95" y="755"/>
      <point x="95" y="698" type="curve" smooth="yes"/>
      <point x="95" y="645"/>
      <point x="149" y="613"/>
    </contour>
  </outline>
</glyph>
<glyph name="uni029F" format="2">
  <advance width="636"/>
  <unicode hex="029F"/>
  <anchor x="319" y="0" name="bottom"/>
  <anchor x="319" y="536" name="top"/>
  <outline>
    <contour>
      <point x="15" y="0" type="line"/>
      <point x="611" y="0" type="line"/>
      <point x="624" y="264" type="line"/>
      <point x="550" y="264" type="line"/>
      <point x="534" y="180" type="line" smooth="yes"/>
      <point x="515" y="86"/>
      <point x="475" y="73"/>
      <point x="380" y="73" type="curve" smooth="yes"/>
      <point x="329" y="73" type="line"/>
      <point x="329" y="395" type="line" smooth="yes"/>
      <point x="329" y="450"/>
      <point x="358" y="470"/>
      <point x="401" y="470" type="curve" smooth="yes"/>
      <point x="429" y="470" type="line"/>
      <point x="429" y="536" type="line"/>
      <point x="11" y="536" type="line"/>
      <point x="11" y="470" type="line"/>
      <point x="24" y="470" type="line" smooth="yes"/>
      <point x="68" y="470"/>
      <point x="102" y="450"/>
      <point x="102" y="395" type="curve" smooth="yes"/>
      <point x="102" y="139" type="line" smooth="yes"/>
      <point x="102" y="84"/>
      <point x="72" y="66"/>
      <point x="28" y="66" type="curve" smooth="yes"/>
      <point x="15" y="66" type="line"/>
    </contour>
  </outline>
</glyph>
<glyph name="uni02D5" format="2">
  <advance width="300"/>
  <unicode hex="02D5"/>
  <outline>
    <contour>
      <point x="124" y="196" type="line"/>
      <point x="177" y="196" type="line"/>
      <point x="177" y="295" type="line"/>
      <point x="256" y="295" type="line"/>
      <point x="256" y="348" type="line"/>
      <point x="44" y="348" type="line"/>
      <point x="44" y="295" type="line"/>
      <point x="124" y="295" type="line"/>
    </contour>
  </outline>
</glyph>
<glyph name="ogonek" format="2">
  <advance width="583"/>
  <unicode hex="02DB"/>
  <outline>
    <contour>
      <point x="344" y="-242" type="curve" smooth="yes"/>
      <point x="369" y="-242"/>
      <point x="425" y="-236"/>
      <point x="450" y="-225" type="curve"/>
      <point x="450" y="-148" type="line"/>
      <point x="422" y="-152"/>
      <point x="398" y="-155"/>
      <point x="377" y="-155" type="curve" smooth="yes"/>
      <point x="330" y="-155"/>
      <point x="296" y="-142"/>
      <point x="296" y="-113" type="curve" smooth="yes"/>
      <point x="296" y="-50"/>
      <point x="356" y="-13"/>
      <point x="405" y="0" type="curve"/>
      <point x="298" y="0" type="line"/>
      <point x="226" y="-14"/>
      <point x="160" y="-69"/>
      <point x="160" y="-130" type="curve" smooth="yes"/>
      <point x="160" y="-207"/>
      <point x="221" y="-242"/>
    </contour>
  </outline>
</glyph>
<glyph name="rhotichookmod" format="2">
  <advance width="323"/>
  <unicode hex="02DE"/>
  <outline>
    <contour>
      <point x="182" y="159" type="curve" smooth="yes"/>
      <point x="257" y="159"/>
      <point x="305" y="194"/>
      <point x="305" y="267" type="curve" smooth="yes"/>
      <point x="305" y="306"/>
      <point x="283" y="328"/>
      <point x="263" y="340" type="curve"/>
      <point x="255" y="311"/>
      <point x="238" y="287"/>
      <point x="196" y="287" type="curve" smooth="yes"/>
      <point x="139" y="287"/>
      <point x="121" y="320"/>
      <point x="99" y="387" type="curve" smooth="yes"/>
      <point x="85" y="429" type="line"/>
      <point x="-202" y="348" type="line"/>
      <point x="-180" y="273" type="line"/>
      <point x="3" y="323" type="line"/>
      <point x="12" y="304" type="line" smooth="yes"/>
      <point x="41" y="229"/>
      <point x="80" y="159"/>
    </contour>
  </outline>
</glyph>
<glyph name="uni02F8" format="2">
  <advance width="370"/>
  <unicode hex="02F8"/>
  <outline>
    <contour>
      <point x="185" y="571" type="curve" smooth="yes"/>
      <point x="244" y="571"/>
      <point x="297" y="591"/>
      <point x="297" y="666" type="curve" smooth="yes"/>
      <point x="297" y="739"/>
      <point x="244" y="760"/>
      <point x="185" y="760" type="curve" smooth="yes"/>
      <point x="122" y="760"/>
      <point x="72" y="739"/>
      <point x="72" y="666" type="curve" smooth="yes"/>
      <point x="72" y="591"/>
      <point x="122" y="571"/>
    </contour>
    <contour>
      <point x="185" y="223" type="curve" smooth="yes"/>
      <point x="244" y="223"/>
      <point x="297" y="243"/>
      <point x="297" y="318" type="curve" smooth="yes"/>
      <point x="297" y="390"/>
      <point x="244" y="412"/>
      <point x="185" y="412" type="curve" smooth="yes"/>
      <point x="122" y="412"/>
      <point x="72" y="390"/>
      <point x="72" y="318" type="curve" smooth="yes"/>
      <point x="72" y="243"/>
      <point x="122" y="223"/>
    </contour>
  </outline>
</glyph>
<glyph name="uni02FE" format="2">
  <advance width="600"/>
  <unicode hex="02FE"/>
  <outline>
    <contour>
      <point x="40" y="-208" type="line"/>
      <point x="560" y="-208" type="line"/>
      <point x="560" y="-142" type="line"/>
      <point x="95" y="-142" type="line"/>
      <point x="95" y="-43" type="line"/>
      <point x="40" y="-43" type="line"/>
    </contour>
  </outline>
</glyph>
<glyph name="ringhalfleftbelowcomb" format="2">
  <unicode hex="031C"/>
  <anchor x="0" y="0" name="_bottom"/>
  <anchor x="0" y="-240" name="bottom"/>
  <outline>
    <contour>
      <point x="70" y="-240" type="curve"/>
      <point x="70" y="-178" type="line"/>
      <point x="36" y="-178"/>
      <point x="7" y="-165"/>
      <point x="7" y="-131" type="curve" smooth="yes"/>
      <point x="7" y="-97"/>
      <point x="36" y="-84"/>
      <point x="70" y="-84" type="curve"/>
      <point x="70" y="-22" type="line"/>
      <point x="-8" y="-22"/>
      <point x="-70" y="-60"/>
      <point x="-70" y="-131" type="curve" smooth="yes"/>
      <point x="-70" y="-202"/>
      <point x="-8" y="-240"/>
    </contour>
  </outline>
</glyph>
<glyph name="tildebelowcomb" format="2">
  <unicode hex="0330"/>
  <anchor x="2" y="0" name="_bottom"/>
  <anchor x="2" y="-270" name="bottom"/>
  <outline>
    <contour>
      <point x="85" y="-270" type="curve" smooth="yes"/>
      <point x="167" y="-270"/>
      <point x="242" y="-170"/>
      <point x="247" y="-47" type="curve"/>
      <point x="154" y="-47" type="line"/>
      <point x="150" y="-84"/>
      <point x="123" y="-121"/>
      <point x="98" y="-121" type="curve" smooth="yes"/>
      <point x="49" y="-121"/>
      <point x="-1" y="-33"/>
      <point x="-83" y="-33" type="curve" smooth="yes"/>
      <point x="-167" y="-33"/>
      <point x="-241" y="-131"/>
      <point x="-245" y="-256" type="curve"/>
      <point x="-154" y="-256" type="line"/>
      <point x="-149" y="-218"/>
      <point x="-122" y="-182"/>
      <point x="-97" y="-182" type="curve" smooth="yes"/>
      <point x="-47" y="-182"/>
      <point x="1" y="-270"/>
    </contour>
  </outline>
</glyph>
<glyph name="koroniscomb" format="2">
  <unicode hex="0343"/>
  <anchor x="10" y="536" name="_top"/>
  <anchor x="10" y="714" name="top"/>
  <outline>
    <contour>
      <point x="-92" y="554" type="line"/>
      <point x="-9" y="554" type="line"/>
      <point x="33" y="599"/>
      <point x="92" y="662"/>
      <point x="112" y="704" type="curve"/>
      <point x="112" y="714" type="line"/>
      <point x="-39" y="714" type="line"/>
      <point x="-48" y="675"/>
      <point x="-76" y="602"/>
      <point x="-92" y="567" type="curve"/>
    </contour>
  </outline>
</glyph>
<glyph name="arrowheadrightabovecomb" format="2">
  <unicode hex="0350"/>
  <anchor x="1" y="536" name="_top"/>
  <anchor x="1" y="776" name="top"/>
  <outline>
    <contour>
      <point x="-106" y="569" type="line"/>
      <point x="-94" y="569" type="line"/>
      <point x="-24" y="610"/>
      <point x="43" y="630"/>
      <point x="107" y="648" type="curve"/>
      <point x="107" y="697" type="line"/>
      <point x="23" y="719"/>
      <point x="-25" y="736"/>
      <point x="-94" y="776" type="curve"/>
      <point x="-106" y="776" type="line"/>
      <point x="-106" y="730" type="line"/>
      <point x="-75" y="709"/>
      <point x="-33" y="687"/>
      <point x="10" y="673" type="curve"/>
      <point x="-37" y="657"/>
      <point x="-67" y="641"/>
      <point x="-106" y="615" type="curve"/>
    </contour>
  </outline>
</glyph>
<glyph name="arrowheadrightheadupbelowcomb" format="2">
  <unicode hex="0356"/>
  <anchor x="0" y="0" name="_bottom"/>
  <anchor x="0" y="-240" name="bottom"/>
  <outline>
    <contour>
      <point x="-4" y="-240" type="line"/>
      <point x="55" y="-240" type="line"/>
      <point x="74" y="-215"/>
      <point x="97" y="-180"/>
      <point x="112" y="-146" type="curve"/>
      <point x="128" y="-185"/>
      <point x="155" y="-223"/>
      <point x="169" y="-240" type="curve"/>
      <point x="229" y="-240" type="line"/>
      <point x="229" y="-230" type="line"/>
      <point x="185" y="-164"/>
      <point x="156" y="-109"/>
      <point x="145" y="-48" type="curve"/>
      <point x="78" y="-48" type="line"/>
      <point x="60" y="-108"/>
      <point x="37" y="-165"/>
      <point x="-4" y="-230" type="curve"/>
    </contour>
    <contour>
      <point x="-229" y="-240" type="line"/>
      <point x="-217" y="-240" type="line"/>
      <point x="-140" y="-203"/>
      <point x="-88" y="-178"/>
      <point x="-16" y="-169" type="curve"/>
      <point x="-16" y="-111" type="line"/>
      <point x="-86" y="-96"/>
      <point x="-142" y="-76"/>
      <point x="-217" y="-40" type="curve"/>
      <point x="-229" y="-40" type="line"/>
      <point x="-229" y="-91" type="line"/>
      <point x="-199" y="-108"/>
      <point x="-159" y="-127"/>
      <point x="-119" y="-140" type="curve"/>
      <point x="-165" y="-154"/>
      <point x="-209" y="-177"/>
      <point x="-229" y="-189" type="curve"/>
    </contour>
  </outline>
</glyph>
<glyph name="arrowdoublerightbelowcomb" format="2">
  <unicode hex="0362"/>
  <anchor x="0" y="0" name="_bottom"/>
  <anchor x="0" y="-218" name="bottom"/>
  <outline>
    <contour>
      <point x="239" y="-218" type="line"/>
      <point x="344" y="-127" type="line"/>
      <point x="239" y="-36" type="line"/>
      <point x="239" y="-91" type="line"/>
      <point x="-344" y="-91" type="line"/>
      <point x="-344" y="-163" type="line"/>
      <point x="239" y="-163" type="line"/>
    </contour>
  </outline>
</glyph>
<glyph name="Archaicsampi" format="2">
  <advance width="797"/>
  <unicode hex="0372"/>
  <anchor x="399" y="0" name="bottom"/>
  <anchor x="399" y="714" name="top"/>
  <outline>
    <contour>
      <point x="172" y="0" type="line"/>
      <point x="626" y="0" type="line"/>
      <point x="626" y="66" type="line"/>
      <point x="589" y="66" type="line" smooth="yes"/>
      <point x="546" y="66"/>
      <point x="517" y="73"/>
      <point x="517" y="123" type="curve" smooth="yes"/>
      <point x="517" y="640" type="line"/>
      <point x="596" y="640" type="line" smooth="yes"/>
      <point x="666" y="640"/>
      <point x="686" y="625"/>
      <point x="687" y="585" type="curve" smooth="yes"/>
      <point x="703" y="325" type="line"/>
      <point x="793" y="325" type="line"/>
      <point x="787" y="714" type="line"/>
      <point x="10" y="714" type="line"/>
      <point x="4" y="325" type="line"/>
      <point x="95" y="325" type="line"/>
      <point x="111" y="585" type="line" smooth="yes"/>
      <point x="113" y="626"/>
      <point x="132" y="640"/>
      <point x="202" y="640" type="curve" smooth="yes"/>
      <point x="282" y="640" type="line"/>
      <point x="282" y="129" type="line" smooth="yes"/>
      <point x="282" y="74"/>
      <point x="254" y="66"/>
      <point x="209" y="66" type="curve" smooth="yes"/>
      <point x="172" y="66" type="line"/>
    </contour>
  </outline>
</glyph>
<glyph name="Lambda" format="2">
  <advance width="833"/>
  <unicode hex="039B"/>
  <anchor x="417" y="0" name="bottom"/>
  <anchor x="417" y="714" name="top"/>
  <outline>
    <contour>
      <point x="0" y="0" type="line"/>
      <point x="301" y="0" type="line"/>
      <point x="301" y="66" type="line"/>
      <point x="234" y="66" type="line" smooth="yes"/>
      <point x="211" y="66"/>
      <point x="203" y="75"/>
      <point x="203" y="80" type="curve" smooth="yes"/>
      <point x="203" y="92"/>
      <point x="212" y="115"/>
      <point x="223" y="145" type="curve" smooth="yes"/>
      <point x="334" y="420" type="line" smooth="yes"/>
      <point x="340" y="433"/>
      <point x="352" y="462"/>
      <point x="357" y="483" type="curve"/>
      <point x="360" y="461"/>
      <point x="373" y="429"/>
      <point x="380" y="413" type="curve" smooth="yes"/>
      <point x="489" y="138" type="line" smooth="yes"/>
      <point x="495" y="121"/>
      <point x="503" y="99"/>
      <point x="503" y="84" type="curve" smooth="yes"/>
      <point x="503" y="73"/>
      <point x="490" y="66"/>
      <point x="469" y="66" type="curve" smooth="yes"/>
      <point x="413" y="66" type="line"/>
      <point x="413" y="0" type="line"/>
      <point x="833" y="0" type="line"/>
      <point x="833" y="66" type="line"/>
      <point x="799" y="66" type="line" smooth="yes"/>
      <point x="775" y="66"/>
      <point x="747" y="73"/>
      <point x="733" y="107" type="curve" smooth="yes"/>
      <point x="487" y="714" type="line"/>
      <point x="349" y="714" type="line"/>
      <point x="113" y="132" type="line" smooth="yes"/>
      <point x="89" y="74"/>
      <point x="76" y="66"/>
      <point x="40" y="66" type="curve" smooth="yes"/>
      <point x="0" y="66" type="line"/>
    </contour>
  </outline>
</glyph>
<glyph name="beta" format="2">
  <advance width="821"/>
  <unicode hex="03B2"/>
  <anchor x="550" y="0" name="bottom"/>
  <anchor x="410" y="778" name="top"/>
  <anchor x="801" y="778" name="topright"/>
  <outline>
    <contour>
      <point x="104" y="-217" type="line"/>
      <point x="329" y="-217" type="line"/>
      <point x="329" y="33" type="line"/>
      <point x="365" y="9"/>
      <point x="416" y="-10"/>
      <point x="496" y="-10" type="curve" smooth="yes"/>
      <point x="671" y="-10"/>
      <point x="773" y="80"/>
      <point x="773" y="218" type="curve" smooth="yes"/>
      <point x="773" y="349"/>
      <point x="674" y="407"/>
      <point x="561" y="422" type="curve"/>
      <point x="561" y="429" type="line"/>
      <point x="646" y="447"/>
      <point x="729" y="497"/>
      <point x="729" y="594" type="curve" smooth="yes"/>
      <point x="729" y="715"/>
      <point x="636" y="778"/>
      <point x="430" y="778" type="curve" smooth="yes"/>
      <point x="252" y="778"/>
      <point x="104" y="728"/>
      <point x="104" y="520" type="curve" smooth="yes"/>
    </contour>
    <contour>
      <point x="433" y="73" type="curve" smooth="yes"/>
      <point x="390" y="73"/>
      <point x="354" y="88"/>
      <point x="329" y="108" type="curve"/>
      <point x="329" y="555" type="line" smooth="yes"/>
      <point x="329" y="664"/>
      <point x="358" y="711"/>
      <point x="430" y="711" type="curve" smooth="yes"/>
      <point x="492" y="711"/>
      <point x="519" y="671"/>
      <point x="519" y="589" type="curve" smooth="yes"/>
      <point x="519" y="516"/>
      <point x="500" y="478"/>
      <point x="457" y="456" type="curve"/>
      <point x="443" y="460"/>
      <point x="422" y="463"/>
      <point x="400" y="463" type="curve" smooth="yes"/>
      <point x="363" y="463"/>
      <point x="344" y="449"/>
      <point x="344" y="419" type="curve" smooth="yes"/>
      <point x="344" y="391"/>
      <point x="365" y="374"/>
      <point x="391" y="374" type="curve" smooth="yes"/>
      <point x="416" y="374"/>
      <point x="442" y="380"/>
      <point x="456" y="385" type="curve"/>
      <point x="511" y="360"/>
      <point x="548" y="327"/>
      <point x="548" y="224" type="curve" smooth="yes"/>
      <point x="548" y="109"/>
      <point x="505" y="73"/>
    </contour>
  </outline>
</glyph>
<glyph name="nu" format="2">
  <advance width="675"/>
  <unicode hex="03BD"/>
  <anchor x="338" y="0" name="bottom"/>
  <anchor x="338" y="536" name="top"/>
  <outline>
    <contour>
      <point x="238" y="0" type="curve"/>
      <point x="376" y="0" type="line"/>
      <point x="541" y="149"/>
      <point x="626" y="291"/>
      <point x="626" y="437" type="curve" smooth="yes"/>
      <point x="626" y="492"/>
      <point x="609" y="546"/>
      <point x="531" y="546" type="curve" smooth="yes"/>
      <point x="476" y="546"/>
      <point x="443" y="516"/>
      <point x="443" y="453" type="curve"/>
      <point x="468" y="448"/>
      <point x="511" y="416"/>
      <point x="511" y="353" type="curve" smooth="yes"/>
      <point x="511" y="296"/>
      <point x="482" y="233"/>
      <point x="393" y="137" type="curve"/>
      <point x="298" y="520"/>
      <point x="247" y="543"/>
      <point x="131" y="543" type="curve" smooth="yes"/>
      <point x="64" y="543"/>
      <point x="-1" y="520"/>
      <point x="-49" y="493" type="curve"/>
      <point x="-24" y="438" type="line"/>
      <point x="-16" y="442"/>
      <point x="-3" y="446"/>
      <point x="10" y="446" type="curve" smooth="yes"/>
      <point x="91" y="446"/>
      <point x="163" y="240"/>
    </contour>
  </outline>
</glyph>
<glyph name="xi" format="2">
  <advance width="618"/>
  <unicode hex="03BE"/>
  <anchor x="310" y="-207" name="bottom"/>
  <anchor x="310" y="811" name="top"/>
  <outline>
    <contour>
      <point x="322" y="-207" type="line"/>
      <point x="543" y="-172"/>
      <point x="597" y="-98"/>
      <point x="597" y="-28" type="curve" smooth="yes"/>
      <point x="597" y="44"/>
      <point x="564" y="87"/>
      <point x="436" y="112" type="curve" smooth="yes"/>
      <point x="317" y="135"/>
      <point x="267" y="166"/>
      <point x="267" y="245" type="curve" smooth="yes"/>
      <point x="267" y="328"/>
      <point x="318" y="372"/>
      <point x="373" y="394" type="curve"/>
      <point x="394" y="390"/>
      <point x="429" y="384"/>
      <point x="475" y="384" type="curve" smooth="yes"/>
      <point x="541" y="384"/>
      <point x="576" y="415"/>
      <point x="576" y="445" type="curve" smooth="yes"/>
      <point x="576" y="473"/>
      <point x="550" y="499"/>
      <point x="495" y="499" type="curve" smooth="yes"/>
      <point x="436" y="499"/>
      <point x="389" y="485"/>
      <point x="359" y="476" type="curve"/>
      <point x="325" y="487"/>
      <point x="292" y="518"/>
      <point x="292" y="553" type="curve" smooth="yes"/>
      <point x="292" y="605"/>
      <point x="326" y="633"/>
      <point x="362" y="649" type="curve"/>
      <point x="379" y="648"/>
      <point x="394" y="648"/>
      <point x="407" y="648" type="curve" smooth="yes"/>
      <point x="545" y="648"/>
      <point x="592" y="672"/>
      <point x="592" y="719" type="curve" smooth="yes"/>
      <point x="592" y="747"/>
      <point x="571" y="772"/>
      <point x="500" y="772" type="curve" smooth="yes"/>
      <point x="436" y="772"/>
      <point x="384" y="752"/>
      <point x="353" y="736" type="curve"/>
      <point x="276" y="749"/>
      <point x="175" y="789"/>
      <point x="131" y="811" type="curve"/>
      <point x="79" y="743" type="line"/>
      <point x="119" y="721"/>
      <point x="191" y="690"/>
      <point x="254" y="678" type="curve"/>
      <point x="146" y="652"/>
      <point x="87" y="612"/>
      <point x="87" y="548" type="curve" smooth="yes"/>
      <point x="87" y="482"/>
      <point x="141" y="434"/>
      <point x="291" y="429" type="curve"/>
      <point x="291" y="422" type="line"/>
      <point x="137" y="373"/>
      <point x="40" y="303"/>
      <point x="40" y="190" type="curve" smooth="yes"/>
      <point x="40" y="79"/>
      <point x="100" y="12"/>
      <point x="313" y="-23" type="curve" smooth="yes"/>
      <point x="386" y="-35"/>
      <point x="422" y="-46"/>
      <point x="422" y="-80" type="curve" smooth="yes"/>
      <point x="422" y="-121"/>
      <point x="386" y="-141"/>
      <point x="322" y="-151" type="curve"/>
    </contour>
  </outline>
</glyph>
<glyph name="tau" format="2">
  <advance width="642"/>
  <unicode hex="03C4"/>
  <anchor x="322" y="0" name="bottom"/>
  <anchor x="322" y="536" name="top"/>
  <outline>
    <contour>
      <point x="377" y="-10" type="curve" smooth="yes"/>
      <point x="432" y="-10"/>
      <point x="477" y="4"/>
      <point x="503" y="19" type="curve"/>
      <point x="503" y="129" type="line"/>
      <point x="482" y="125"/>
      <point x="457" y="123"/>
      <point x="424" y="123" type="curve" smooth="yes"/>
      <point x="385" y="123"/>
      <point x="365" y="149"/>
      <point x="365" y="194" type="curve" smooth="yes"/>
      <point x="365" y="238"/>
      <point x="367" y="256"/>
      <point x="375" y="351" type="curve"/>
      <point x="594" y="351" type="line"/>
      <point x="594" y="536" type="line"/>
      <point x="209" y="536" type="line" smooth="yes"/>
      <point x="100" y="536"/>
      <point x="13" y="472"/>
      <point x="13" y="266" type="curve"/>
      <point x="83" y="266" type="line"/>
      <point x="83" y="313"/>
      <point x="113" y="351"/>
      <point x="182" y="351" type="curve" smooth="yes"/>
      <point x="282" y="351" type="line"/>
      <point x="254" y="258"/>
      <point x="240" y="197"/>
      <point x="240" y="126" type="curve" smooth="yes"/>
      <point x="240" y="40"/>
      <point x="281" y="-10"/>
    </contour>
  </outline>
</glyph>
<glyph name="upsilon" format="2">
  <advance width="772"/>
  <unicode hex="03C5"/>
  <anchor x="386" y="0" name="bottom"/>
  <anchor x="386" y="536" name="top"/>
  <outline>
    <contour>
      <point x="387" y="-10" type="curve" smooth="yes"/>
      <point x="615" y="-10"/>
      <point x="691" y="142"/>
      <point x="691" y="317" type="curve" smooth="yes"/>
      <point x="691" y="504"/>
      <point x="630" y="544"/>
      <point x="552" y="544" type="curve" smooth="yes"/>
      <point x="486" y="544"/>
      <point x="462" y="488"/>
      <point x="462" y="443" type="curve"/>
      <point x="521" y="434"/>
      <point x="597" y="418"/>
      <point x="597" y="273" type="curve" smooth="yes"/>
      <point x="597" y="147"/>
      <point x="537" y="79"/>
      <point x="441" y="79" type="curve" smooth="yes"/>
      <point x="364" y="79"/>
      <point x="328" y="106"/>
      <point x="328" y="212" type="curve" smooth="yes"/>
      <point x="328" y="536" type="line"/>
      <point x="40" y="536" type="line"/>
      <point x="40" y="470" type="line"/>
      <point x="47" y="470" type="line" smooth="yes"/>
      <point x="94" y="470"/>
      <point x="103" y="453"/>
      <point x="103" y="412" type="curve" smooth="yes"/>
      <point x="103" y="235" type="line" smooth="yes"/>
      <point x="103" y="88"/>
      <point x="184" y="-10"/>
    </contour>
  </outline>
</glyph>
<glyph name="chi" format="2">
  <advance width="766"/>
  <unicode hex="03C7"/>
  <anchor x="383" y="-240" name="bottom"/>
  <anchor x="383" y="536" name="top"/>
  <anchor x="746" y="536" name="topright"/>
  <outline>
    <contour>
      <point x="30" y="-240" type="line"/>
      <point x="270" y="-240" type="line"/>
      <point x="419" y="42" type="line"/>
      <point x="487" y="-118" type="line" smooth="yes"/>
      <point x="519" y="-195"/>
      <point x="548" y="-238"/>
      <point x="628" y="-238" type="curve" smooth="yes"/>
      <point x="681" y="-238"/>
      <point x="722" y="-207"/>
      <point x="756" y="-181" type="curve"/>
      <point x="733" y="-129" type="line"/>
      <point x="719" y="-133"/>
      <point x="699" y="-139"/>
      <point x="674" y="-139" type="curve" smooth="yes"/>
      <point x="628" y="-139"/>
      <point x="609" y="-114"/>
      <point x="581" y="-57" type="curve" smooth="yes"/>
      <point x="484" y="134" type="line"/>
      <point x="744" y="536" type="line"/>
      <point x="515" y="536" type="line"/>
      <point x="388" y="311" type="line"/>
      <point x="335" y="434" type="line" smooth="yes"/>
      <point x="295" y="534"/>
      <point x="258" y="544"/>
      <point x="196" y="544" type="curve" smooth="yes"/>
      <point x="146" y="544"/>
      <point x="89" y="508"/>
      <point x="52" y="485" type="curve"/>
      <point x="79" y="435" type="line"/>
      <point x="93" y="441"/>
      <point x="117" y="448"/>
      <point x="141" y="448" type="curve" smooth="yes"/>
      <point x="194" y="448"/>
      <point x="216" y="423"/>
      <point x="244" y="370" type="curve" smooth="yes"/>
      <point x="319" y="230" type="line"/>
    </contour>
  </outline>
</glyph>
<glyph name="uni03D0" format="2">
  <advance width="747"/>
  <unicode hex="03D0"/>
  <anchor x="373" y="-10" name="bottom"/>
  <anchor x="373" y="760" name="top"/>
  <outline>
    <contour>
      <point x="373" y="-10" type="curve" smooth="yes"/>
      <point x="581" y="-10"/>
      <point x="699" y="71"/>
      <point x="699" y="240" type="curve" smooth="yes"/>
      <point x="699" y="395"/>
      <point x="590" y="457"/>
      <point x="417" y="457" type="curve" smooth="yes"/>
      <point x="282" y="457"/>
      <point x="202" y="399"/>
      <point x="167" y="351" type="curve"/>
      <point x="162" y="351" type="line"/>
      <point x="161" y="432"/>
      <point x="179" y="493"/>
      <point x="202" y="542" type="curve"/>
      <point x="274" y="515"/>
      <point x="340" y="510"/>
      <point x="413" y="510" type="curve" smooth="yes"/>
      <point x="580" y="510"/>
      <point x="652" y="562"/>
      <point x="652" y="640" type="curve" smooth="yes"/>
      <point x="652" y="706"/>
      <point x="589" y="760"/>
      <point x="439" y="760" type="curve" smooth="yes"/>
      <point x="204" y="760"/>
      <point x="48" y="651"/>
      <point x="48" y="328" type="curve" smooth="yes"/>
      <point x="48" y="49"/>
      <point x="186" y="-10"/>
    </contour>
    <contour>
      <point x="378" y="64" type="curve" smooth="yes"/>
      <point x="306" y="64"/>
      <point x="284" y="119"/>
      <point x="284" y="226" type="curve" smooth="yes"/>
      <point x="284" y="336"/>
      <point x="314" y="381"/>
      <point x="379" y="381" type="curve" smooth="yes"/>
      <point x="441" y="381"/>
      <point x="468" y="332"/>
      <point x="468" y="225" type="curve" smooth="yes"/>
      <point x="468" y="118"/>
      <point x="444" y="64"/>
    </contour>
    <contour>
      <point x="409" y="590" type="curve" smooth="yes"/>
      <point x="351" y="590"/>
      <point x="286" y="594"/>
      <point x="239" y="606" type="curve"/>
      <point x="275" y="650"/>
      <point x="340" y="678"/>
      <point x="428" y="678" type="curve" smooth="yes"/>
      <point x="508" y="678"/>
      <point x="551" y="665"/>
      <point x="551" y="638" type="curve" smooth="yes"/>
      <point x="551" y="605"/>
      <point x="496" y="590"/>
    </contour>
  </outline>
</glyph>
<glyph name="uni03D6" format="2">
  <advance width="1188"/>
  <unicode hex="03D6"/>
  <outline>
    <contour>
      <point x="401" y="-10" type="curve" smooth="yes"/>
      <point x="525" y="-10"/>
      <point x="559" y="28"/>
      <point x="600" y="99" type="curve"/>
      <point x="637" y="29"/>
      <point x="675" y="-10"/>
      <point x="803" y="-10" type="curve" smooth="yes"/>
      <point x="945" y="-10"/>
      <point x="1032" y="78"/>
      <point x="1032" y="186" type="curve" smooth="yes"/>
      <point x="1032" y="278"/>
      <point x="998" y="329"/>
      <point x="954" y="369" type="curve"/>
      <point x="984" y="369" type="line" smooth="yes"/>
      <point x="1072" y="369"/>
      <point x="1165" y="422"/>
      <point x="1165" y="607" type="curve"/>
      <point x="1095" y="607" type="line"/>
      <point x="1095" y="560"/>
      <point x="1065" y="536"/>
      <point x="996" y="536" type="curve" smooth="yes"/>
      <point x="220" y="536" type="line" smooth="yes"/>
      <point x="132" y="536"/>
      <point x="22" y="502"/>
      <point x="22" y="299" type="curve"/>
      <point x="93" y="299" type="line"/>
      <point x="93" y="346"/>
      <point x="124" y="369"/>
      <point x="193" y="369" type="curve" smooth="yes"/>
      <point x="247" y="369" type="line"/>
      <point x="209" y="335"/>
      <point x="169" y="279"/>
      <point x="169" y="186" type="curve" smooth="yes"/>
      <point x="169" y="78"/>
      <point x="256" y="-10"/>
    </contour>
    <contour>
      <point x="472" y="90" type="curve" smooth="yes"/>
      <point x="438" y="90"/>
      <point x="397" y="124"/>
      <point x="397" y="209" type="curve" smooth="yes"/>
      <point x="397" y="301"/>
      <point x="413" y="346"/>
      <point x="430" y="369" type="curve"/>
      <point x="770" y="369" type="line"/>
      <point x="789" y="346"/>
      <point x="805" y="291"/>
      <point x="805" y="213" type="curve" smooth="yes"/>
      <point x="805" y="124"/>
      <point x="762" y="90"/>
      <point x="728" y="90" type="curve" smooth="yes"/>
      <point x="704" y="90"/>
      <point x="668" y="95"/>
      <point x="656" y="143" type="curve"/>
      <point x="686" y="233"/>
      <point x="694" y="259"/>
      <point x="694" y="291" type="curve" smooth="yes"/>
      <point x="694" y="337"/>
      <point x="663" y="369"/>
      <point x="602" y="369" type="curve" smooth="yes"/>
      <point x="538" y="369"/>
      <point x="509" y="337"/>
      <point x="509" y="291" type="curve" smooth="yes"/>
      <point x="509" y="259"/>
      <point x="514" y="232"/>
      <point x="545" y="143" type="curve"/>
      <point x="534" y="92"/>
      <point x="495" y="90"/>
    </contour>
  </outline>
</glyph>
<glyph name="uni03D9" format="2">
  <advance width="747"/>
  <unicode hex="03D9"/>
  <anchor x="373" y="-240" name="bottom"/>
  <anchor x="373" y="536" name="top"/>
  <outline>
    <contour>
      <point x="263" y="-240" type="line"/>
      <point x="484" y="-240" type="line"/>
      <point x="484" y="2" type="line"/>
      <point x="622" y="35"/>
      <point x="697" y="125"/>
      <point x="697" y="272" type="curve" smooth="yes"/>
      <point x="697" y="460"/>
      <point x="575" y="552"/>
      <point x="374" y="552" type="curve" smooth="yes"/>
      <point x="160" y="552"/>
      <point x="48" y="460"/>
      <point x="48" y="272" type="curve" smooth="yes"/>
      <point x="48" y="126"/>
      <point x="128" y="37"/>
      <point x="263" y="4" type="curve"/>
    </contour>
    <contour>
      <point x="373" y="66" type="curve" smooth="yes"/>
      <point x="303" y="66"/>
      <point x="278" y="138"/>
      <point x="278" y="272" type="curve" smooth="yes"/>
      <point x="278" y="407"/>
      <point x="302" y="475"/>
      <point x="372" y="475" type="curve" smooth="yes"/>
      <point x="442" y="475"/>
      <point x="468" y="407"/>
      <point x="468" y="272" type="curve" smooth="yes"/>
      <point x="468" y="138"/>
      <point x="443" y="66"/>
    </contour>
  </outline>
</glyph>
<glyph name="uni03DD" format="2">
  <advance width="662"/>
  <unicode hex="03DD"/>
  <anchor x="331" y="-240" name="bottom"/>
  <anchor x="331" y="536" name="top"/>
  <outline>
    <contour>
      <point x="106" y="-240" type="line"/>
      <point x="333" y="-240" type="line"/>
      <point x="333" y="133" type="line"/>
      <point x="361" y="133" type="line" smooth="yes"/>
      <point x="448" y="133"/>
      <point x="470" y="109"/>
      <point x="480" y="32" type="curve"/>
      <point x="566" y="32" type="line"/>
      <point x="566" y="205" type="line"/>
      <point x="333" y="205" type="line"/>
      <point x="333" y="460" type="line"/>
      <point x="437" y="460" type="line" smooth="yes"/>
      <point x="505" y="460"/>
      <point x="520" y="434"/>
      <point x="524" y="393" type="curve" smooth="yes"/>
      <point x="533" y="328" type="line"/>
      <point x="622" y="328" type="line"/>
      <point x="618" y="536" type="line"/>
      <point x="28" y="536" type="line"/>
      <point x="28" y="470" type="line"/>
      <point x="44" y="470" type="line" smooth="yes"/>
      <point x="84" y="470"/>
      <point x="106" y="453"/>
      <point x="106" y="407" type="curve" smooth="yes"/>
    </contour>
  </outline>
</glyph>
<glyph name="uni03E0" format="2">
  <advance width="787"/>
  <unicode hex="03E0"/>
  <anchor x="394" y="0" name="bottom"/>
  <anchor x="394" y="714" name="top"/>
  <outline>
    <contour>
      <point x="263" y="-10" type="line"/>
      <point x="506" y="21"/>
      <point x="725" y="158"/>
      <point x="725" y="401" type="curve" smooth="yes"/>
      <point x="725" y="599"/>
      <point x="618" y="724"/>
      <point x="342" y="724" type="curve" smooth="yes"/>
      <point x="131" y="724"/>
      <point x="36" y="653"/>
      <point x="36" y="578" type="curve" smooth="yes"/>
      <point x="36" y="517"/>
      <point x="78" y="501"/>
      <point x="199" y="501" type="curve"/>
      <point x="199" y="580"/>
      <point x="226" y="647"/>
      <point x="332" y="647" type="curve" smooth="yes"/>
      <point x="397" y="647"/>
      <point x="445" y="608"/>
      <point x="468" y="533" type="curve"/>
      <point x="190" y="429" type="line"/>
      <point x="232" y="356" type="line"/>
      <point x="488" y="450" type="line"/>
      <point x="494" y="423"/>
      <point x="499" y="403"/>
      <point x="501" y="374" type="curve"/>
      <point x="263" y="285" type="line"/>
      <point x="305" y="212" type="line"/>
      <point x="503" y="284" type="line"/>
      <point x="503" y="282"/>
      <point x="503" y="287"/>
      <point x="503" y="288" type="curve" smooth="yes"/>
      <point x="503" y="212"/>
      <point x="401" y="117"/>
      <point x="263" y="90" type="curve"/>
    </contour>
  </outline>
</glyph>
<glyph name="uni03FA" format="2">
  <advance width="1122"/>
  <unicode hex="03FA"/>
  <anchor x="561" y="0" name="bottom"/>
  <anchor x="561" y="714" name="top"/>
  <outline>
    <contour>
      <point x="24" y="0" type="line"/>
      <point x="337" y="0" type="line"/>
      <point x="337" y="66" type="line"/>
      <point x="318" y="66" type="line" smooth="yes"/>
      <point x="251" y="66"/>
      <point x="231" y="85"/>
      <point x="231" y="135" type="curve" smooth="yes"/>
      <point x="231" y="586" type="line"/>
      <point x="459" y="239" type="line"/>
      <point x="550" y="239" type="line"/>
      <point x="763" y="583" type="line"/>
      <point x="763" y="126" type="line" smooth="yes"/>
      <point x="763" y="84"/>
      <point x="741" y="66"/>
      <point x="685" y="66" type="curve"/>
      <point x="656" y="66" type="line"/>
      <point x="656" y="0" type="line"/>
      <point x="1099" y="0" type="line"/>
      <point x="1099" y="66" type="line"/>
      <point x="1060" y="66" type="line" smooth="yes"/>
      <point x="1009" y="66"/>
      <point x="992" y="85"/>
      <point x="992" y="135" type="curve" smooth="yes"/>
      <point x="992" y="585" type="line" smooth="yes"/>
      <point x="992" y="635"/>
      <point x="1013" y="648"/>
      <point x="1061" y="648" type="curve" smooth="yes"/>
      <point x="1099" y="648" type="line"/>
      <point x="1099" y="714" type="line"/>
      <point x="724" y="714" type="line"/>
      <point x="574" y="490" type="line"/>
      <point x="422" y="714" type="line"/>
      <point x="24" y="714" type="line"/>
      <point x="24" y="648" type="line"/>
      <point x="70" y="648" type="line" smooth="yes"/>
      <point x="113" y="648"/>
      <point x="132" y="629"/>
      <point x="132" y="583" type="curve" smooth="yes"/>
      <point x="132" y="130" type="line" smooth="yes"/>
      <point x="132" y="84"/>
      <point x="106" y="66"/>
      <point x="63" y="66" type="curve" smooth="yes"/>
      <point x="24" y="66" type="line"/>
    </contour>
  </outline>
</glyph>
<glyph name="uni03FC" format="2">
  <advance width="788"/>
  <unicode hex="03FC"/>
  <anchor x="394" y="-240" name="bottom"/>
  <anchor x="394" y="536" name="top"/>
  <outline>
    <contour>
      <point x="92" y="-240" type="line"/>
      <point x="316" y="-240" type="line"/>
      <point x="316" y="-153" type="line"/>
      <point x="531" y="-153" type="line"/>
      <point x="531" y="-81" type="line"/>
      <point x="316" y="-81" type="line"/>
      <point x="316" y="-49" type="line" smooth="yes"/>
      <point x="316" y="-13"/>
      <point x="316" y="9"/>
      <point x="314" y="27" type="curve"/>
      <point x="350" y="7"/>
      <point x="394" y="-11"/>
      <point x="462" y="-11" type="curve" smooth="yes"/>
      <point x="617" y="-11"/>
      <point x="740" y="69"/>
      <point x="740" y="258" type="curve" smooth="yes"/>
      <point x="740" y="445"/>
      <point x="615" y="552"/>
      <point x="416" y="552" type="curve" smooth="yes"/>
      <point x="191" y="552"/>
      <point x="92" y="444"/>
      <point x="92" y="281" type="curve" smooth="yes"/>
      <point x="92" y="-81" type="line"/>
      <point x="-4" y="-81" type="line"/>
      <point x="-4" y="-153" type="line"/>
      <point x="92" y="-153" type="line"/>
    </contour>
    <contour>
      <point x="405" y="72" type="curve" smooth="yes"/>
      <point x="361" y="72"/>
      <point x="334" y="95"/>
      <point x="316" y="113" type="curve"/>
      <point x="316" y="293" type="line" smooth="yes"/>
      <point x="316" y="403"/>
      <point x="337" y="475"/>
      <point x="408" y="475" type="curve" smooth="yes"/>
      <point x="481" y="475"/>
      <point x="512" y="410"/>
      <point x="512" y="262" type="curve" smooth="yes"/>
      <point x="512" y="119"/>
      <point x="469" y="72"/>
    </contour>
  </outline>
</glyph>
<glyph name="afii10051" format="2">
  <advance width="1012"/>
  <unicode hex="0402"/>
  <anchor x="506" y="0" name="bottom"/>
  <anchor x="506" y="714" name="top"/>
  <outline>
    <contour>
      <point x="160" y="0" type="line"/>
      <point x="600" y="0" type="line"/>
      <point x="600" y="66" type="line"/>
      <point x="557" y="66" type="line" smooth="yes"/>
      <point x="513" y="66"/>
      <point x="493" y="73"/>
      <point x="493" y="123" type="curve" smooth="yes"/>
      <point x="493" y="309" type="line"/>
      <point x="517" y="319"/>
      <point x="567" y="333"/>
      <point x="618" y="333" type="curve"/>
      <point x="690" y="333"/>
      <point x="739" y="316"/>
      <point x="739" y="196" type="curve" smooth="yes"/>
      <point x="739" y="88"/>
      <point x="711" y="71"/>
      <point x="664" y="71" type="curve" smooth="yes"/>
      <point x="658" y="71" type="line"/>
      <point x="658" y="0" type="line"/>
      <point x="688" y="0" type="line" smooth="yes"/>
      <point x="868" y="0"/>
      <point x="975" y="50"/>
      <point x="975" y="222" type="curve" smooth="yes"/>
      <point x="975" y="376"/>
      <point x="872" y="438"/>
      <point x="686" y="438" type="curve" smooth="yes"/>
      <point x="605" y="438"/>
      <point x="534" y="421"/>
      <point x="493" y="409" type="curve"/>
      <point x="493" y="640" type="line"/>
      <point x="550" y="640" type="line" smooth="yes"/>
      <point x="620" y="640"/>
      <point x="642" y="626"/>
      <point x="647" y="582" type="curve" smooth="yes"/>
      <point x="658" y="497" type="line"/>
      <point x="749" y="497" type="line"/>
      <point x="743" y="714" type="line"/>
      <point x="10" y="714" type="line"/>
      <point x="4" y="497" type="line"/>
      <point x="95" y="497" type="line"/>
      <point x="105" y="582" type="line" smooth="yes"/>
      <point x="111" y="626"/>
      <point x="132" y="640"/>
      <point x="202" y="640" type="curve" smooth="yes"/>
      <point x="258" y="640" type="line"/>
      <point x="258" y="129" type="line" smooth="yes"/>
      <point x="258" y="74"/>
      <point x="240" y="66"/>
      <point x="196" y="66" type="curve" smooth="yes"/>
      <point x="160" y="66" type="line"/>
    </contour>
  </outline>
</glyph>
<glyph name="afii10059" format="2">
  <advance width="1256"/>
  <unicode hex="040A"/>
  <anchor x="629" y="0" name="bottom"/>
  <anchor x="629" y="714" name="top"/>
  <outline>
    <contour>
      <point x="24" y="0" type="line"/>
      <point x="450" y="0" type="line"/>
      <point x="450" y="66" type="line"/>
      <point x="407" y="66" type="line" smooth="yes"/>
      <point x="378" y="66"/>
      <point x="364" y="92"/>
      <point x="364" y="111" type="curve" smooth="yes"/>
      <point x="364" y="335" type="line"/>
      <point x="614" y="335" type="line"/>
      <point x="614" y="130" type="line" smooth="yes"/>
      <point x="614" y="90"/>
      <point x="599" y="66"/>
      <point x="556" y="66" type="curve" smooth="yes"/>
      <point x="530" y="66" type="line"/>
      <point x="530" y="0" type="line"/>
      <point x="909" y="0" type="line" smooth="yes"/>
      <point x="1151" y="0"/>
      <point x="1246" y="90"/>
      <point x="1246" y="213" type="curve" smooth="yes"/>
      <point x="1246" y="336"/>
      <point x="1165" y="410"/>
      <point x="944" y="410" type="curve" smooth="yes"/>
      <point x="847" y="410" type="line"/>
      <point x="847" y="597" type="line" smooth="yes"/>
      <point x="847" y="627"/>
      <point x="864" y="648"/>
      <point x="899" y="648" type="curve" smooth="yes"/>
      <point x="979" y="648" type="line"/>
      <point x="979" y="714" type="line"/>
      <point x="530" y="714" type="line"/>
      <point x="530" y="648" type="line"/>
      <point x="564" y="648" type="line" smooth="yes"/>
      <point x="594" y="648"/>
      <point x="614" y="636"/>
      <point x="614" y="591" type="curve" smooth="yes"/>
      <point x="614" y="409" type="line"/>
      <point x="364" y="409" type="line"/>
      <point x="364" y="605" type="line" smooth="yes"/>
      <point x="364" y="629"/>
      <point x="379" y="648"/>
      <point x="407" y="648" type="curve" smooth="yes"/>
      <point x="450" y="648" type="line"/>
      <point x="450" y="714" type="line"/>
      <point x="24" y="714" type="line"/>
      <point x="24" y="648" type="line"/>
      <point x="76" y="648" type="line" smooth="yes"/>
      <point x="108" y="648"/>
      <point x="132" y="629"/>
      <point x="132" y="599" type="curve" smooth="yes"/>
      <point x="132" y="111" type="line" smooth="yes"/>
      <point x="132" y="92"/>
      <point x="113" y="66"/>
      <point x="86" y="66" type="curve" smooth="yes"/>
      <point x="24" y="66" type="line"/>
    </contour>
    <contour>
      <point x="846" y="72" type="line"/>
      <point x="846" y="339" type="line"/>
      <point x="885" y="339" type="line" smooth="yes"/>
      <point x="960" y="339"/>
      <point x="997" y="307"/>
      <point x="997" y="213" type="curve" smooth="yes"/>
      <point x="997" y="112"/>
      <point x="956" y="72"/>
      <point x="886" y="72" type="curve" smooth="yes"/>
    </contour>
  </outline>
</glyph>
<glyph name="afii10094" format="2">
  <advance width="716"/>
  <unicode hex="044C"/>
  <anchor x="358" y="0" name="bottom"/>
  <anchor x="358" y="536" name="top"/>
  <outline>
    <contour>
      <point x="15" y="0" type="line"/>
      <point x="429" y="0" type="line" smooth="yes"/>
      <point x="617" y="0"/>
      <point x="706" y="73"/>
      <point x="706" y="161" type="curve" smooth="yes"/>
      <point x="706" y="289"/>
      <point x="583" y="313"/>
      <point x="439" y="313" type="curve" smooth="yes"/>
      <point x="328" y="313" type="line"/>
      <point x="328" y="399" type="line" smooth="yes"/>
      <point x="328" y="431"/>
      <point x="350" y="461"/>
      <point x="413" y="461" type="curve" smooth="yes"/>
      <point x="428" y="461" type="line"/>
      <point x="428" y="536" type="line"/>
      <point x="15" y="536" type="line"/>
      <point x="15" y="470" type="line"/>
      <point x="27" y="470" type="line" smooth="yes"/>
      <point x="84" y="470"/>
      <point x="102" y="439"/>
      <point x="102" y="396" type="curve" smooth="yes"/>
      <point x="102" y="127" type="line" smooth="yes"/>
      <point x="102" y="91"/>
      <point x="88" y="66"/>
      <point x="27" y="66" type="curve" smooth="yes"/>
      <point x="15" y="66" type="line"/>
    </contour>
    <contour>
      <point x="327" y="73" type="line"/>
      <point x="327" y="241" type="line"/>
      <point x="366" y="241" type="line" smooth="yes"/>
      <point x="430" y="241"/>
      <point x="474" y="220"/>
      <point x="474" y="162" type="curve" smooth="yes"/>
      <point x="474" y="97"/>
      <point x="438" y="73"/>
      <point x="369" y="73" type="curve" smooth="yes"/>
    </contour>
  </outline>
</glyph>
<glyph name="uni0465" format="2">
  <advance width="1024"/>
  <unicode hex="0465"/>
  <anchor x="512" y="0" name="bottom"/>
  <anchor x="512" y="536" name="top"/>
  <outline>
    <contour>
      <point x="734" y="-10" type="curve" smooth="yes"/>
      <point x="910" y="-10"/>
      <point x="973" y="56"/>
      <point x="973" y="112" type="curve" smooth="yes"/>
      <point x="973" y="154"/>
      <point x="941" y="164"/>
      <point x="911" y="169" type="curve"/>
      <point x="884" y="119"/>
      <point x="853" y="79"/>
      <point x="789" y="79" type="curve" smooth="yes"/>
      <point x="701" y="79"/>
      <point x="660" y="116"/>
      <point x="654" y="229" type="curve"/>
      <point x="816" y="229" type="line"/>
      <point x="816" y="306" type="line"/>
      <point x="654" y="306" type="line"/>
      <point x="659" y="451"/>
      <point x="696" y="478"/>
      <point x="745" y="478" type="curve" smooth="yes"/>
      <point x="796" y="478"/>
      <point x="813" y="432"/>
      <point x="813" y="357" type="curve"/>
      <point x="950" y="357"/>
      <point x="979" y="395"/>
      <point x="979" y="437" type="curve" smooth="yes"/>
      <point x="979" y="495"/>
      <point x="909" y="552"/>
      <point x="731" y="552" type="curve" smooth="yes"/>
      <point x="573" y="552"/>
      <point x="444" y="495"/>
      <point x="428" y="311" type="curve"/>
      <point x="328" y="311" type="line"/>
      <point x="328" y="407" type="line" smooth="yes"/>
      <point x="328" y="453"/>
      <point x="343" y="470"/>
      <point x="383" y="470" type="curve" smooth="yes"/>
      <point x="388" y="470" type="line"/>
      <point x="388" y="536" type="line"/>
      <point x="18" y="536" type="line"/>
      <point x="18" y="470" type="line"/>
      <point x="30" y="470" type="line" smooth="yes"/>
      <point x="75" y="470"/>
      <point x="102" y="455"/>
      <point x="102" y="408" type="curve" smooth="yes"/>
      <point x="102" y="129" type="line" smooth="yes"/>
      <point x="102" y="80"/>
      <point x="76" y="66"/>
      <point x="30" y="66" type="curve" smooth="yes"/>
      <point x="18" y="66" type="line"/>
      <point x="18" y="0" type="line"/>
      <point x="388" y="0" type="line"/>
      <point x="388" y="66" type="line"/>
      <point x="384" y="66" type="line" smooth="yes"/>
      <point x="345" y="66"/>
      <point x="328" y="80"/>
      <point x="328" y="129" type="curve" smooth="yes"/>
      <point x="328" y="241" type="line"/>
      <point x="427" y="241" type="line"/>
      <point x="436" y="46"/>
      <point x="557" y="-10"/>
    </contour>
  </outline>
</glyph>
<glyph name="uni046C" format="2">
  <advance width="1730"/>
  <unicode hex="046C"/>
  <anchor x="866" y="0" name="bottom"/>
  <anchor x="866" y="714" name="top"/>
  <outline>
    <contour>
      <point x="24" y="0" type="line"/>
      <point x="426" y="0" type="line"/>
      <point x="426" y="66" type="line"/>
      <point x="407" y="66" type="line" smooth="yes"/>
      <point x="379" y="66"/>
      <point x="364" y="92"/>
      <point x="364" y="111" type="curve" smooth="yes"/>
      <point x="364" y="322" type="line"/>
      <point x="744" y="322" type="line"/>
      <point x="705" y="302"/>
      <point x="675" y="275"/>
      <point x="652" y="238" type="curve" smooth="yes"/>
      <point x="600" y="168" type="line" smooth="yes"/>
      <point x="555" y="94"/>
      <point x="522" y="66"/>
      <point x="476" y="66" type="curve" smooth="yes"/>
      <point x="466" y="66" type="line"/>
      <point x="466" y="0" type="line"/>
      <point x="598" y="0" type="line" smooth="yes"/>
      <point x="697" y="0"/>
      <point x="746" y="51"/>
      <point x="777" y="94" type="curve" smooth="yes"/>
      <point x="888" y="268" type="line" smooth="yes"/>
      <point x="919" y="314"/>
      <point x="951" y="320"/>
      <point x="999" y="320" type="curve"/>
      <point x="999" y="115" type="line" smooth="yes"/>
      <point x="999" y="71"/>
      <point x="985" y="66"/>
      <point x="943" y="66" type="curve" smooth="yes"/>
      <point x="883" y="66" type="line"/>
      <point x="883" y="0" type="line"/>
      <point x="1316" y="0" type="line"/>
      <point x="1316" y="66" type="line"/>
      <point x="1256" y="66" type="line" smooth="yes"/>
      <point x="1213" y="66"/>
      <point x="1198" y="72"/>
      <point x="1198" y="121" type="curve" smooth="yes"/>
      <point x="1198" y="320" type="line"/>
      <point x="1246" y="320"/>
      <point x="1278" y="313"/>
      <point x="1309" y="268" type="curve" smooth="yes"/>
      <point x="1419" y="94" type="line" smooth="yes"/>
      <point x="1450" y="51"/>
      <point x="1500" y="0"/>
      <point x="1599" y="0" type="curve" smooth="yes"/>
      <point x="1730" y="0" type="line"/>
      <point x="1730" y="66" type="line"/>
      <point x="1721" y="66" type="line" smooth="yes"/>
      <point x="1674" y="66"/>
      <point x="1641" y="95"/>
      <point x="1596" y="168" type="curve" smooth="yes"/>
      <point x="1530" y="266" type="line" smooth="yes"/>
      <point x="1485" y="341"/>
      <point x="1418" y="393"/>
      <point x="1239" y="396" type="curve"/>
      <point x="1492" y="661" type="line"/>
      <point x="1491" y="714" type="line"/>
      <point x="712" y="714" type="line"/>
      <point x="712" y="661" type="line"/>
      <point x="954" y="396" type="line"/>
      <point x="364" y="396" type="line"/>
      <point x="364" y="605" type="line" smooth="yes"/>
      <point x="364" y="629"/>
      <point x="379" y="648"/>
      <point x="407" y="648" type="curve" smooth="yes"/>
      <point x="450" y="648" type="line"/>
      <point x="450" y="714" type="line"/>
      <point x="24" y="714" type="line"/>
      <point x="24" y="648" type="line"/>
      <point x="76" y="648" type="line" smooth="yes"/>
      <point x="108" y="648"/>
      <point x="132" y="629"/>
      <point x="132" y="599" type="curve" smooth="yes"/>
      <point x="132" y="111" type="line" smooth="yes"/>
      <point x="132" y="92"/>
      <point x="113" y="66"/>
      <point x="86" y="66" type="curve" smooth="yes"/>
      <point x="24" y="66" type="line"/>
    </contour>
    <contour>
      <point x="1157" y="422" type="line"/>
      <point x="973" y="645" type="line"/>
      <point x="1360" y="645" type="line"/>
    </contour>
  </outline>
</glyph>
<glyph name="pokrytiecomb.cy" format="2">
  <unicode hex="0487"/>
  <anchor x="-1" y="536" name="_top"/>
  <outline>
    <contour>
      <point x="-234" y="760" type="curve"/>
      <point x="-141" y="760" type="line"/>
      <point x="-139" y="767" type="line" smooth="yes"/>
      <point x="-131" y="796"/>
      <point x="-108" y="815"/>
      <point x="-78" y="815" type="curve" smooth="yes"/>
      <point x="0" y="815"/>
      <point x="79" y="760"/>
      <point x="209" y="760" type="curve" smooth="yes"/>
      <point x="232" y="760" type="line"/>
      <point x="232" y="887" type="line"/>
      <point x="224" y="887" type="line"/>
      <point x="105" y="887"/>
      <point x="27" y="942"/>
      <point x="-61" y="942" type="curve" smooth="yes"/>
      <point x="-160" y="942"/>
      <point x="-227" y="851"/>
    </contour>
  </outline>
</glyph>
<glyph name="uni0492" format="2">
  <advance width="715"/>
  <unicode hex="0492"/>
  <anchor x="358" y="0" name="bottom"/>
  <anchor x="358" y="714" name="top"/>
  <outline>
    <contour>
      <point x="24" y="0" type="line"/>
      <point x="497" y="0" type="line"/>
      <point x="497" y="66" type="line"/>
      <point x="422" y="66" type="line" smooth="yes"/>
      <point x="380" y="66"/>
      <point x="366" y="73"/>
      <point x="366" y="119" type="curve" smooth="yes"/>
      <point x="366" y="330" type="line"/>
      <point x="521" y="330" type="line"/>
      <point x="521" y="389" type="line"/>
      <point x="366" y="389" type="line"/>
      <point x="366" y="640" type="line"/>
      <point x="498" y="640" type="line" smooth="yes"/>
      <point x="560" y="640"/>
      <point x="597" y="618"/>
      <point x="610" y="556" type="curve" smooth="yes"/>
      <point x="622" y="492" type="line"/>
      <point x="713" y="492" type="line"/>
      <point x="703" y="714" type="line"/>
      <point x="24" y="714" type="line"/>
      <point x="24" y="648" type="line"/>
      <point x="75" y="648" type="line" smooth="yes"/>
      <point x="108" y="648"/>
      <point x="132" y="641"/>
      <point x="132" y="591" type="curve" smooth="yes"/>
      <point x="132" y="389" type="line"/>
      <point x="37" y="389" type="line"/>
      <point x="37" y="330" type="line"/>
      <point x="132" y="330" type="line"/>
      <point x="132" y="123" type="line" smooth="yes"/>
      <point x="132" y="73"/>
      <point x="109" y="66"/>
      <point x="75" y="66" type="curve" smooth="yes"/>
      <point x="24" y="66" type="line"/>
    </contour>
  </outline>
</glyph>
<glyph name="uni0494" format="2">
  <advance width="876"/>
  <unicode hex="0494"/>
  <anchor x="439" y="-251" name="bottom"/>
  <anchor x="439" y="714" name="top"/>
  <outline>
    <contour>
      <point x="463" y="-251" type="curve" smooth="yes"/>
      <point x="718" y="-251"/>
      <point x="843" y="-103"/>
      <point x="843" y="88" type="curve" smooth="yes"/>
      <point x="843" y="251"/>
      <point x="796" y="395"/>
      <point x="463" y="395" type="curve" smooth="yes"/>
      <point x="431" y="395"/>
      <point x="387" y="392"/>
      <point x="366" y="391" type="curve"/>
      <point x="366" y="640" type="line"/>
      <point x="498" y="640" type="line" smooth="yes"/>
      <point x="560" y="640"/>
      <point x="597" y="618"/>
      <point x="610" y="556" type="curve" smooth="yes"/>
      <point x="622" y="492" type="line"/>
      <point x="713" y="492" type="line"/>
      <point x="703" y="714" type="line"/>
      <point x="24" y="714" type="line"/>
      <point x="24" y="648" type="line"/>
      <point x="75" y="648" type="line" smooth="yes"/>
      <point x="108" y="648"/>
      <point x="132" y="641"/>
      <point x="132" y="591" type="curve" smooth="yes"/>
      <point x="132" y="123" type="line" smooth="yes"/>
      <point x="132" y="73"/>
      <point x="108" y="66"/>
      <point x="75" y="66" type="curve" smooth="yes"/>
      <point x="24" y="66" type="line"/>
      <point x="24" y="0" type="line"/>
      <point x="497" y="0" type="line"/>
      <point x="497" y="66" type="line"/>
      <point x="422" y="66" type="line" smooth="yes"/>
      <point x="380" y="66"/>
      <point x="366" y="73"/>
      <point x="366" y="119" type="curve" smooth="yes"/>
      <point x="366" y="321" type="line"/>
      <point x="376" y="321"/>
      <point x="389" y="322"/>
      <point x="407" y="322" type="curve" smooth="yes"/>
      <point x="554" y="322"/>
      <point x="592" y="208"/>
      <point x="592" y="92" type="curve" smooth="yes"/>
      <point x="592" y="-66"/>
      <point x="563" y="-175"/>
      <point x="465" y="-175" type="curve" smooth="yes"/>
      <point x="387" y="-175"/>
      <point x="367" y="-128"/>
      <point x="358" y="-53" type="curve"/>
      <point x="262" y="-53"/>
      <point x="220" y="-88"/>
      <point x="220" y="-128" type="curve" smooth="yes"/>
      <point x="220" y="-205"/>
      <point x="295" y="-251"/>
    </contour>
  </outline>
</glyph>
<glyph name="uni0496" format="2">
  <advance width="1316"/>
  <unicode hex="0496"/>
  <anchor x="658" y="0" name="bottom"/>
  <anchor x="658" y="714" name="top"/>
  <outline>
    <contour>
      <point x="1225" y="-210" type="curve"/>
      <point x="1301" y="-210" type="line"/>
      <point x="1301" y="66" type="line"/>
      <point x="1278" y="66" type="line" smooth="yes"/>
      <point x="1200" y="66"/>
      <point x="1182" y="88"/>
      <point x="1130" y="168" type="curve" smooth="yes"/>
      <point x="1065" y="266" type="line" smooth="yes"/>
      <point x="1017" y="344"/>
      <point x="952" y="379"/>
      <point x="882" y="387" type="curve"/>
      <point x="921" y="406"/>
      <point x="950" y="433"/>
      <point x="1002" y="519" type="curve" smooth="yes"/>
      <point x="1053" y="599"/>
      <point x="1067" y="622"/>
      <point x="1116" y="622" type="curve" smooth="yes"/>
      <point x="1154" y="622"/>
      <point x="1170" y="598"/>
      <point x="1179" y="575" type="curve"/>
      <point x="1218" y="582"/>
      <point x="1237" y="608"/>
      <point x="1237" y="640" type="curve" smooth="yes"/>
      <point x="1237" y="691"/>
      <point x="1195" y="720"/>
      <point x="1132" y="720" type="curve" smooth="yes"/>
      <point x="1047" y="720"/>
      <point x="1005" y="691"/>
      <point x="934" y="557" type="curve" smooth="yes"/>
      <point x="896" y="483"/>
      <point x="852" y="437"/>
      <point x="830" y="421" type="curve" smooth="yes"/>
      <point x="802" y="397"/>
      <point x="776" y="394"/>
      <point x="732" y="394" type="curve"/>
      <point x="732" y="591" type="line" smooth="yes"/>
      <point x="732" y="641"/>
      <point x="748" y="648"/>
      <point x="791" y="648" type="curve" smooth="yes"/>
      <point x="849" y="648" type="line"/>
      <point x="849" y="714" type="line"/>
      <point x="418" y="714" type="line"/>
      <point x="418" y="648" type="line"/>
      <point x="477" y="648" type="line" smooth="yes"/>
      <point x="519" y="648"/>
      <point x="533" y="641"/>
      <point x="533" y="595" type="curve" smooth="yes"/>
      <point x="533" y="394" type="line"/>
      <point x="490" y="394"/>
      <point x="463" y="397"/>
      <point x="435" y="421" type="curve" smooth="yes"/>
      <point x="413" y="437"/>
      <point x="369" y="483"/>
      <point x="331" y="557" type="curve" smooth="yes"/>
      <point x="260" y="691"/>
      <point x="218" y="720"/>
      <point x="133" y="720" type="curve" smooth="yes"/>
      <point x="70" y="720"/>
      <point x="28" y="691"/>
      <point x="28" y="640" type="curve" smooth="yes"/>
      <point x="28" y="608"/>
      <point x="47" y="582"/>
      <point x="86" y="575" type="curve"/>
      <point x="93" y="598"/>
      <point x="111" y="622"/>
      <point x="149" y="622" type="curve" smooth="yes"/>
      <point x="198" y="622"/>
      <point x="213" y="599"/>
      <point x="263" y="519" type="curve" smooth="yes"/>
      <point x="315" y="433"/>
      <point x="344" y="406"/>
      <point x="383" y="387" type="curve"/>
      <point x="313" y="379"/>
      <point x="249" y="345"/>
      <point x="199" y="266" type="curve" smooth="yes"/>
      <point x="135" y="168" type="line" smooth="yes"/>
      <point x="88" y="95"/>
      <point x="56" y="66"/>
      <point x="9" y="66" type="curve" smooth="yes"/>
      <point x="0" y="66" type="line"/>
      <point x="0" y="0" type="line"/>
      <point x="131" y="0" type="line" smooth="yes"/>
      <point x="231" y="0"/>
      <point x="281" y="52"/>
      <point x="311" y="97" type="curve" smooth="yes"/>
      <point x="422" y="268" type="line" smooth="yes"/>
      <point x="453" y="315"/>
      <point x="485" y="323"/>
      <point x="533" y="323" type="curve"/>
      <point x="533" y="118" type="line" smooth="yes"/>
      <point x="533" y="72"/>
      <point x="519" y="66"/>
      <point x="477" y="66" type="curve" smooth="yes"/>
      <point x="418" y="66" type="line"/>
      <point x="418" y="0" type="line"/>
      <point x="849" y="0" type="line"/>
      <point x="849" y="66" type="line"/>
      <point x="791" y="66" type="line" smooth="yes"/>
      <point x="748" y="66"/>
      <point x="732" y="73"/>
      <point x="732" y="123" type="curve" smooth="yes"/>
      <point x="732" y="323" type="line"/>
      <point x="780" y="323"/>
      <point x="812" y="315"/>
      <point x="843" y="268" type="curve" smooth="yes"/>
      <point x="953" y="97" type="line" smooth="yes"/>
      <point x="985" y="44"/>
      <point x="1027" y="6"/>
      <point x="1115" y="-4" type="curve" smooth="yes"/>
      <point x="1211" y="-10"/>
      <point x="1221" y="-19"/>
    </contour>
  </outline>
</glyph>
<glyph name="uni04BD" format="2">
  <advance width="876"/>
  <unicode hex="04BD"/>
  <anchor x="528" y="0" name="bottom"/>
  <anchor x="528" y="536" name="top"/>
  <outline>
    <contour>
      <point x="552" y="-10" type="curve" smooth="yes"/>
      <point x="740" y="-10"/>
      <point x="811" y="56"/>
      <point x="811" y="121" type="curve" smooth="yes"/>
      <point x="811" y="149"/>
      <point x="789" y="169"/>
      <point x="760" y="177" type="curve"/>
      <point x="734" y="121"/>
      <point x="690" y="81"/>
      <point x="611" y="81" type="curve" smooth="yes"/>
      <point x="511" y="81"/>
      <point x="459" y="133"/>
      <point x="455" y="251" type="curve"/>
      <point x="833" y="251" type="line"/>
      <point x="833" y="310" type="line" smooth="yes"/>
      <point x="833" y="470"/>
      <point x="721" y="552"/>
      <point x="539" y="552" type="curve" smooth="yes"/>
      <point x="363" y="552"/>
      <point x="253" y="476"/>
      <point x="232" y="328" type="curve"/>
      <point x="169" y="329"/>
      <point x="142" y="345"/>
      <point x="142" y="399" type="curve" smooth="yes"/>
      <point x="142" y="421"/>
      <point x="147" y="439"/>
      <point x="155" y="452" type="curve"/>
      <point x="144" y="459"/>
      <point x="112" y="463"/>
      <point x="95" y="463" type="curve" smooth="yes"/>
      <point x="57" y="463"/>
      <point x="12" y="444"/>
      <point x="12" y="377" type="curve" smooth="yes"/>
      <point x="12" y="290"/>
      <point x="111" y="253"/>
      <point x="227" y="251" type="curve"/>
      <point x="232" y="85"/>
      <point x="337" y="-10"/>
    </contour>
    <contour>
      <point x="458" y="328" type="line"/>
      <point x="458" y="424"/>
      <point x="494" y="473"/>
      <point x="544" y="473" type="curve" smooth="yes"/>
      <point x="592" y="473"/>
      <point x="611" y="425"/>
      <point x="611" y="328" type="curve"/>
    </contour>
  </outline>
</glyph>
<glyph name="uni04CA" format="2">
  <advance width="823"/>
  <unicode hex="04CA"/>
  <anchor x="411" y="0" name="bottom"/>
  <anchor x="411" y="536" name="top"/>
  <outline>
    <contour>
      <point x="605" y="-210" type="line"/>
      <point x="752" y="-210" type="line"/>
      <point x="824" y="45" type="line"/>
      <point x="824" y="66" type="line"/>
      <point x="719" y="66" type="line"/>
      <point x="712" y="0" type="line"/>
    </contour>
    <component base="afii10079"/>
  </outline>
</glyph>
<glyph name="uni04F6" format="2">
  <advance width="715"/>
  <unicode hex="04F6"/>
  <anchor x="358" y="-210" name="bottom"/>
  <anchor x="358" y="714" name="top"/>
  <outline>
    <contour>
      <point x="421" y="-210" type="curve"/>
      <point x="497" y="-210" type="line"/>
      <point x="497" y="66" type="line"/>
      <point x="417" y="66" type="line" smooth="yes"/>
      <point x="379" y="66"/>
      <point x="366" y="89"/>
      <point x="366" y="111" type="curve" smooth="yes"/>
      <point x="366" y="640" type="line"/>
      <point x="498" y="640" type="line" smooth="yes"/>
      <point x="560" y="640"/>
      <point x="597" y="618"/>
      <point x="610" y="556" type="curve" smooth="yes"/>
      <point x="622" y="492" type="line"/>
      <point x="713" y="492" type="line"/>
      <point x="703" y="714" type="line"/>
      <point x="24" y="714" type="line"/>
      <point x="24" y="648" type="line"/>
      <point x="75" y="648" type="line" smooth="yes"/>
      <point x="108" y="648"/>
      <point x="132" y="641"/>
      <point x="132" y="591" type="curve" smooth="yes"/>
      <point x="132" y="123" type="line" smooth="yes"/>
      <point x="132" y="73"/>
      <point x="109" y="66"/>
      <point x="75" y="66" type="curve" smooth="yes"/>
      <point x="24" y="66" type="line"/>
      <point x="24" y="0" type="line"/>
      <point x="297" y="0" type="line" smooth="yes"/>
      <point x="395" y="0"/>
      <point x="411" y="-24"/>
    </contour>
  </outline>
</glyph>
<glyph name="uni0505" format="2">
  <advance width="1070"/>
  <unicode hex="0505"/>
  <anchor x="535" y="0" name="bottom"/>
  <anchor x="535" y="536" name="top"/>
  <outline>
    <contour>
      <point x="642" y="-10" type="curve" smooth="yes"/>
      <point x="840" y="-10"/>
      <point x="957" y="72"/>
      <point x="957" y="193" type="curve" smooth="yes"/>
      <point x="957" y="224" type="line" smooth="yes"/>
      <point x="957" y="279"/>
      <point x="1009" y="285"/>
      <point x="1030" y="285" type="curve" smooth="yes"/>
      <point x="1053" y="285" type="line"/>
      <point x="1053" y="351" type="line"/>
      <point x="635" y="351" type="line"/>
      <point x="635" y="285" type="line"/>
      <point x="658" y="285" type="line" smooth="yes"/>
      <point x="678" y="285"/>
      <point x="731" y="278"/>
      <point x="731" y="228" type="curve" smooth="yes"/>
      <point x="731" y="184" type="line" smooth="yes"/>
      <point x="731" y="104"/>
      <point x="697" y="69"/>
      <point x="640" y="69" type="curve" smooth="yes"/>
      <point x="591" y="69"/>
      <point x="555" y="86"/>
      <point x="544" y="155" type="curve" smooth="yes"/>
      <point x="534" y="232"/>
      <point x="486" y="271"/>
      <point x="379" y="284" type="curve"/>
      <point x="379" y="289" type="line"/>
      <point x="482" y="308"/>
      <point x="542" y="357"/>
      <point x="542" y="424" type="curve" smooth="yes"/>
      <point x="542" y="508"/>
      <point x="446" y="551"/>
      <point x="266" y="551" type="curve" smooth="yes"/>
      <point x="57" y="551"/>
      <point x="7" y="484"/>
      <point x="7" y="440" type="curve" smooth="yes"/>
      <point x="7" y="400"/>
      <point x="34" y="364"/>
      <point x="154" y="364" type="curve"/>
      <point x="154" y="413"/>
      <point x="161" y="481"/>
      <point x="239" y="481" type="curve" smooth="yes"/>
      <point x="295" y="481"/>
      <point x="314" y="452"/>
      <point x="314" y="414" type="curve" smooth="yes"/>
      <point x="314" y="361"/>
      <point x="291" y="323"/>
      <point x="192" y="323" type="curve" smooth="yes"/>
      <point x="140" y="323" type="line"/>
      <point x="140" y="247" type="line"/>
      <point x="196" y="247" type="line" smooth="yes"/>
      <point x="295" y="247"/>
      <point x="319" y="219"/>
      <point x="330" y="151" type="curve" smooth="yes"/>
      <point x="350" y="19"/>
      <point x="456" y="-10"/>
    </contour>
  </outline>
</glyph>
<glyph name="uni0525" format="2">
  <advance width="810"/>
  <unicode hex="0525"/>
  <anchor x="405" y="0" name="bottom"/>
  <anchor x="405" y="536" name="top"/>
  <outline>
    <contour>
      <point x="721" y="-198" type="line"/>
      <point x="793" y="-198" type="line"/>
      <point x="793" y="65" type="line"/>
      <point x="776" y="65" type="line" smooth="yes"/>
      <point x="731" y="65"/>
      <point x="707" y="84"/>
      <point x="707" y="127" type="curve" smooth="yes"/>
      <point x="707" y="407" type="line" smooth="yes"/>
      <point x="707" y="453"/>
      <point x="736" y="470"/>
      <point x="780" y="470" type="curve" smooth="yes"/>
      <point x="793" y="470" type="line"/>
      <point x="793" y="536" type="line"/>
      <point x="17" y="536" type="line"/>
      <point x="17" y="470" type="line"/>
      <point x="29" y="470" type="line" smooth="yes"/>
      <point x="74" y="470"/>
      <point x="101" y="455"/>
      <point x="101" y="409" type="curve" smooth="yes"/>
      <point x="101" y="129" type="line" smooth="yes"/>
      <point x="101" y="80"/>
      <point x="75" y="66"/>
      <point x="29" y="66" type="curve" smooth="yes"/>
      <point x="17" y="66" type="line"/>
      <point x="17" y="0" type="line"/>
      <point x="387" y="0" type="line"/>
      <point x="387" y="66" type="line"/>
      <point x="383" y="66" type="line" smooth="yes"/>
      <point x="344" y="66"/>
      <point x="327" y="80"/>
      <point x="327" y="129" type="curve" smooth="yes"/>
      <point x="327" y="450" type="line"/>
      <point x="480" y="450" type="line"/>
      <point x="480" y="129" type="line" smooth="yes"/>
      <point x="480" y="80"/>
      <point x="465" y="66"/>
      <point x="425" y="66" type="curve" smooth="yes"/>
      <point x="420" y="66" type="line"/>
      <point x="420" y="0" type="line"/>
      <point x="606" y="0" type="line" smooth="yes"/>
      <point x="686" y="0"/>
      <point x="704" y="-18"/>
      <point x="715" y="-139" type="curve" smooth="yes"/>
    </contour>
  </outline>
</glyph>
<glyph name="uni0526" format="2">
  <advance width="931"/>
  <unicode hex="0526"/>
  <anchor x="465" y="0" name="bottom"/>
  <anchor x="465" y="714" name="top"/>
  <outline>
    <contour>
      <point x="867" y="-210" type="curve"/>
      <point x="943" y="-210" type="line"/>
      <point x="943" y="66" type="line"/>
      <point x="886" y="66" type="line" smooth="yes"/>
      <point x="848" y="66"/>
      <point x="835" y="89"/>
      <point x="835" y="111" type="curve" smooth="yes"/>
      <point x="835" y="245" type="line" smooth="yes"/>
      <point x="835" y="425"/>
      <point x="733" y="472"/>
      <point x="587" y="472" type="curve" smooth="yes"/>
      <point x="488" y="472"/>
      <point x="406" y="452"/>
      <point x="365" y="447" type="curve"/>
      <point x="365" y="598" type="line" smooth="yes"/>
      <point x="365" y="629"/>
      <point x="382" y="648"/>
      <point x="410" y="648" type="curve" smooth="yes"/>
      <point x="474" y="648" type="line"/>
      <point x="474" y="714" type="line"/>
      <point x="25" y="714" type="line"/>
      <point x="25" y="648" type="line"/>
      <point x="84" y="648" type="line" smooth="yes"/>
      <point x="106" y="648"/>
      <point x="130" y="629"/>
      <point x="130" y="598" type="curve" smooth="yes"/>
      <point x="130" y="128" type="line" smooth="yes"/>
      <point x="130" y="74"/>
      <point x="107" y="66"/>
      <point x="74" y="66" type="curve" smooth="yes"/>
      <point x="32" y="66" type="line"/>
      <point x="32" y="0" type="line"/>
      <point x="449" y="0" type="line"/>
      <point x="449" y="66" type="line"/>
      <point x="422" y="66" type="line" smooth="yes"/>
      <point x="378" y="66"/>
      <point x="365" y="77"/>
      <point x="365" y="123" type="curve" smooth="yes"/>
      <point x="365" y="352" type="line"/>
      <point x="389" y="354"/>
      <point x="439" y="368"/>
      <point x="490" y="368" type="curve" smooth="yes"/>
      <point x="583" y="368"/>
      <point x="600" y="317"/>
      <point x="600" y="234" type="curve" smooth="yes"/>
      <point x="600" y="123" type="line" smooth="yes"/>
      <point x="600" y="73"/>
      <point x="582" y="66"/>
      <point x="540" y="66" type="curve" smooth="yes"/>
      <point x="511" y="66" type="line"/>
      <point x="511" y="0" type="line"/>
      <point x="743" y="0" type="line" smooth="yes"/>
      <point x="841" y="0"/>
      <point x="858" y="-24"/>
    </contour>
  </outline>
</glyph>
<glyph name="uni052B" format="2">
  <advance width="1437"/>
  <unicode hex="052B"/>
  <anchor x="718" y="-210" name="bottom"/>
  <anchor x="718" y="536" name="top"/>
  <outline>
    <contour>
      <point x="20" y="-210" type="line"/>
      <point x="114" y="-210" type="line"/>
      <point x="119" y="-137" type="line" smooth="yes"/>
      <point x="126" y="-37"/>
      <point x="163" y="0"/>
      <point x="229" y="0" type="curve" smooth="yes"/>
      <point x="477" y="0" type="line" smooth="yes"/>
      <point x="552" y="0"/>
      <point x="572" y="-38"/>
      <point x="579" y="-137" type="curve" smooth="yes"/>
      <point x="585" y="-210" type="line"/>
      <point x="679" y="-210" type="line"/>
      <point x="679" y="58" type="line"/>
      <point x="646" y="58" type="line" smooth="yes"/>
      <point x="592" y="58"/>
      <point x="570" y="76"/>
      <point x="570" y="128" type="curve" smooth="yes"/>
      <point x="570" y="240" type="line"/>
      <point x="790" y="240" type="line"/>
      <point x="790" y="130" type="line" smooth="yes"/>
      <point x="790" y="80"/>
      <point x="769" y="66"/>
      <point x="744" y="66" type="curve" smooth="yes"/>
      <point x="736" y="66" type="line"/>
      <point x="736" y="0" type="line"/>
      <point x="1082" y="0" type="line"/>
      <point x="1082" y="66" type="line"/>
      <point x="1068" y="66" type="line" smooth="yes"/>
      <point x="1028" y="66"/>
      <point x="1016" y="86"/>
      <point x="1016" y="128" type="curve" smooth="yes"/>
      <point x="1016" y="247" type="line"/>
      <point x="1029" y="247"/>
      <point x="1041" y="249"/>
      <point x="1069" y="195" type="curve" smooth="yes"/>
      <point x="1119" y="97" type="line" smooth="yes"/>
      <point x="1165" y="6"/>
      <point x="1238" y="0"/>
      <point x="1373" y="0" type="curve" smooth="yes"/>
      <point x="1445" y="0" type="line"/>
      <point x="1445" y="66" type="line"/>
      <point x="1430" y="66" type="line" smooth="yes"/>
      <point x="1394" y="66"/>
      <point x="1382" y="69"/>
      <point x="1343" y="123" type="curve" smooth="yes"/>
      <point x="1277" y="218" type="line" smooth="yes"/>
      <point x="1232" y="283"/>
      <point x="1179" y="296"/>
      <point x="1116" y="299" type="curve"/>
      <point x="1145" y="312"/>
      <point x="1173" y="339"/>
      <point x="1209" y="381" type="curve" smooth="yes"/>
      <point x="1246" y="423"/>
      <point x="1265" y="429"/>
      <point x="1297" y="429" type="curve" smooth="yes"/>
      <point x="1327" y="429"/>
      <point x="1344" y="412"/>
      <point x="1347" y="388" type="curve"/>
      <point x="1392" y="389"/>
      <point x="1426" y="420"/>
      <point x="1426" y="463" type="curve" smooth="yes"/>
      <point x="1426" y="503"/>
      <point x="1396" y="542"/>
      <point x="1322" y="542" type="curve" smooth="yes"/>
      <point x="1225" y="542"/>
      <point x="1189" y="499"/>
      <point x="1140" y="428" type="curve" smooth="yes"/>
      <point x="1102" y="377"/>
      <point x="1083" y="352"/>
      <point x="1065" y="336" type="curve" smooth="yes"/>
      <point x="1047" y="321"/>
      <point x="1036" y="313"/>
      <point x="1016" y="313" type="curve"/>
      <point x="1016" y="402" type="line" smooth="yes"/>
      <point x="1016" y="455"/>
      <point x="1032" y="470"/>
      <point x="1068" y="470" type="curve" smooth="yes"/>
      <point x="1082" y="470" type="line"/>
      <point x="1082" y="536" type="line"/>
      <point x="725" y="536" type="line"/>
      <point x="725" y="470" type="line"/>
      <point x="737" y="470" type="line" smooth="yes"/>
      <point x="764" y="470"/>
      <point x="790" y="454"/>
      <point x="790" y="408" type="curve" smooth="yes"/>
      <point x="790" y="306" type="line"/>
      <point x="570" y="306" type="line"/>
      <point x="570" y="396" type="line" smooth="yes"/>
      <point x="570" y="452"/>
      <point x="587" y="470"/>
      <point x="629" y="470" type="curve" smooth="yes"/>
      <point x="642" y="470" type="line"/>
      <point x="642" y="536" type="line"/>
      <point x="126" y="536" type="line"/>
      <point x="126" y="470" type="line"/>
      <point x="111" y="470" type="line" smooth="yes"/>
      <point x="164" y="470"/>
      <point x="222" y="463"/>
      <point x="222" y="420" type="curve" smooth="yes"/>
      <point x="222" y="363"/>
      <point x="203" y="282"/>
      <point x="175" y="194" type="curve" smooth="yes"/>
      <point x="154" y="132"/>
      <point x="129" y="95"/>
      <point x="109" y="65" type="curve"/>
      <point x="20" y="65" type="line"/>
    </contour>
    <contour>
      <point x="196" y="65" type="line"/>
      <point x="267" y="192"/>
      <point x="298" y="322"/>
      <point x="307" y="471" type="curve"/>
      <point x="362" y="471" type="line"/>
      <point x="362" y="65" type="line"/>
    </contour>
  </outline>
</glyph>
<glyph name="uni1C88" format="2">
  <advance width="746"/>
  <unicode hex="1C88"/>
  <anchor x="373" y="0" name="bottom"/>
  <anchor x="373" y="759" name="top"/>
  <outline>
    <contour>
      <point x="371" y="-10" type="curve" smooth="yes"/>
      <point x="585" y="-10"/>
      <point x="697" y="87"/>
      <point x="697" y="222" type="curve" smooth="yes"/>
      <point x="697" y="322"/>
      <point x="625" y="403"/>
      <point x="500" y="437" type="curve"/>
      <point x="632" y="618" type="line" smooth="yes"/>
      <point x="673" y="674"/>
      <point x="696" y="693"/>
      <point x="734" y="693" type="curve" smooth="yes"/>
      <point x="745" y="693" type="line"/>
      <point x="745" y="759" type="line"/>
      <point x="475" y="759" type="line"/>
      <point x="475" y="693" type="line"/>
      <point x="480" y="693" type="line" smooth="yes"/>
      <point x="516" y="693"/>
      <point x="537" y="686"/>
      <point x="537" y="662" type="curve" smooth="yes"/>
      <point x="537" y="639"/>
      <point x="520" y="607"/>
      <point x="501" y="580" type="curve" smooth="yes"/>
      <point x="438" y="495" type="line"/>
      <point x="377" y="579" type="line" smooth="yes"/>
      <point x="359" y="607"/>
      <point x="340" y="636"/>
      <point x="340" y="659" type="curve" smooth="yes"/>
      <point x="340" y="677"/>
      <point x="356" y="693"/>
      <point x="398" y="693" type="curve" smooth="yes"/>
      <point x="405" y="693" type="line"/>
      <point x="405" y="759" type="line"/>
      <point x="0" y="759" type="line"/>
      <point x="0" y="693" type="line"/>
      <point x="48" y="693"/>
      <point x="54" y="690"/>
      <point x="87" y="641" type="curve" smooth="yes"/>
      <point x="225" y="431" type="line"/>
      <point x="108" y="395"/>
      <point x="48" y="318"/>
      <point x="48" y="222" type="curve" smooth="yes"/>
      <point x="48" y="87"/>
      <point x="170" y="-10"/>
    </contour>
    <contour>
      <point x="373" y="66" type="curve" smooth="yes"/>
      <point x="303" y="66"/>
      <point x="278" y="141"/>
      <point x="278" y="222" type="curve" smooth="yes"/>
      <point x="278" y="303"/>
      <point x="302" y="375"/>
      <point x="372" y="375" type="curve" smooth="yes"/>
      <point x="442" y="375"/>
      <point x="468" y="303"/>
      <point x="468" y="222" type="curve" smooth="yes"/>
      <point x="468" y="141"/>
      <point x="443" y="66"/>
    </contour>
  </outline>
</glyph>
<glyph name="uni1D27" format="2">
  <advance width="718"/>
  <unicode hex="1D27"/>
  <outline>
    <contour>
      <point x="7" y="0" type="line"/>
      <point x="261" y="0" type="line"/>
      <point x="261" y="71" type="line"/>
      <point x="228" y="71" type="line" smooth="yes"/>
      <point x="206" y="71"/>
      <point x="194" y="77"/>
      <point x="194" y="91" type="curve" smooth="yes"/>
      <point x="194" y="105"/>
      <point x="202" y="135"/>
      <point x="219" y="173" type="curve" smooth="yes"/>
      <point x="280" y="310" type="line" smooth="yes"/>
      <point x="283" y="316"/>
      <point x="289" y="328"/>
      <point x="294" y="339" type="curve"/>
      <point x="300" y="339" type="line"/>
      <point x="302" y="329"/>
      <point x="307" y="319"/>
      <point x="311" y="310" type="curve" smooth="yes"/>
      <point x="370" y="163" type="line" smooth="yes"/>
      <point x="385" y="127"/>
      <point x="393" y="106"/>
      <point x="393" y="94" type="curve" smooth="yes"/>
      <point x="393" y="77"/>
      <point x="381" y="71"/>
      <point x="359" y="71" type="curve" smooth="yes"/>
      <point x="327" y="71" type="line"/>
      <point x="327" y="0" type="line"/>
      <point x="711" y="0" type="line"/>
      <point x="711" y="71" type="line"/>
      <point x="688" y="71" type="line" smooth="yes"/>
      <point x="649" y="71"/>
      <point x="638" y="81"/>
      <point x="622" y="115" type="curve" smooth="yes"/>
      <point x="432" y="536" type="line"/>
      <point x="283" y="536" type="line"/>
      <point x="106" y="138" type="line" smooth="yes"/>
      <point x="86" y="96"/>
      <point x="75" y="71"/>
      <point x="36" y="71" type="curve" smooth="yes"/>
      <point x="7" y="71" type="line"/>
    </contour>
  </outline>
</glyph>
<glyph name="uni1D80" format="2">
  <advance width="787"/>
  <unicode hex="1D80"/>
  <anchor x="394" y="760" name="top"/>
  <anchor x="787" y="760" name="topright"/>
  <anchor x="394" y="0" name="bottom"/>
  <outline>
    <contour>
      <point x="536" y="-209" type="curve" smooth="yes"/>
      <point x="629" y="-209"/>
      <point x="680" y="-152"/>
      <point x="680" y="-15" type="curve" smooth="yes"/>
      <point x="680" y="99" type="line"/>
      <point x="594" y="99" type="line"/>
      <point x="594" y="-24" type="line" smooth="yes"/>
      <point x="594" y="-79"/>
      <point x="567" y="-106"/>
      <point x="517" y="-106" type="curve" smooth="yes"/>
      <point x="491" y="-106"/>
      <point x="475" y="-99"/>
      <point x="460" y="-90" type="curve"/>
      <point x="449" y="-99"/>
      <point x="443" y="-118"/>
      <point x="443" y="-134" type="curve" smooth="yes"/>
      <point x="443" y="-178"/>
      <point x="478" y="-209"/>
    </contour>
    <component base="b"/>
  </outline>
</glyph>
<glyph name="uni1D91" format="2">
  <advance width="787"/>
  <unicode hex="1D91"/>
  <outline>
    <contour>
      <point x="654" y="-240" type="curve" smooth="yes"/>
      <point x="751" y="-240"/>
      <point x="798" y="-232"/>
      <point x="836" y="-224" type="curve"/>
      <point x="836" y="-158" type="line"/>
      <point x="807" y="-162"/>
      <point x="777" y="-166"/>
      <point x="754" y="-166" type="curve" smooth="yes"/>
      <point x="701" y="-166"/>
      <point x="675" y="-140"/>
      <point x="675" y="-90" type="curve" smooth="yes"/>
      <point x="675" y="609" type="line" smooth="yes"/>
      <point x="675" y="679"/>
      <point x="692" y="700"/>
      <point x="723" y="700" type="curve" smooth="yes"/>
      <point x="755" y="700"/>
      <point x="762" y="658"/>
      <point x="762" y="597" type="curve"/>
      <point x="886" y="597"/>
      <point x="913" y="634"/>
      <point x="913" y="678" type="curve" smooth="yes"/>
      <point x="913" y="719"/>
      <point x="880" y="769"/>
      <point x="708" y="769" type="curve" smooth="yes"/>
      <point x="517" y="769"/>
      <point x="448" y="686"/>
      <point x="448" y="559" type="curve" smooth="yes"/>
      <point x="448" y="541" type="line" smooth="yes"/>
      <point x="448" y="520"/>
      <point x="449" y="504"/>
      <point x="450" y="488" type="curve"/>
      <point x="445" y="488" type="line"/>
      <point x="412" y="523"/>
      <point x="365" y="550"/>
      <point x="280" y="550" type="curve" smooth="yes"/>
      <point x="132" y="550"/>
      <point x="46" y="460"/>
      <point x="46" y="267" type="curve" smooth="yes"/>
      <point x="46" y="75"/>
      <point x="132" y="-10"/>
      <point x="283" y="-10" type="curve" smooth="yes"/>
      <point x="378" y="-10"/>
      <point x="419" y="13"/>
      <point x="453" y="44" type="curve"/>
      <point x="458" y="44" type="line"/>
      <point x="452" y="1"/>
      <point x="448" y="-14"/>
      <point x="448" y="-49" type="curve" smooth="yes"/>
      <point x="448" y="-62" type="line" smooth="yes"/>
      <point x="448" y="-181"/>
      <point x="500" y="-240"/>
    </contour>
    <contour>
      <point x="356" y="80" type="curve" smooth="yes"/>
      <point x="296" y="80"/>
      <point x="274" y="144"/>
      <point x="274" y="270" type="curve" smooth="yes"/>
      <point x="274" y="391"/>
      <point x="296" y="462"/>
      <point x="357" y="462" type="curve" smooth="yes"/>
      <point x="427" y="462"/>
      <point x="448" y="394"/>
      <point x="448" y="271" type="curve" smooth="yes"/>
      <point x="448" y="143"/>
      <point x="427" y="80"/>
    </contour>
  </outline>
</glyph>
<glyph name="uni1D93" format="2">
  <advance width="663"/>
  <unicode hex="1D93"/>
  <anchor x="332" y="536" name="top"/>
  <anchor x="332" y="0" name="bottom"/>
  <outline>
    <contour>
      <point x="672" y="-209" type="curve" smooth="yes"/>
      <point x="731" y="-209"/>
      <point x="766" y="-179"/>
      <point x="766" y="-134" type="curve" smooth="yes"/>
      <point x="766" y="-118"/>
      <point x="760" y="-99"/>
      <point x="750" y="-90" type="curve"/>
      <point x="734" y="-98"/>
      <point x="718" y="-106"/>
      <point x="692" y="-106" type="curve" smooth="yes"/>
      <point x="642" y="-106"/>
      <point x="615" y="-77"/>
      <point x="615" y="-24" type="curve" smooth="yes"/>
      <point x="615" y="116" type="line"/>
      <point x="529" y="74" type="line"/>
      <point x="529" y="-15" type="line" smooth="yes"/>
      <point x="529" y="-152"/>
      <point x="580" y="-209"/>
    </contour>
    <component base="uni025B"/>
  </outline>
</glyph>
<glyph name="dottedgrave" format="2">
  <unicode hex="1DC0"/>
  <anchor x="18" y="536" name="_top"/>
  <anchor x="18" y="853" name="top"/>
  <outline>
    <contour>
      <point x="36" y="574" type="curve"/>
      <point x="101" y="574" type="line"/>
      <point x="101" y="596" type="line"/>
      <point x="78" y="654"/>
      <point x="49" y="773"/>
      <point x="42" y="844" type="curve"/>
      <point x="-109" y="844" type="line"/>
      <point x="-109" y="828" type="line"/>
      <point x="-98" y="772"/>
      <point x="-14" y="640"/>
    </contour>
    <contour>
      <point x="-157" y="561" type="curve" smooth="yes"/>
      <point x="-117" y="561"/>
      <point x="-78" y="585"/>
      <point x="-78" y="654" type="curve" smooth="yes"/>
      <point x="-78" y="724"/>
      <point x="-117" y="748"/>
      <point x="-157" y="748" type="curve" smooth="yes"/>
      <point x="-198" y="748"/>
      <point x="-236" y="724"/>
      <point x="-236" y="654" type="curve" smooth="yes"/>
      <point x="-236" y="585"/>
      <point x="-198" y="561"/>
    </contour>
    <contour>
      <point x="192" y="666" type="curve" smooth="yes"/>
      <point x="230" y="666"/>
      <point x="270" y="690"/>
      <point x="270" y="759" type="curve" smooth="yes"/>
      <point x="270" y="829"/>
      <point x="230" y="853"/>
      <point x="192" y="853" type="curve" smooth="yes"/>
      <point x="149" y="853"/>
      <point x="111" y="829"/>
      <point x="111" y="759" type="curve" smooth="yes"/>
      <point x="111" y="690"/>
      <point x="149" y="666"/>
    </contour>
  </outline>
</glyph>
<glyph name="isbelowcomb" format="2">
  <unicode hex="1DD0"/>
  <anchor x="-2" y="0" name="_bottom"/>
  <anchor x="-2" y="-312" name="bottom"/>
  <outline>
    <contour>
      <point x="92" y="-312" type="curve" smooth="yes"/>
      <point x="170" y="-312"/>
      <point x="226" y="-264"/>
      <point x="226" y="-194" type="curve" smooth="yes"/>
      <point x="226" y="-149"/>
      <point x="203" y="-108"/>
      <point x="172" y="-80" type="curve"/>
      <point x="64" y="-80" type="line"/>
      <point x="105" y="-123"/>
      <point x="132" y="-156"/>
      <point x="132" y="-184" type="curve" smooth="yes"/>
      <point x="132" y="-200"/>
      <point x="119" y="-211"/>
      <point x="103" y="-211" type="curve" smooth="yes"/>
      <point x="85" y="-211"/>
      <point x="67" y="-202"/>
      <point x="34" y="-185" type="curve" smooth="yes"/>
      <point x="-5" y="-161"/>
      <point x="-31" y="-152"/>
      <point x="-70" y="-152" type="curve" smooth="yes"/>
      <point x="-77" y="-152"/>
      <point x="-83" y="-149"/>
      <point x="-90" y="-147" type="curve"/>
      <point x="-41" y="0" type="line"/>
      <point x="-135" y="0" type="line"/>
      <point x="-230" y="-302" type="line"/>
      <point x="-140" y="-302" type="line"/>
      <point x="-125" y="-264"/>
      <point x="-111" y="-249"/>
      <point x="-90" y="-249" type="curve" smooth="yes"/>
      <point x="-70" y="-249"/>
      <point x="-53" y="-255"/>
      <point x="-20" y="-277" type="curve" smooth="yes"/>
      <point x="18" y="-299"/>
      <point x="52" y="-312"/>
    </contour>
  </outline>
</glyph>
<glyph name="uni1E11" format="2">
  <advance width="787"/>
  <unicode hex="1E11"/>
  <anchor x="394" y="-242" name="bottom"/>
  <anchor x="394" y="760" name="top"/>
  <anchor x="727" y="760" name="topright"/>
  <anchor x="394" y="268" name="center"/>
  <outline>
    <contour>
      <point x="341" y="-242" type="curve" smooth="yes"/>
      <point x="439" y="-242"/>
      <point x="515" y="-197"/>
      <point x="515" y="-125" type="curve" smooth="yes"/>
      <point x="515" y="-73"/>
      <point x="456" y="-38"/>
      <point x="381" y="-33" type="curve"/>
      <point x="393" y="11" type="line"/>
      <point x="318" y="11" type="line"/>
      <point x="293" y="-90" type="line"/>
      <point x="344" y="-92"/>
      <point x="381" y="-91"/>
      <point x="381" y="-130" type="curve" smooth="yes"/>
      <point x="381" y="-162"/>
      <point x="354" y="-164"/>
      <point x="310" y="-164" type="curve" smooth="yes"/>
      <point x="289" y="-164"/>
      <point x="258" y="-161"/>
      <point x="231" y="-156" type="curve"/>
      <point x="231" y="-231" type="line"/>
      <point x="258" y="-238"/>
      <point x="315" y="-242"/>
    </contour>
    <component base="d"/>
  </outline>
</glyph>
<glyph name="uni1E29" format="2">
  <advance width="806"/>
  <unicode hex="1E29"/>
  <anchor x="404" y="-242" name="bottom"/>
  <anchor x="404" y="760" name="top"/>
  <outline>
    <contour>
      <point x="201" y="-242" type="curve" smooth="yes"/>
      <point x="300" y="-242"/>
      <point x="376" y="-197"/>
      <point x="376" y="-125" type="curve" smooth="yes"/>
      <point x="376" y="-73"/>
      <point x="318" y="-38"/>
      <point x="242" y="-33" type="curve"/>
      <point x="252" y="0" type="line"/>
      <point x="415" y="0" type="line"/>
      <point x="415" y="66" type="line"/>
      <point x="413" y="66" type="line" smooth="yes"/>
      <point x="361" y="66"/>
      <point x="336" y="77"/>
      <point x="336" y="129" type="curve" smooth="yes"/>
      <point x="336" y="296" type="line" smooth="yes"/>
      <point x="336" y="358"/>
      <point x="346" y="443"/>
      <point x="409" y="443" type="curve" smooth="yes"/>
      <point x="459" y="443"/>
      <point x="476" y="394"/>
      <point x="476" y="309" type="curve" smooth="yes"/>
      <point x="476" y="0" type="line"/>
      <point x="776" y="0" type="line"/>
      <point x="776" y="66" type="line"/>
      <point x="774" y="66" type="line" smooth="yes"/>
      <point x="722" y="66"/>
      <point x="703" y="75"/>
      <point x="703" y="136" type="curve" smooth="yes"/>
      <point x="703" y="363" type="line" smooth="yes"/>
      <point x="703" y="496"/>
      <point x="632" y="552"/>
      <point x="521" y="552" type="curve" smooth="yes"/>
      <point x="452" y="552"/>
      <point x="392" y="577"/>
      <point x="337" y="484" type="curve"/>
      <point x="324" y="484" type="line"/>
      <point x="324" y="484"/>
      <point x="336" y="590"/>
      <point x="336" y="662" type="curve" smooth="yes"/>
      <point x="336" y="760" type="line"/>
      <point x="19" y="760" type="line"/>
      <point x="19" y="694" type="line"/>
      <point x="36" y="694" type="line" smooth="yes"/>
      <point x="55" y="694"/>
      <point x="110" y="687"/>
      <point x="110" y="641" type="curve" smooth="yes"/>
      <point x="110" y="132" type="line" smooth="yes"/>
      <point x="110" y="75"/>
      <point x="74" y="66"/>
      <point x="22" y="66" type="curve" smooth="yes"/>
      <point x="24" y="66" type="line"/>
      <point x="24" y="0" type="line"/>
      <point x="178" y="0" type="line"/>
      <point x="155" y="-90" type="line"/>
      <point x="205" y="-92"/>
      <point x="243" y="-91"/>
      <point x="243" y="-130" type="curve" smooth="yes"/>
      <point x="243" y="-162"/>
      <point x="216" y="-164"/>
      <point x="171" y="-164" type="curve" smooth="yes"/>
      <point x="151" y="-164"/>
      <point x="120" y="-161"/>
      <point x="92" y="-156" type="curve"/>
      <point x="92" y="-231" type="line"/>
      <point x="120" y="-238"/>
      <point x="177" y="-242"/>
    </contour>
  </outline>
</glyph>
<glyph name="LL.middleWelsh" format="2">
  <advance width="1232"/>
  <unicode hex="1EFA"/>
  <anchor x="615" y="0" name="bottom"/>
  <anchor x="615" y="714" name="top"/>
  <outline>
    <contour>
      <point x="24" y="0" type="line"/>
      <point x="1192" y="0" type="line"/>
      <point x="1201" y="233" type="line"/>
      <point x="1132" y="233" type="line"/>
      <point x="1107" y="158" type="line" smooth="yes"/>
      <point x="1086" y="90"/>
      <point x="1057" y="74"/>
      <point x="1015" y="74" type="curve" smooth="yes"/>
      <point x="808" y="74" type="line"/>
      <point x="808" y="603" type="line" smooth="yes"/>
      <point x="808" y="629"/>
      <point x="816" y="648"/>
      <point x="858" y="648" type="curve" smooth="yes"/>
      <point x="915" y="648" type="line"/>
      <point x="915" y="714" type="line"/>
      <point x="24" y="714" type="line"/>
      <point x="24" y="648" type="line"/>
      <point x="86" y="648" type="line" smooth="yes"/>
      <point x="108" y="648"/>
      <point x="132" y="629"/>
      <point x="132" y="599" type="curve" smooth="yes"/>
      <point x="132" y="107" type="line" smooth="yes"/>
      <point x="132" y="85"/>
      <point x="108" y="66"/>
      <point x="86" y="66" type="curve" smooth="yes"/>
      <point x="24" y="66" type="line"/>
    </contour>
    <contour>
      <point x="409" y="66" type="line" smooth="yes"/>
      <point x="385" y="66"/>
      <point x="365" y="88"/>
      <point x="365" y="110" type="curve" smooth="yes"/>
      <point x="365" y="598" type="line" smooth="yes"/>
      <point x="365" y="629"/>
      <point x="381" y="648"/>
      <point x="409" y="648" type="curve" smooth="yes"/>
      <point x="519" y="648" type="line" smooth="yes"/>
      <point x="548" y="648"/>
      <point x="573" y="629"/>
      <point x="573" y="602" type="curve" smooth="yes"/>
      <point x="573" y="109" type="line" smooth="yes"/>
      <point x="573" y="85"/>
      <point x="548" y="66"/>
      <point x="528" y="66" type="curve" smooth="yes"/>
    </contour>
  </outline>
</glyph>
<glyph name="yloop" format="2">
  <advance width="687"/>
  <unicode hex="1EFF"/>
  <anchor x="344" y="-244" name="bottom"/>
  <anchor x="344" y="536" name="top"/>
  <outline>
    <contour>
      <point x="147" y="-244" type="curve" smooth="yes"/>
      <point x="290" y="-244"/>
      <point x="348" y="-146"/>
      <point x="395" y="-41" type="curve" smooth="yes"/>
      <point x="595" y="403" type="line" smooth="yes"/>
      <point x="614" y="446"/>
      <point x="629" y="470"/>
      <point x="687" y="470" type="curve"/>
      <point x="687" y="536" type="line"/>
      <point x="429" y="536" type="line"/>
      <point x="429" y="470" type="line"/>
      <point x="477" y="470"/>
      <point x="499" y="464"/>
      <point x="499" y="438" type="curve" smooth="yes"/>
      <point x="499" y="419"/>
      <point x="493" y="399"/>
      <point x="486" y="383" type="curve" smooth="yes"/>
      <point x="420" y="223" type="line" smooth="yes"/>
      <point x="419" y="221"/>
      <point x="406" y="192"/>
      <point x="402" y="170" type="curve"/>
      <point x="399" y="170" type="line"/>
      <point x="395" y="190"/>
      <point x="388" y="213"/>
      <point x="379" y="233" type="curve" smooth="yes"/>
      <point x="311" y="397" type="line" smooth="yes"/>
      <point x="305" y="410"/>
      <point x="299" y="424"/>
      <point x="299" y="438" type="curve" smooth="yes"/>
      <point x="299" y="460"/>
      <point x="319" y="470"/>
      <point x="373" y="470" type="curve"/>
      <point x="373" y="536" type="line"/>
      <point x="-4" y="536" type="line"/>
      <point x="-4" y="470" type="line"/>
      <point x="37" y="470"/>
      <point x="52" y="466"/>
      <point x="71" y="428" type="curve" smooth="yes"/>
      <point x="280" y="-18" type="line"/>
      <point x="277" y="-17" type="line"/>
      <point x="245" y="-3"/>
      <point x="207" y="10"/>
      <point x="152" y="10" type="curve" smooth="yes"/>
      <point x="43" y="10"/>
      <point x="-14" y="-45"/>
      <point x="-14" y="-119" type="curve" smooth="yes"/>
      <point x="-14" y="-197"/>
      <point x="51" y="-244"/>
    </contour>
    <contour>
      <point x="146" y="-147" type="curve" smooth="yes"/>
      <point x="112" y="-147"/>
      <point x="88" y="-135"/>
      <point x="88" y="-114" type="curve" smooth="yes"/>
      <point x="88" y="-92"/>
      <point x="107" y="-75"/>
      <point x="152" y="-75" type="curve" smooth="yes"/>
      <point x="187" y="-75"/>
      <point x="219" y="-85"/>
      <point x="244" y="-97" type="curve"/>
      <point x="236" y="-106" type="line" smooth="yes"/>
      <point x="217" y="-132"/>
      <point x="184" y="-147"/>
    </contour>
  </outline>
</glyph>
<glyph name="uni1FEF" format="2">
  <advance width="947"/>
  <unicode hex="1FEF"/>
  <anchor x="489" y="536" name="_top"/>
  <anchor x="489" y="760" name="top"/>
  <outline>
    <contour>
      <point x="488" y="570" type="curve"/>
      <point x="601" y="570" type="line"/>
      <point x="601" y="588" type="line"/>
      <point x="586" y="643"/>
      <point x="578" y="706"/>
      <point x="575" y="760" type="curve"/>
      <point x="378" y="760" type="line"/>
      <point x="378" y="746" type="line"/>
      <point x="408" y="683"/>
      <point x="442" y="631"/>
    </contour>
  </outline>
</glyph>
<glyph name="emdash" format="2">
  <advance width="1000"/>
  <unicode hex="2014"/>
  <outline>
    <contour>
      <point x="-5" y="225" type="line"/>
      <point x="1005" y="225" type="line"/>
      <point x="1005" y="312" type="line"/>
      <point x="-5" y="312" type="line"/>
    </contour>
  </outline>
</glyph>
<glyph name="quotedblright" format="2">
  <advance width="604"/>
  <unicode hex="201D"/>
  <outline>
    <contour>
      <point x="316" y="380" type="line"/>
      <point x="477" y="415"/>
      <point x="537" y="491"/>
      <point x="537" y="576" type="curve" smooth="yes"/>
      <point x="537" y="659"/>
      <point x="496" y="714"/>
      <point x="417" y="714" type="curve" smooth="yes"/>
      <point x="366" y="714"/>
      <point x="328" y="687"/>
      <point x="328" y="633" type="curve" smooth="yes"/>
      <point x="328" y="531"/>
      <point x="413" y="543"/>
      <point x="413" y="508" type="curve"/>
      <point x="413" y="469"/>
      <point x="378" y="465"/>
      <point x="316" y="444" type="curve"/>
    </contour>
    <contour>
      <point x="66" y="380" type="line"/>
      <point x="226" y="415"/>
      <point x="287" y="491"/>
      <point x="287" y="576" type="curve" smooth="yes"/>
      <point x="287" y="659"/>
      <point x="245" y="714"/>
      <point x="167" y="714" type="curve" smooth="yes"/>
      <point x="116" y="714"/>
      <point x="77" y="687"/>
      <point x="77" y="633" type="curve" smooth="yes"/>
      <point x="77" y="531"/>
      <point x="162" y="543"/>
      <point x="162" y="508" type="curve"/>
      <point x="162" y="469"/>
      <point x="127" y="465"/>
      <point x="66" y="444" type="curve"/>
    </contour>
  </outline>
</glyph>
<glyph name="uni2034" format="2">
  <advance width="1016"/>
  <unicode hex="2034"/>
  <outline>
    <contour>
      <point x="704" y="479" type="line"/>
      <point x="831" y="479" type="line"/>
      <point x="996" y="714" type="line"/>
      <point x="746" y="714" type="line"/>
    </contour>
    <contour>
      <point x="20" y="479" type="line"/>
      <point x="147" y="479" type="line"/>
      <point x="312" y="714" type="line"/>
      <point x="62" y="714" type="line"/>
    </contour>
    <contour>
      <point x="362" y="479" type="line"/>
      <point x="489" y="479" type="line"/>
      <point x="654" y="714" type="line"/>
      <point x="404" y="714" type="line"/>
    </contour>
  </outline>
</glyph>
<glyph name="guilsinglleft" format="2">
  <advance width="428"/>
  <unicode hex="2039"/>
  <outline>
    <contour>
      <point x="254" y="58" type="line"/>
      <point x="353" y="58" type="line"/>
      <point x="235" y="270" type="line"/>
      <point x="353" y="482" type="line"/>
      <point x="254" y="482" type="line"/>
      <point x="75" y="308" type="line"/>
      <point x="75" y="232" type="line"/>
    </contour>
  </outline>
</glyph>
<glyph name="referencemark" format="2">
  <advance width="955"/>
  <unicode hex="203B"/>
  <outline>
    <contour>
      <point x="146" y="12" type="line"/>
      <point x="474" y="288" type="line"/>
      <point x="802" y="12" type="line"/>
      <point x="878" y="77" type="line"/>
      <point x="547" y="358" type="line"/>
      <point x="878" y="640" type="line"/>
      <point x="807" y="708" type="line"/>
      <point x="475" y="429" type="line"/>
      <point x="146" y="706" type="line"/>
      <point x="72" y="640" type="line"/>
      <point x="401" y="358" type="line"/>
      <point x="75" y="81" type="line"/>
    </contour>
    <contour>
      <point x="477" y="0" type="curve" smooth="yes"/>
      <point x="537" y="0"/>
      <point x="589" y="24"/>
      <point x="589" y="97" type="curve" smooth="yes"/>
      <point x="589" y="168"/>
      <point x="537" y="191"/>
      <point x="477" y="191" type="curve" smooth="yes"/>
      <point x="416" y="191"/>
      <point x="369" y="168"/>
      <point x="369" y="97" type="curve" smooth="yes"/>
      <point x="369" y="24"/>
      <point x="416" y="0"/>
    </contour>
    <contour>
      <point x="180" y="262" type="curve" smooth="yes"/>
      <point x="241" y="262"/>
      <point x="292" y="286"/>
      <point x="292" y="359" type="curve" smooth="yes"/>
      <point x="292" y="428"/>
      <point x="241" y="453"/>
      <point x="180" y="453" type="curve" smooth="yes"/>
      <point x="120" y="453"/>
      <point x="72" y="428"/>
      <point x="72" y="359" type="curve" smooth="yes"/>
      <point x="72" y="286"/>
      <point x="120" y="262"/>
    </contour>
    <contour>
      <point x="771" y="262" type="curve" smooth="yes"/>
      <point x="832" y="262"/>
      <point x="883" y="286"/>
      <point x="883" y="359" type="curve" smooth="yes"/>
      <point x="883" y="428"/>
      <point x="832" y="453"/>
      <point x="771" y="453" type="curve" smooth="yes"/>
      <point x="711" y="453"/>
      <point x="663" y="428"/>
      <point x="663" y="359" type="curve" smooth="yes"/>
      <point x="663" y="286"/>
      <point x="711" y="262"/>
    </contour>
    <contour>
      <point x="477" y="523" type="curve" smooth="yes"/>
      <point x="537" y="523"/>
      <point x="589" y="547"/>
      <point x="589" y="620" type="curve" smooth="yes"/>
      <point x="589" y="691"/>
      <point x="537" y="714"/>
      <point x="477" y="714" type="curve" smooth="yes"/>
      <point x="416" y="714"/>
      <point x="369" y="691"/>
      <point x="369" y="620" type="curve" smooth="yes"/>
      <point x="369" y="547"/>
      <point x="416" y="523"/>
    </contour>
  </outline>
</glyph>
<glyph name="fourdotpunctuation" format="2">
  <advance width="939"/>
  <unicode hex="2058"/>
  <outline>
    <contour>
      <point x="469" y="354" type="curve" smooth="yes"/>
      <point x="528" y="354"/>
      <point x="581" y="379"/>
      <point x="581" y="449" type="curve" smooth="yes"/>
      <point x="581" y="521"/>
      <point x="528" y="544"/>
      <point x="469" y="544" type="curve" smooth="yes"/>
      <point x="406" y="544"/>
      <point x="357" y="521"/>
      <point x="357" y="449" type="curve" smooth="yes"/>
      <point x="357" y="379"/>
      <point x="406" y="354"/>
    </contour>
    <contour>
      <point x="469" y="-10" type="curve" smooth="yes"/>
      <point x="528" y="-10"/>
      <point x="581" y="14"/>
      <point x="581" y="85" type="curve" smooth="yes"/>
      <point x="581" y="158"/>
      <point x="528" y="180"/>
      <point x="469" y="180" type="curve" smooth="yes"/>
      <point x="406" y="180"/>
      <point x="357" y="158"/>
      <point x="357" y="85" type="curve" smooth="yes"/>
      <point x="357" y="14"/>
      <point x="406" y="-10"/>
    </contour>
    <contour>
      <point x="185" y="178" type="curve" smooth="yes"/>
      <point x="245" y="178"/>
      <point x="297" y="204"/>
      <point x="297" y="273" type="curve" smooth="yes"/>
      <point x="297" y="346"/>
      <point x="245" y="368"/>
      <point x="185" y="368" type="curve" smooth="yes"/>
      <point x="121" y="368"/>
      <point x="74" y="346"/>
      <point x="74" y="273" type="curve" smooth="yes"/>
      <point x="74" y="204"/>
      <point x="121" y="178"/>
    </contour>
    <contour>
      <point x="753" y="178" type="curve" smooth="yes"/>
      <point x="812" y="178"/>
      <point x="864" y="203"/>
      <point x="864" y="273" type="curve" smooth="yes"/>
      <point x="864" y="346"/>
      <point x="812" y="367"/>
      <point x="753" y="367" type="curve" smooth="yes"/>
      <point x="688" y="367"/>
      <point x="641" y="346"/>
      <point x="641" y="273" type="curve" smooth="yes"/>
      <point x="641" y="203"/>
      <point x="688" y="178"/>
    </contour>
  </outline>
</glyph>
<glyph name="zerosuperior" format="2">
  <advance width="467"/>
  <unicode hex="2070"/>
  <outline>
    <contour>
      <point x="232" y="380" type="curve" smooth="yes"/>
      <point x="398" y="380"/>
      <point x="447" y="467"/>
      <point x="447" y="605" type="curve" smooth="yes"/>
      <point x="447" y="739"/>
      <point x="398" y="824"/>
      <point x="236" y="824" type="curve" smooth="yes"/>
      <point x="63" y="824"/>
      <point x="20" y="739"/>
      <point x="20" y="605" type="curve" smooth="yes"/>
      <point x="20" y="467"/>
      <point x="63" y="380"/>
    </contour>
    <contour>
      <point x="232" y="442" type="curve" smooth="yes"/>
      <point x="185" y="442"/>
      <point x="174" y="486"/>
      <point x="174" y="605" type="curve" smooth="yes"/>
      <point x="174" y="719"/>
      <point x="184" y="763"/>
      <point x="236" y="763" type="curve" smooth="yes"/>
      <point x="287" y="763"/>
      <point x="292" y="719"/>
      <point x="292" y="605" type="curve" smooth="yes"/>
      <point x="292" y="486"/>
      <point x="287" y="442"/>
    </contour>
  </outline>
</glyph>
<glyph name="franc" format="2">
  <advance width="672"/>
  <unicode hex="20A3"/>
  <outline>
    <contour>
      <point x="29" y="0" type="line"/>
      <point x="489" y="0" type="line"/>
      <point x="489" y="66" type="line"/>
      <point x="419" y="66" type="line" smooth="yes"/>
      <point x="376" y="66"/>
      <point x="357" y="79"/>
      <point x="357" y="123" type="curve" smooth="yes"/>
      <point x="357" y="166" type="line"/>
      <point x="507" y="166" type="line"/>
      <point x="507" y="237" type="line"/>
      <point x="357" y="237" type="line"/>
      <point x="357" y="339" type="line"/>
      <point x="557" y="339" type="line"/>
      <point x="557" y="410" type="line"/>
      <point x="357" y="410" type="line"/>
      <point x="357" y="640" type="line"/>
      <point x="460" y="640" type="line" smooth="yes"/>
      <point x="505" y="640"/>
      <point x="535" y="636"/>
      <point x="544" y="573" type="curve" smooth="yes"/>
      <point x="549" y="519" type="line"/>
      <point x="646" y="519" type="line"/>
      <point x="640" y="714" type="line"/>
      <point x="29" y="714" type="line"/>
      <point x="29" y="648" type="line"/>
      <point x="79" y="648" type="line" smooth="yes"/>
      <point x="122" y="648"/>
      <point x="136" y="635"/>
      <point x="136" y="589" type="curve" smooth="yes"/>
      <point x="136" y="237" type="line"/>
      <point x="35" y="237" type="line"/>
      <point x="35" y="166" type="line"/>
      <point x="136" y="166" type="line"/>
      <point x="136" y="118" type="line" smooth="yes"/>
      <point x="136" y="78"/>
      <point x="122" y="66"/>
      <point x="79" y="66" type="curve" smooth="yes"/>
      <point x="29" y="66" type="line"/>
    </contour>
  </outline>
</glyph>
<glyph name="uni20A6" format="2">
  <advance width="857"/>
  <unicode hex="20A6"/>
  <outline>
    <contour>
      <point x="25" y="0" type="line"/>
      <point x="314" y="0" type="line"/>
      <point x="314" y="66" type="line"/>
      <point x="287" y="66" type="line" smooth="yes"/>
      <point x="246" y="66"/>
      <point x="231" y="77"/>
      <point x="231" y="128" type="curve" smooth="yes"/>
      <point x="231" y="264" type="line"/>
      <point x="382" y="264" type="line"/>
      <point x="526" y="0" type="line"/>
      <point x="718" y="0" type="line"/>
      <point x="718" y="264" type="line"/>
      <point x="826" y="264" type="line"/>
      <point x="826" y="346" type="line"/>
      <point x="718" y="346" type="line"/>
      <point x="718" y="412" type="line"/>
      <point x="826" y="412" type="line"/>
      <point x="826" y="494" type="line"/>
      <point x="718" y="494" type="line"/>
      <point x="718" y="589" type="line" smooth="yes"/>
      <point x="718" y="627"/>
      <point x="741" y="648"/>
      <point x="776" y="648" type="curve" smooth="yes"/>
      <point x="825" y="648" type="line"/>
      <point x="825" y="714" type="line"/>
      <point x="536" y="714" type="line"/>
      <point x="536" y="648" type="line"/>
      <point x="563" y="648" type="line" smooth="yes"/>
      <point x="595" y="648"/>
      <point x="619" y="631"/>
      <point x="619" y="593" type="curve" smooth="yes"/>
      <point x="619" y="494" type="line"/>
      <point x="466" y="494" type="line"/>
      <point x="341" y="714" type="line"/>
      <point x="25" y="714" type="line"/>
      <point x="25" y="648" type="line"/>
      <point x="74" y="648" type="line" smooth="yes"/>
      <point x="104" y="648"/>
      <point x="132" y="638"/>
      <point x="132" y="591" type="curve" smooth="yes"/>
      <point x="132" y="494" type="line"/>
      <point x="27" y="494" type="line"/>
      <point x="27" y="412" type="line"/>
      <point x="132" y="412" type="line"/>
      <point x="132" y="346" type="line"/>
      <point x="27" y="346" type="line"/>
      <point x="27" y="264" type="line"/>
      <point x="132" y="264" type="line"/>
      <point x="132" y="128" type="line" smooth="yes"/>
      <point x="132" y="77"/>
      <point x="105" y="66"/>
      <point x="63" y="66" type="curve" smooth="yes"/>
      <point x="25" y="66" type="line"/>
    </contour>
    <contour>
      <point x="231" y="346" type="line"/>
      <point x="231" y="412" type="line"/>
      <point x="305" y="412" type="line"/>
      <point x="341" y="346" type="line"/>
    </contour>
    <contour>
      <point x="618" y="228" type="line"/>
      <point x="593" y="264" type="line"/>
      <point x="619" y="264" type="line"/>
    </contour>
    <contour>
      <point x="231" y="494" type="line"/>
      <point x="230" y="537" type="line"/>
      <point x="258" y="494" type="line"/>
    </contour>
    <contour>
      <point x="544" y="346" type="line"/>
      <point x="507" y="412" type="line"/>
      <point x="619" y="412" type="line"/>
      <point x="619" y="346" type="line"/>
    </contour>
  </outline>
</glyph>
<glyph name="centrelinesymbol" format="2">
  <advance width="881"/>
  <unicode hex="2104"/>
  <outline>
    <contour>
      <point x="174" y="0" type="line"/>
      <point x="844" y="0" type="line"/>
      <point x="852" y="257" type="line"/>
      <point x="783" y="257" type="line"/>
      <point x="760" y="184" type="line" smooth="yes"/>
      <point x="735" y="97"/>
      <point x="712" y="74"/>
      <point x="638" y="74" type="curve" smooth="yes"/>
      <point x="500" y="74" type="line"/>
      <point x="500" y="137" type="line"/>
      <point x="580" y="142"/>
      <point x="662" y="176"/>
      <point x="688" y="188" type="curve"/>
      <point x="688" y="305" type="line"/>
      <point x="653" y="276"/>
      <point x="573" y="241"/>
      <point x="500" y="230" type="curve"/>
      <point x="500" y="509" type="line"/>
      <point x="542" y="494"/>
      <point x="565" y="448"/>
      <point x="563" y="398" type="curve"/>
      <point x="656" y="398"/>
      <point x="726" y="413"/>
      <point x="726" y="476" type="curve" smooth="yes"/>
      <point x="726" y="530"/>
      <point x="657" y="568"/>
      <point x="500" y="581" type="curve"/>
      <point x="500" y="593" type="line" smooth="yes"/>
      <point x="500" y="636"/>
      <point x="522" y="648"/>
      <point x="559" y="648" type="curve" smooth="yes"/>
      <point x="595" y="648" type="line"/>
      <point x="595" y="714" type="line"/>
      <point x="174" y="714" type="line"/>
      <point x="174" y="648" type="line"/>
      <point x="206" y="648" type="line" smooth="yes"/>
      <point x="248" y="648"/>
      <point x="277" y="636"/>
      <point x="277" y="591" type="curve" smooth="yes"/>
      <point x="277" y="578" type="line"/>
      <point x="148" y="562"/>
      <point x="14" y="510"/>
      <point x="14" y="362" type="curve" smooth="yes"/>
      <point x="14" y="219"/>
      <point x="132" y="161"/>
      <point x="277" y="143" type="curve"/>
      <point x="277" y="126" type="line" smooth="yes"/>
      <point x="277" y="81"/>
      <point x="249" y="66"/>
      <point x="211" y="66" type="curve" smooth="yes"/>
      <point x="174" y="66" type="line"/>
    </contour>
    <contour>
      <point x="277" y="250" type="line"/>
      <point x="219" y="273"/>
      <point x="197" y="324"/>
      <point x="197" y="374" type="curve" smooth="yes"/>
      <point x="197" y="436"/>
      <point x="227" y="476"/>
      <point x="277" y="496" type="curve"/>
    </contour>
  </outline>
</glyph>
<glyph name="planckconstantovertwopi" format="2">
  <advance width="850"/>
  <unicode hex="210F"/>
  <outline>
    <contour>
      <point x="619" y="-10" type="curve" smooth="yes"/>
      <point x="705" y="-10"/>
      <point x="780" y="21"/>
      <point x="830" y="47" type="curve"/>
      <point x="806" y="101" type="line"/>
      <point x="779" y="86"/>
      <point x="757" y="78"/>
      <point x="734" y="78" type="curve" smooth="yes"/>
      <point x="707" y="78"/>
      <point x="693" y="89"/>
      <point x="693" y="113" type="curve" smooth="yes"/>
      <point x="693" y="138"/>
      <point x="707" y="188"/>
      <point x="726" y="241" type="curve" smooth="yes"/>
      <point x="736" y="262" type="line" smooth="yes"/>
      <point x="752" y="313"/>
      <point x="768" y="355"/>
      <point x="768" y="417" type="curve" smooth="yes"/>
      <point x="768" y="491"/>
      <point x="713" y="554"/>
      <point x="609" y="554" type="curve" smooth="yes"/>
      <point x="490" y="554"/>
      <point x="416" y="487"/>
      <point x="372" y="434" type="curve"/>
      <point x="359" y="434" type="line"/>
      <point x="375" y="485"/>
      <point x="388" y="512"/>
      <point x="406" y="585" type="curve"/>
      <point x="540" y="624" type="line"/>
      <point x="555" y="712" type="line"/>
      <point x="428" y="676" type="line"/>
      <point x="451" y="760" type="line"/>
      <point x="125" y="760" type="line"/>
      <point x="112" y="696" type="line"/>
      <point x="121" y="696" type="line" smooth="yes"/>
      <point x="176" y="696"/>
      <point x="203" y="680"/>
      <point x="203" y="649" type="curve" smooth="yes"/>
      <point x="203" y="637"/>
      <point x="200" y="625"/>
      <point x="195" y="606" type="curve" smooth="yes"/>
      <point x="190" y="594" type="line"/>
      <point x="77" y="562" type="line"/>
      <point x="63" y="475" type="line"/>
      <point x="170" y="504" type="line"/>
      <point x="43" y="0" type="line"/>
      <point x="264" y="0" type="line"/>
      <point x="328" y="256" type="line" smooth="yes"/>
      <point x="334" y="276"/>
      <point x="357" y="334"/>
      <point x="381" y="368" type="curve" smooth="yes"/>
      <point x="407" y="399"/>
      <point x="453" y="443"/>
      <point x="498" y="443" type="curve" smooth="yes"/>
      <point x="524" y="443"/>
      <point x="539" y="428"/>
      <point x="539" y="406" type="curve" smooth="yes"/>
      <point x="539" y="384"/>
      <point x="533" y="352"/>
      <point x="524" y="319" type="curve" smooth="yes"/>
      <point x="498" y="239" type="line" smooth="yes"/>
      <point x="484" y="195"/>
      <point x="469" y="136"/>
      <point x="469" y="96" type="curve" smooth="yes"/>
      <point x="469" y="31"/>
      <point x="520" y="-10"/>
    </contour>
  </outline>
</glyph>
<glyph name="uni2C60" format="2">
  <advance width="790"/>
  <unicode hex="2C60"/>
  <anchor x="396" y="0" name="bottom"/>
  <anchor x="396" y="714" name="top"/>
  <anchor x="770" y="714" name="topright"/>
  <anchor x="396" y="357" name="center"/>
  <outline>
    <contour>
      <point x="7" y="398" type="line"/>
      <point x="547" y="398" type="line"/>
      <point x="547" y="474" type="line"/>
      <point x="7" y="474" type="line"/>
    </contour>
    <contour>
      <point x="7" y="270" type="line"/>
      <point x="547" y="270" type="line"/>
      <point x="547" y="346" type="line"/>
      <point x="7" y="346" type="line"/>
    </contour>
    <component base="L"/>
  </outline>
</glyph>
<glyph name="uni2C66" format="2">
  <advance width="517"/>
  <unicode hex="2C66"/>
  <anchor x="258" y="-175" name="bottom"/>
  <anchor x="258" y="714" name="top"/>
  <anchor x="477" y="662" name="topright"/>
  <anchor x="258" y="268" name="center"/>
  <outline>
    <contour>
      <point x="94" y="-175" type="line"/>
      <point x="195" y="-175" type="line"/>
      <point x="496" y="714" type="line"/>
      <point x="399" y="714" type="line"/>
    </contour>
    <component base="t"/>
  </outline>
</glyph>
<glyph name="uni2C6B" format="2">
  <advance width="840"/>
  <unicode hex="2C6B"/>
  <anchor x="421" y="0" name="bottom"/>
  <anchor x="421" y="714" name="top"/>
  <outline>
    <contour>
      <point x="679" y="-210" type="curve"/>
      <point x="755" y="-210" type="line"/>
      <point x="755" y="74" type="line"/>
      <point x="317" y="74" type="line"/>
      <point x="755" y="651" type="line"/>
      <point x="755" y="714" type="line"/>
      <point x="81" y="714" type="line"/>
      <point x="76" y="470" type="line"/>
      <point x="177" y="470" type="line"/>
      <point x="183" y="537" type="line" smooth="yes"/>
      <point x="189" y="606"/>
      <point x="202" y="640"/>
      <point x="278" y="640" type="curve" smooth="yes"/>
      <point x="491" y="640" type="line"/>
      <point x="54" y="62" type="line"/>
      <point x="54" y="0" type="line"/>
      <point x="545" y="0" type="line" smooth="yes"/>
      <point x="642" y="0"/>
      <point x="665" y="-24"/>
    </contour>
  </outline>
</glyph>
<glyph name="Mhook" format="2">
  <advance width="1131"/>
  <unicode hex="2C6E"/>
  <anchor x="565" y="-240" name="bottom"/>
  <anchor x="565" y="714" name="top"/>
  <outline>
    <contour>
      <point x="636" y="-240" type="line"/>
      <point x="700" y="-240" type="line" smooth="yes"/>
      <point x="850" y="-240"/>
      <point x="992" y="-205"/>
      <point x="992" y="-7" type="curve" smooth="yes"/>
      <point x="992" y="605" type="line" smooth="yes"/>
      <point x="992" y="629"/>
      <point x="1015" y="648"/>
      <point x="1037" y="648" type="curve" smooth="yes"/>
      <point x="1099" y="648" type="line"/>
      <point x="1099" y="714" type="line"/>
      <point x="717" y="714" type="line"/>
      <point x="570" y="339" type="line"/>
      <point x="411" y="714" type="line"/>
      <point x="24" y="714" type="line"/>
      <point x="24" y="648" type="line"/>
      <point x="82" y="648" type="line" smooth="yes"/>
      <point x="106" y="648"/>
      <point x="132" y="629"/>
      <point x="132" y="596" type="curve" smooth="yes"/>
      <point x="132" y="118" type="line" smooth="yes"/>
      <point x="132" y="84"/>
      <point x="106" y="66"/>
      <point x="63" y="66" type="curve" smooth="yes"/>
      <point x="24" y="66" type="line"/>
      <point x="24" y="0" type="line"/>
      <point x="329" y="0" type="line"/>
      <point x="329" y="66" type="line"/>
      <point x="318" y="66" type="line" smooth="yes"/>
      <point x="262" y="66"/>
      <point x="231" y="73"/>
      <point x="231" y="123" type="curve" smooth="yes"/>
      <point x="231" y="589" type="line"/>
      <point x="458" y="0" type="line"/>
      <point x="550" y="0" type="line"/>
      <point x="763" y="586" type="line"/>
      <point x="763" y="12" type="line" smooth="yes"/>
      <point x="763" y="-128"/>
      <point x="722" y="-160"/>
      <point x="643" y="-160" type="curve" smooth="yes"/>
      <point x="636" y="-160" type="line"/>
    </contour>
  </outline>
</glyph>
<glyph name="uni2C7F" format="2">
  <advance width="840"/>
  <unicode hex="2C7F"/>
  <outline>
    <contour>
      <point x="640" y="-240" type="curve" smooth="yes"/>
      <point x="718" y="-240"/>
      <point x="781" y="-209"/>
      <point x="781" y="-144" type="curve" smooth="yes"/>
      <point x="781" y="-92"/>
      <point x="751" y="-66"/>
      <point x="676" y="-63" type="curve"/>
      <point x="676" y="-103"/>
      <point x="668" y="-150"/>
      <point x="617" y="-150" type="curve" smooth="yes"/>
      <point x="571" y="-150"/>
      <point x="535" y="-115"/>
      <point x="498" y="-61" type="curve" smooth="yes"/>
      <point x="442" y="15"/>
      <point x="376" y="53"/>
      <point x="306" y="62" type="curve"/>
      <point x="755" y="651" type="line"/>
      <point x="755" y="714" type="line"/>
      <point x="81" y="714" type="line"/>
      <point x="76" y="470" type="line"/>
      <point x="177" y="470" type="line"/>
      <point x="183" y="537" type="line" smooth="yes"/>
      <point x="189" y="606"/>
      <point x="202" y="640"/>
      <point x="278" y="640" type="curve" smooth="yes"/>
      <point x="491" y="640" type="line"/>
      <point x="54" y="62" type="line"/>
      <point x="54" y="0" type="line"/>
      <point x="169" y="0" type="line" smooth="yes"/>
      <point x="332" y="0"/>
      <point x="361" y="-29"/>
      <point x="426" y="-121" type="curve" smooth="yes"/>
      <point x="468" y="-181"/>
      <point x="530" y="-240"/>
    </contour>
  </outline>
</glyph>
<glyph name="paragraphos" format="2">
  <advance width="1167"/>
  <unicode hex="2E0F"/>
  <outline>
    <contour>
      <point x="1173" y="-142" type="line"/>
      <point x="1173" y="-83" type="line"/>
      <point x="-5" y="-83" type="line"/>
      <point x="-5" y="-142" type="line"/>
    </contour>
  </outline>
</glyph>
<glyph name="brackhalftopleft" format="2">
  <advance width="524"/>
  <unicode hex="2E22"/>
  <outline>
    <contour>
      <point x="113" y="315" type="line"/>
      <point x="337" y="315" type="line"/>
      <point x="337" y="622" type="line" smooth="yes"/>
      <point x="337" y="686"/>
      <point x="380" y="694"/>
      <point x="432" y="694" type="curve" smooth="yes"/>
      <point x="482" y="694" type="line"/>
      <point x="482" y="760" type="line"/>
      <point x="113" y="760" type="line"/>
    </contour>
  </outline>
</glyph>
<glyph name="brackhalfbottomleft" format="2">
  <advance width="529"/>
  <unicode hex="2E24"/>
  <outline>
    <contour>
      <point x="117" y="-128" type="line"/>
      <point x="486" y="-128" type="line"/>
      <point x="486" y="-62" type="line"/>
      <point x="435" y="-62" type="line"/>
      <point x="383" y="-62"/>
      <point x="340" y="-53"/>
      <point x="340" y="10" type="curve"/>
      <point x="340" y="316" type="line"/>
      <point x="117" y="316" type="line"/>
    </contour>
  </outline>
</glyph>
<glyph name="verticaltilde" format="2">
  <advance width="382"/>
  <unicode hex="2E2F"/>
  <outline>
    <contour>
      <point x="111" y="519" type="line"/>
      <point x="211" y="519"/>
      <point x="270" y="571"/>
      <point x="270" y="640" type="curve" smooth="yes"/>
      <point x="270" y="717"/>
      <point x="209" y="760"/>
      <point x="209" y="806" type="curve" smooth="yes"/>
      <point x="209" y="827"/>
      <point x="226" y="842"/>
      <point x="271" y="842" type="curve"/>
      <point x="271" y="923" type="line"/>
      <point x="172" y="923"/>
      <point x="112" y="872"/>
      <point x="112" y="803" type="curve" smooth="yes"/>
      <point x="112" y="721"/>
      <point x="173" y="694"/>
      <point x="173" y="642" type="curve" smooth="yes"/>
      <point x="173" y="622"/>
      <point x="156" y="601"/>
      <point x="111" y="601" type="curve"/>
    </contour>
  </outline>
</glyph>
<glyph name="uni2E44" format="2">
  <advance width="425"/>
  <unicode hex="2E44"/>
  <outline>
    <contour>
      <point x="119" y="473" type="line"/>
      <point x="385" y="588" type="line"/>
      <point x="218" y="779" type="line"/>
      <point x="40" y="572" type="line"/>
    </contour>
    <contour>
      <point x="119" y="-52" type="line"/>
      <point x="385" y="63" type="line"/>
      <point x="218" y="254" type="line"/>
      <point x="40" y="47" type="line"/>
    </contour>
  </outline>
</glyph>
<glyph name="uniA641" format="2">
  <advance width="633"/>
  <unicode hex="A641"/>
  <outline>
    <contour>
      <point x="130" y="-235" type="curve"/>
      <point x="130" y="-161"/>
      <point x="152" y="-152"/>
      <point x="199" y="-152" type="curve" smooth="yes"/>
      <point x="260" y="-152"/>
      <point x="324" y="-206"/>
      <point x="439" y="-206" type="curve" smooth="yes"/>
      <point x="557" y="-206"/>
      <point x="624" y="-149"/>
      <point x="624" y="-62" type="curve" smooth="yes"/>
      <point x="624" y="53"/>
      <point x="529" y="83"/>
      <point x="412" y="83" type="curve" smooth="yes"/>
      <point x="253" y="83" type="line"/>
      <point x="602" y="491" type="line"/>
      <point x="602" y="536" type="line"/>
      <point x="56" y="536" type="line"/>
      <point x="42" y="349" type="line"/>
      <point x="126" y="349" type="line"/>
      <point x="138" y="395" type="line" smooth="yes"/>
      <point x="153" y="450"/>
      <point x="178" y="452"/>
      <point x="227" y="452" type="curve" smooth="yes"/>
      <point x="349" y="452" type="line"/>
      <point x="1" y="43" type="line"/>
      <point x="1" y="0" type="line"/>
      <point x="391" y="0" type="line" smooth="yes"/>
      <point x="497" y="0"/>
      <point x="533" y="-19"/>
      <point x="533" y="-67" type="curve" smooth="yes"/>
      <point x="533" y="-115"/>
      <point x="499" y="-137"/>
      <point x="440" y="-137" type="curve" smooth="yes"/>
      <point x="355" y="-137"/>
      <point x="264" y="-55"/>
      <point x="145" y="-55" type="curve" smooth="yes"/>
      <point x="58" y="-55"/>
      <point x="15" y="-94"/>
      <point x="15" y="-146" type="curve" smooth="yes"/>
      <point x="15" y="-198"/>
      <point x="53" y="-235"/>
    </contour>
  </outline>
</glyph>
<glyph name="uniA653" format="2">
  <advance width="1139"/>
  <unicode hex="A653"/>
  <outline>
    <contour>
      <point x="21" y="0" type="line"/>
      <point x="414" y="0" type="line"/>
      <point x="414" y="66" type="line"/>
      <point x="406" y="66" type="line" smooth="yes"/>
      <point x="361" y="66"/>
      <point x="332" y="85"/>
      <point x="332" y="129" type="curve" smooth="yes"/>
      <point x="332" y="333" type="line"/>
      <point x="525" y="333" type="line"/>
      <point x="525" y="127" type="line" smooth="yes"/>
      <point x="525" y="91"/>
      <point x="511" y="66"/>
      <point x="450" y="66" type="curve" smooth="yes"/>
      <point x="444" y="66" type="line"/>
      <point x="444" y="0" type="line"/>
      <point x="852" y="0" type="line" smooth="yes"/>
      <point x="1040" y="0"/>
      <point x="1130" y="73"/>
      <point x="1130" y="149" type="curve" smooth="yes"/>
      <point x="1130" y="265"/>
      <point x="1006" y="289"/>
      <point x="863" y="289" type="curve" smooth="yes"/>
      <point x="752" y="289" type="line"/>
      <point x="752" y="333" type="line"/>
      <point x="907" y="333" type="line"/>
      <point x="907" y="402" type="line"/>
      <point x="752" y="402" type="line"/>
      <point x="752" y="411" type="line" smooth="yes"/>
      <point x="752" y="436"/>
      <point x="773" y="461"/>
      <point x="836" y="461" type="curve" smooth="yes"/>
      <point x="851" y="461" type="line"/>
      <point x="851" y="536" type="line"/>
      <point x="444" y="536" type="line"/>
      <point x="444" y="470" type="line"/>
      <point x="450" y="470" type="line" smooth="yes"/>
      <point x="507" y="470"/>
      <point x="525" y="444"/>
      <point x="525" y="408" type="curve" smooth="yes"/>
      <point x="525" y="402" type="line"/>
      <point x="332" y="402" type="line"/>
      <point x="332" y="410" type="line" smooth="yes"/>
      <point x="332" y="455"/>
      <point x="356" y="470"/>
      <point x="405" y="470" type="curve" smooth="yes"/>
      <point x="414" y="470" type="line"/>
      <point x="414" y="536" type="line"/>
      <point x="21" y="536" type="line"/>
      <point x="21" y="470" type="line"/>
      <point x="34" y="470" type="line" smooth="yes"/>
      <point x="82" y="470"/>
      <point x="105" y="456"/>
      <point x="105" y="408" type="curve" smooth="yes"/>
      <point x="105" y="129" type="line" smooth="yes"/>
      <point x="105" y="79"/>
      <point x="79" y="66"/>
      <point x="34" y="66" type="curve" smooth="yes"/>
      <point x="21" y="66" type="line"/>
    </contour>
    <contour>
      <point x="751" y="73" type="line"/>
      <point x="751" y="217" type="line"/>
      <point x="789" y="217" type="line" smooth="yes"/>
      <point x="853" y="217"/>
      <point x="897" y="196"/>
      <point x="897" y="150" type="curve" smooth="yes"/>
      <point x="897" y="97"/>
      <point x="861" y="73"/>
      <point x="792" y="73" type="curve" smooth="yes"/>
    </contour>
  </outline>
</glyph>
<glyph name="uniA654" format="2">
  <advance width="1360"/>
  <unicode hex="A654"/>
  <outline>
    <contour>
      <point x="464" y="-10" type="curve" smooth="yes"/>
      <point x="702" y="-10"/>
      <point x="855" y="108"/>
      <point x="869" y="335" type="curve"/>
      <point x="977" y="335" type="line"/>
      <point x="977" y="110" type="line" smooth="yes"/>
      <point x="977" y="86"/>
      <point x="963" y="67"/>
      <point x="935" y="67" type="curve" smooth="yes"/>
      <point x="892" y="67" type="line"/>
      <point x="892" y="1" type="line"/>
      <point x="1317" y="1" type="line"/>
      <point x="1317" y="67" type="line"/>
      <point x="1266" y="67" type="line" smooth="yes"/>
      <point x="1235" y="67"/>
      <point x="1209" y="86"/>
      <point x="1209" y="116" type="curve" smooth="yes"/>
      <point x="1209" y="603" type="line" smooth="yes"/>
      <point x="1209" y="623"/>
      <point x="1228" y="649"/>
      <point x="1255" y="649" type="curve" smooth="yes"/>
      <point x="1317" y="649" type="line"/>
      <point x="1317" y="715" type="line"/>
      <point x="892" y="715" type="line"/>
      <point x="892" y="649" type="line"/>
      <point x="935" y="649" type="line" smooth="yes"/>
      <point x="963" y="649"/>
      <point x="977" y="623"/>
      <point x="977" y="604" type="curve" smooth="yes"/>
      <point x="977" y="409" type="line"/>
      <point x="866" y="409" type="line"/>
      <point x="849" y="578"/>
      <point x="725" y="725"/>
      <point x="465" y="725" type="curve" smooth="yes"/>
      <point x="211" y="725"/>
      <point x="63" y="580"/>
      <point x="63" y="357" type="curve" smooth="yes"/>
      <point x="63" y="133"/>
      <point x="211" y="-10"/>
    </contour>
    <contour>
      <point x="464" y="68" type="curve" smooth="yes"/>
      <point x="351" y="68"/>
      <point x="307" y="172"/>
      <point x="307" y="357" type="curve" smooth="yes"/>
      <point x="307" y="542"/>
      <point x="351" y="647"/>
      <point x="465" y="647" type="curve" smooth="yes"/>
      <point x="578" y="647"/>
      <point x="625" y="542"/>
      <point x="625" y="357" type="curve" smooth="yes"/>
      <point x="625" y="172"/>
      <point x="578" y="68"/>
    </contour>
  </outline>
</glyph>
<glyph name="uniA656" format="2">
  <advance width="1419"/>
  <unicode hex="A656"/>
  <anchor x="959" y="714" name="top"/>
  <anchor x="1289" y="714" name="topright"/>
  <anchor x="959" y="0" name="bottom"/>
  <outline>
    <contour>
      <point x="24" y="0" type="line"/>
      <point x="450" y="0" type="line"/>
      <point x="450" y="66" type="line"/>
      <point x="407" y="66" type="line" smooth="yes"/>
      <point x="379" y="66"/>
      <point x="364" y="92"/>
      <point x="364" y="111" type="curve" smooth="yes"/>
      <point x="364" y="335" type="line"/>
      <point x="766" y="335" type="line"/>
      <point x="766" y="409" type="line"/>
      <point x="364" y="409" type="line"/>
      <point x="364" y="605" type="line" smooth="yes"/>
      <point x="364" y="629"/>
      <point x="379" y="648"/>
      <point x="407" y="648" type="curve" smooth="yes"/>
      <point x="450" y="648" type="line"/>
      <point x="450" y="714" type="line"/>
      <point x="24" y="714" type="line"/>
      <point x="24" y="648" type="line"/>
      <point x="76" y="648" type="line" smooth="yes"/>
      <point x="108" y="648"/>
      <point x="132" y="629"/>
      <point x="132" y="599" type="curve" smooth="yes"/>
      <point x="132" y="111" type="line" smooth="yes"/>
      <point x="132" y="92"/>
      <point x="113" y="66"/>
      <point x="86" y="66" type="curve" smooth="yes"/>
      <point x="24" y="66" type="line"/>
    </contour>
    <component base="A" xOffset="500"/>
  </outline>
</glyph>
<glyph name="uniA667" format="2">
  <advance width="1163"/>
  <unicode hex="A667"/>
  <outline>
    <contour>
      <point x="19" y="0" type="line"/>
      <point x="267" y="0" type="line"/>
      <point x="267" y="66" type="line"/>
      <point x="253" y="66" type="line" smooth="yes"/>
      <point x="201" y="66"/>
      <point x="186" y="81"/>
      <point x="186" y="140" type="curve" smooth="yes"/>
      <point x="186" y="390" type="line"/>
      <point x="194" y="390" type="line"/>
      <point x="371" y="0" type="line"/>
      <point x="452" y="0" type="line"/>
      <point x="643" y="390" type="line"/>
      <point x="651" y="390" type="line"/>
      <point x="651" y="140" type="line" smooth="yes"/>
      <point x="651" y="81"/>
      <point x="626" y="66"/>
      <point x="577" y="66" type="curve" smooth="yes"/>
      <point x="563" y="66" type="line"/>
      <point x="563" y="0" type="line"/>
      <point x="955" y="0" type="line"/>
      <point x="955" y="66" type="line"/>
      <point x="946" y="66" type="line" smooth="yes"/>
      <point x="883" y="66"/>
      <point x="862" y="81"/>
      <point x="862" y="140" type="curve" smooth="yes"/>
      <point x="862" y="466" type="line"/>
      <point x="946" y="466" type="line" smooth="yes"/>
      <point x="1011" y="466"/>
      <point x="1023" y="432"/>
      <point x="1031" y="391" type="curve" smooth="yes"/>
      <point x="1042" y="335" type="line"/>
      <point x="1140" y="335" type="line"/>
      <point x="1140" y="536" type="line"/>
      <point x="612" y="536" type="line"/>
      <point x="477" y="286" type="line"/>
      <point x="357" y="536" type="line"/>
      <point x="19" y="536" type="line"/>
      <point x="19" y="470" type="line"/>
      <point x="32" y="470" type="line" smooth="yes"/>
      <point x="72" y="470"/>
      <point x="102" y="456"/>
      <point x="102" y="401" type="curve" smooth="yes"/>
      <point x="102" y="137" type="line" smooth="yes"/>
      <point x="102" y="81"/>
      <point x="76" y="66"/>
      <point x="36" y="66" type="curve" smooth="yes"/>
      <point x="19" y="66" type="line"/>
    </contour>
  </outline>
</glyph>
<glyph name="uniA686" format="2">
  <advance width="1364"/>
  <unicode hex="A686"/>
  <outline>
    <contour>
      <point x="904" y="0" type="line"/>
      <point x="1340" y="0" type="line"/>
      <point x="1340" y="66" type="line"/>
      <point x="1295" y="66" type="line" smooth="yes"/>
      <point x="1251" y="66"/>
      <point x="1233" y="76"/>
      <point x="1233" y="132" type="curve" smooth="yes"/>
      <point x="1233" y="586" type="line" smooth="yes"/>
      <point x="1233" y="637"/>
      <point x="1252" y="648"/>
      <point x="1295" y="648" type="curve" smooth="yes"/>
      <point x="1340" y="648" type="line"/>
      <point x="1340" y="714" type="line"/>
      <point x="921" y="714" type="line"/>
      <point x="921" y="648" type="line"/>
      <point x="937" y="648" type="line" smooth="yes"/>
      <point x="981" y="648"/>
      <point x="998" y="637"/>
      <point x="998" y="586" type="curve" smooth="yes"/>
      <point x="998" y="331" type="line"/>
      <point x="978" y="334"/>
      <point x="943" y="333"/>
      <point x="903" y="333" type="curve" smooth="yes"/>
      <point x="818" y="333"/>
      <point x="788" y="363"/>
      <point x="788" y="498" type="curve" smooth="yes"/>
      <point x="788" y="586" type="line" smooth="yes"/>
      <point x="788" y="637"/>
      <point x="807" y="648"/>
      <point x="850" y="648" type="curve" smooth="yes"/>
      <point x="865" y="648" type="line"/>
      <point x="865" y="714" type="line"/>
      <point x="472" y="714" type="line"/>
      <point x="472" y="648" type="line"/>
      <point x="492" y="648" type="line" smooth="yes"/>
      <point x="536" y="648"/>
      <point x="553" y="637"/>
      <point x="553" y="582" type="curve" smooth="yes"/>
      <point x="553" y="491" type="line" smooth="yes"/>
      <point x="553" y="425"/>
      <point x="562" y="375"/>
      <point x="580" y="337" type="curve"/>
      <point x="534" y="333"/>
      <point x="503" y="333"/>
      <point x="469" y="333" type="curve" smooth="yes"/>
      <point x="373" y="333"/>
      <point x="342" y="363"/>
      <point x="342" y="498" type="curve" smooth="yes"/>
      <point x="342" y="586" type="line" smooth="yes"/>
      <point x="342" y="637"/>
      <point x="361" y="648"/>
      <point x="405" y="648" type="curve" smooth="yes"/>
      <point x="419" y="648" type="line"/>
      <point x="419" y="714" type="line"/>
      <point x="21" y="714" type="line"/>
      <point x="21" y="648" type="line"/>
      <point x="46" y="648" type="line" smooth="yes"/>
      <point x="91" y="648"/>
      <point x="108" y="638"/>
      <point x="108" y="582" type="curve" smooth="yes"/>
      <point x="108" y="491" type="line" smooth="yes"/>
      <point x="108" y="270"/>
      <point x="225" y="235"/>
      <point x="393" y="235" type="curve" smooth="yes"/>
      <point x="485" y="235"/>
      <point x="568" y="253"/>
      <point x="632" y="272" type="curve"/>
      <point x="681" y="240"/>
      <point x="748" y="235"/>
      <point x="826" y="235" type="curve" smooth="yes"/>
      <point x="915" y="235"/>
      <point x="977" y="248"/>
      <point x="998" y="245" type="curve"/>
      <point x="998" y="127" type="line" smooth="yes"/>
      <point x="998" y="76"/>
      <point x="981" y="66"/>
      <point x="938" y="66" type="curve" smooth="yes"/>
      <point x="904" y="66" type="line"/>
    </contour>
  </outline>
</glyph>
